{"glyphs":{"0":{"ha":953,"x_min":42,"x_max":904,"o":"m 672 933 q 904 711 904 849 q 763 33 838 156 q 697 -3 740 -3 l 581 149 q 315 60 390 149 l 274 51 l 265 51 q 42 568 100 108 q 125 818 42 726 l 142 818 q 158 756 158 818 q 382 881 233 842 l 672 933 m 539 719 l 547 683 l 522 639 l 522 613 l 597 639 l 681 604 l 689 604 l 689 738 l 672 756 l 589 756 q 539 719 547 756 m 365 683 q 224 621 363 671 l 207 568 l 207 506 l 215 506 l 349 568 q 382 586 382 568 l 382 667 l 365 683 m 622 435 l 564 435 q 539 399 543 435 l 547 389 l 547 381 l 522 336 l 631 274 l 647 274 q 681 451 664 274 l 672 451 l 622 435 m 257 310 l 265 300 l 265 292 l 257 238 l 257 229 l 265 229 q 382 381 382 263 l 374 381 q 265 318 326 331 l 257 310 z "},"1":{"ha":482,"x_min":47,"x_max":392,"o":"m 371 849 q 388 608 378 725 l 392 514 l 388 383 l 381 44 q 344 11 381 26 q 231 183 274 53 q 242 728 258 464 l 226 742 q 126 628 226 707 l 113 628 q 47 754 86 628 l 47 768 q 335 982 113 872 l 371 849 z "},"2":{"ha":682,"x_min":0,"x_max":772,"o":"m 481 868 l 483 868 l 507 879 l 507 882 l 501 882 q 481 868 488 882 m 381 1042 l 392 1042 q 558 943 476 1042 l 558 932 q 490 846 558 871 l 415 790 q 600 681 549 790 q 518 546 600 624 q 260 269 339 301 l 260 264 l 265 264 q 576 307 372 288 l 547 411 l 547 417 l 558 429 l 565 429 q 738 251 639 429 l 772 160 q 708 0 772 50 l 692 0 q 651 129 678 0 l 628 178 l 622 172 l 617 172 l 582 178 q 219 74 392 178 q 167 43 196 43 q 51 165 114 43 l 46 196 l 46 226 q 121 307 46 307 q 294 472 188 349 q 438 686 422 621 l 438 699 l 432 699 l 415 693 l 386 699 l 375 699 q 167 496 343 699 q 35 411 68 411 q 0 533 17 411 q 139 643 0 564 q 190 693 139 658 q 369 986 369 913 l 369 999 l 363 1029 l 381 1042 z "},"3":{"ha":838,"x_min":11,"x_max":821,"o":"m 581 1076 q 544 1024 581 1044 q 774 497 614 701 q 821 376 821 497 l 803 358 l 786 358 q 650 514 725 401 l 644 514 l 650 299 l 657 269 q 768 203 749 225 l 768 192 l 739 179 l 681 179 l 663 192 l 639 101 q 469 0 606 0 q 146 60 146 15 l 146 119 q 246 342 189 289 l 251 342 l 251 293 l 257 251 l 251 246 q 281 179 269 179 q 439 119 281 119 l 457 119 q 568 197 558 119 l 568 203 l 563 210 q 322 449 354 339 l 322 472 q 399 568 322 540 l 410 568 l 415 563 q 557 324 415 417 l 563 324 l 563 347 l 515 526 l 522 544 q 597 617 522 563 q 568 640 585 617 q 481 783 508 783 q 322 581 457 765 q 69 485 276 485 l 46 485 q 11 503 17 485 l 11 521 q 264 676 61 582 l 475 861 q 410 1017 410 986 l 410 1035 q 522 1089 449 1089 l 563 1089 l 581 1076 z "},"4":{"ha":528,"x_min":19,"x_max":500,"o":"m 310 856 l 243 765 q 156 719 204 744 l 156 711 l 178 661 l 132 521 l 140 521 q 253 636 253 563 l 306 653 l 328 611 l 388 636 q 500 546 439 636 q 403 496 500 496 l 365 496 l 350 479 q 290 -118 338 -118 l 275 -118 q 238 446 238 -7 l 222 446 l 185 404 q 174 400 179 404 l 54 361 l 56 367 l 57 371 l 57 379 l 56 379 l 54 404 l 57 404 l 57 603 q 19 769 57 685 l 28 778 l 35 778 l 81 769 q 231 976 231 894 l 238 976 q 296 960 267 976 l 319 924 l 310 856 z "},"5":{"ha":818,"x_min":10,"x_max":807,"o":"m 538 983 q 631 918 593 983 l 631 875 q 386 761 626 833 q 315 646 335 646 l 315 635 l 325 635 l 510 733 q 640 613 561 733 q 492 318 640 518 l 454 286 l 454 275 l 464 286 l 519 286 l 668 297 q 807 144 713 297 q 742 57 800 57 q 492 101 626 101 l 426 101 q 121 3 304 101 q 10 167 10 57 l 10 178 q 75 199 10 199 q 297 264 124 235 q 482 613 471 524 l 474 613 q 260 308 381 513 l 224 297 q 167 471 167 297 l 167 558 l 242 722 q 149 765 149 689 q 121 864 128 765 l 139 885 l 186 885 q 501 983 231 885 l 538 983 z "},"6":{"ha":464,"x_min":63,"x_max":436,"o":"m 157 747 q 169 757 163 753 l 185 824 q 146 908 146 881 l 161 925 l 207 925 q 329 815 281 925 q 161 481 169 549 l 176 481 q 283 599 181 521 l 322 599 q 436 447 385 546 q 353 78 411 78 q 253 19 317 19 l 231 19 q 131 154 188 35 q 63 347 89 154 q 124 640 63 456 l 157 747 m 207 389 l 207 381 l 299 364 l 299 464 q 207 389 239 390 m 192 254 l 192 246 q 276 171 192 179 l 292 221 l 192 254 z "},"7":{"ha":638,"x_min":51,"x_max":589,"o":"m 410 1225 q 553 1100 494 1201 l 553 997 q 532 925 553 963 q 589 858 589 900 q 525 792 585 838 l 482 690 l 489 690 q 560 733 540 733 l 568 711 l 474 550 q 460 324 460 499 l 474 0 l 467 -7 l 439 -7 l 294 147 q 188 257 294 161 l 144 235 q 88 315 88 256 l 88 353 q 101 433 88 404 l 138 426 q 367 610 367 549 l 374 675 l 367 682 l 360 682 q 188 550 265 550 q 51 697 51 629 q 131 858 100 736 l 131 881 l 108 946 l 115 954 l 131 954 q 260 792 260 904 q 396 881 363 847 l 417 1093 q 381 1189 417 1149 l 381 1203 q 410 1225 381 1221 m 224 286 q 346 235 297 235 l 353 344 l 353 418 q 224 286 294 338 z "},"8":{"ha":665,"x_min":18,"x_max":586,"o":"m 581 350 q 475 292 581 308 l 438 243 q 528 110 508 243 l 506 76 l 483 76 q 393 168 451 96 l 386 168 l 228 -14 l 206 -14 q 153 118 153 39 l 168 193 l 153 193 l 93 151 q 18 260 18 183 l 236 342 l 228 442 l 228 632 q 161 657 228 650 l 146 707 q 236 757 229 742 l 236 856 l 250 872 l 258 872 q 325 790 271 872 l 415 832 l 415 914 l 393 947 l 415 972 l 453 972 q 528 922 497 972 l 528 897 l 513 872 l 513 856 q 574 790 574 832 q 499 508 499 790 l 475 458 l 475 450 l 499 450 q 581 375 547 450 l 585 375 l 586 350 l 581 350 m 303 624 l 303 607 l 363 624 l 400 615 l 400 624 l 408 707 q 303 624 306 640 m 303 500 l 303 450 l 311 450 l 333 525 l 325 525 l 303 500 m 371 433 q 325 400 371 417 l 325 392 l 333 392 q 386 425 386 411 l 378 433 l 371 433 m 190 151 l 228 143 q 408 251 361 251 q 356 292 408 274 q 190 176 190 219 l 190 151 z "},"9":{"ha":688,"x_min":0,"x_max":706,"o":"m 460 1053 q 583 910 583 986 q 460 858 542 864 l 460 842 q 506 757 506 788 l 460 647 l 468 647 l 560 681 l 575 681 q 706 588 646 681 l 706 554 q 651 521 693 521 l 606 521 l 568 529 l 521 521 l 475 521 l 468 478 l 468 343 l 483 39 q 429 -71 457 -71 l 407 -71 q 200 124 217 60 l 207 132 l 215 132 l 344 115 l 368 132 l 360 496 l 344 496 q 69 351 131 351 q 0 469 0 389 q 168 647 168 526 l 131 782 q 307 918 131 850 q 453 1053 404 974 l 460 1053 m 231 800 l 231 790 q 283 647 274 722 l 261 588 l 360 622 l 360 808 l 353 817 l 353 825 l 231 800 z "}," ":{"ha":392,"x_min":0,"x_max":0,"o":""},"!":{"ha":704,"x_min":-3,"x_max":668,"o":"m 382 599 q 336 269 382 269 l 324 269 q 278 424 278 336 l 289 504 l 289 738 l 278 751 l 74 644 l 67 644 q -3 751 -3 664 q 271 839 133 807 l 271 879 l 265 879 q 201 851 235 851 l 183 851 l 167 872 q 271 932 167 889 l 271 1046 q 249 1153 271 1086 l 249 1179 l 260 1193 q 365 1113 319 1193 l 358 1072 l 358 1065 l 435 1113 l 475 1113 l 540 1039 l 540 1026 q 351 925 535 997 l 347 851 l 563 892 l 569 892 q 668 806 614 892 q 610 751 668 751 q 435 771 515 771 l 371 758 l 376 725 l 382 599 m 344 197 l 347 197 q 422 157 388 197 l 422 146 l 396 63 q 407 44 407 60 q 333 26 407 29 l 329 29 q 288 8 288 29 q 274 -1 288 3 q 232 85 243 -1 l 232 111 q 274 188 232 157 l 285 188 l 285 182 l 281 164 l 281 161 l 285 161 q 344 197 318 197 m 288 106 l 292 103 l 292 100 l 288 88 l 288 85 q 336 139 336 92 l 288 108 l 288 106 z "},"\"":{"ha":456,"x_min":53,"x_max":431,"o":"m 138 1143 l 200 1129 q 201 863 242 1022 l 154 779 l 118 764 l 99 792 l 68 876 q 138 1143 53 1051 m 326 1143 l 389 1129 q 390 863 431 1022 l 343 779 l 307 764 l 288 792 l 257 876 q 326 1143 242 1051 z "},"#":{"ha":767,"x_min":11,"x_max":772,"o":"m 439 982 q 556 871 556 947 l 556 832 q 533 776 556 800 l 533 760 l 561 765 q 644 693 644 744 q 539 610 644 656 l 550 560 l 550 543 l 517 449 l 650 399 q 772 260 772 351 l 772 243 q 739 226 767 226 q 544 338 724 226 l 528 332 l 539 71 q 500 -7 521 -3 l 478 -7 q 306 160 306 135 l 306 165 l 311 171 l 311 176 l 400 154 l 406 149 l 439 149 l 450 160 l 450 382 l 444 382 q 244 276 399 314 l 233 265 l 233 188 l 228 165 q 244 26 244 142 l 228 10 q 144 182 167 10 l 144 238 l 133 238 q 100 193 133 221 l 78 193 q 28 304 28 210 l 28 321 q 56 332 28 332 l 144 449 l 156 521 l 150 526 l 144 521 l 122 521 q 11 565 11 540 q 133 649 11 579 q 178 732 178 672 l 183 849 q 150 915 183 893 l 150 921 q 183 943 150 932 q 300 854 300 907 l 300 832 q 272 749 300 775 l 272 732 l 289 732 q 350 688 324 732 q 256 599 350 665 l 244 565 l 244 560 l 256 560 q 450 704 256 618 l 450 882 q 411 943 450 908 l 411 960 q 439 982 414 971 m 239 404 q 389 471 304 471 q 428 560 428 533 l 422 560 l 339 576 q 278 482 301 576 q 239 404 239 421 m 228 354 l 228 326 q 344 421 299 375 l 328 421 l 233 354 l 228 354 z "},"$":{"ha":657,"x_min":21,"x_max":649,"o":"m 321 929 q 371 874 365 929 l 365 846 l 343 846 l 338 851 l 332 785 l 332 779 l 388 763 l 382 796 q 449 846 419 846 l 454 846 l 465 835 l 465 818 l 449 746 l 465 735 l 521 746 l 526 746 l 532 740 q 449 640 511 640 l 449 618 q 549 579 490 579 q 599 596 578 579 l 615 596 l 621 590 q 582 535 603 535 l 582 496 l 588 468 q 649 379 649 417 l 649 374 q 615 279 649 329 q 476 385 479 363 l 465 385 l 465 324 q 426 196 449 196 l 421 196 q 388 307 388 196 l 388 413 l 349 379 q 315 74 329 74 l 304 74 q 260 274 275 74 l 260 279 q 188 251 238 279 l 143 268 q 21 451 21 374 l 21 463 q 138 568 54 568 l 154 568 q 271 546 203 568 l 271 568 q 182 601 182 589 l 182 607 l 188 635 q 110 740 110 717 l 110 757 q 199 824 153 824 q 271 801 222 824 l 271 824 l 260 835 q 321 929 267 929 m 238 718 l 232 718 l 260 668 l 265 668 l 265 690 l 238 718 m 393 635 q 332 679 393 649 l 332 651 l 382 635 l 393 635 m 393 518 q 343 551 393 526 l 343 524 l 393 513 l 393 518 m 515 468 q 460 507 515 488 l 460 490 q 510 468 460 479 l 515 468 m 254 463 q 132 496 254 481 l 126 496 q 199 363 126 394 l 243 363 l 271 368 l 254 390 l 254 463 m 349 440 l 349 424 l 360 424 l 360 429 l 349 440 z "},"%":{"ha":792,"x_min":18,"x_max":779,"o":"m 211 793 l 214 793 q 289 753 254 793 l 289 742 l 263 658 q 274 640 274 656 q 200 622 274 625 l 196 625 q 154 604 154 625 q 140 594 154 599 q 99 681 110 594 l 99 707 q 140 783 99 753 l 151 783 l 151 778 l 147 760 l 147 757 l 151 757 q 211 793 185 793 m 154 701 l 158 699 l 158 696 l 154 683 l 154 681 q 203 735 203 688 l 154 704 l 154 701 m 479 1051 l 485 1051 q 549 985 522 1051 l 549 968 q 460 719 549 888 q 224 236 303 349 q 31 94 96 94 l 18 119 l 18 136 q 254 485 176 331 q 440 951 367 693 l 440 985 l 433 985 l 426 976 l 421 976 l 414 985 l 414 1001 q 479 1051 440 1051 m 610 536 l 617 536 q 779 453 704 536 l 779 429 l 722 256 q 746 218 746 250 q 586 181 746 186 l 576 186 q 486 143 486 186 q 456 122 486 131 q 365 301 389 122 l 365 357 q 456 515 365 453 l 481 515 l 481 504 l 471 467 l 471 461 l 481 461 q 610 536 553 536 m 486 344 l 496 339 l 496 333 l 486 307 l 486 301 q 592 414 592 317 l 486 351 l 486 344 z "},"&":{"ha":954,"x_min":0,"x_max":922,"o":"m 803 794 q 596 614 800 707 q 526 567 574 593 q 453 553 501 563 l 428 567 q 467 607 428 579 q 518 644 514 640 q 575 756 578 703 q 519 836 574 789 q 474 982 493 858 q 487 972 481 993 q 504 953 493 951 l 594 953 l 649 940 q 751 895 699 944 q 803 794 804 846 m 922 411 q 903 385 915 400 q 790 335 849 372 q 729 254 717 288 q 803 96 817 179 l 803 94 q 800 64 803 75 l 631 213 q 506 72 621 143 q 322 7 399 7 q 164 58 232 7 q 92 203 92 114 q 128 343 92 261 q 217 454 169 438 q 78 565 146 489 q 0 721 0 653 q 268 1025 0 829 q 363 1065 343 1063 l 408 1047 l 443 1047 l 461 1021 q 363 953 411 1018 q 314 835 314 888 q 406 524 279 649 q 632 338 442 488 l 821 525 l 858 525 l 922 411 m 546 254 q 264 428 431 335 l 239 326 q 236 307 236 317 q 276 228 236 268 q 374 183 321 182 l 546 254 z "},"'":{"ha":272,"x_min":53,"x_max":242,"o":"m 138 1143 l 200 1129 q 201 863 242 1022 l 154 779 l 118 764 l 99 792 l 68 876 q 138 1143 53 1051 z "},"(":{"ha":514,"x_min":54,"x_max":450,"o":"m 247 1167 l 239 1121 q 194 1028 194 1071 l 194 -25 q 424 68 333 -25 l 442 68 l 450 57 q 160 -314 379 -122 q 72 -106 72 -299 q 89 161 89 -46 l 89 335 q 54 1017 89 719 q 221 1190 99 1190 l 247 1167 z "},")":{"ha":514,"x_min":54,"x_max":450,"o":"m 283 1190 q 450 1017 406 1190 q 415 335 415 719 l 415 161 q 432 -106 415 -46 q 344 -314 432 -299 q 54 57 125 -122 l 63 68 l 81 68 q 310 -25 171 -25 l 310 1028 q 265 1121 310 1071 l 257 1167 l 283 1190 z "},"*":{"ha":694,"x_min":133,"x_max":647,"o":"m 317 1104 l 347 1104 q 357 1064 357 1104 l 350 965 l 351 964 l 354 964 q 457 1046 382 965 q 554 1085 513 1085 l 554 1083 q 447 983 554 1074 q 410 932 414 947 l 411 931 l 421 931 q 621 969 457 931 l 646 974 l 647 971 q 599 925 636 943 q 411 883 547 906 q 363 860 374 868 q 436 803 386 818 q 475 794 475 799 q 429 765 475 769 q 350 794 388 765 l 350 771 l 363 671 l 363 650 q 357 646 363 646 q 306 736 306 665 l 306 779 l 303 808 l 301 808 q 244 769 282 808 l 224 765 l 208 765 l 201 771 l 201 779 q 235 813 201 789 l 238 822 q 215 839 231 839 l 213 839 q 164 818 207 839 l 153 817 l 138 817 q 133 822 133 817 q 185 868 133 839 q 258 881 211 875 l 258 893 q 215 938 258 908 l 211 950 q 226 974 211 961 q 285 933 238 974 l 292 932 q 301 971 301 949 l 297 1046 q 317 1104 297 1085 z "},"+":{"ha":776,"x_min":46,"x_max":763,"o":"m 500 994 q 568 917 526 994 l 568 903 q 443 838 568 883 l 435 797 l 439 797 q 528 838 486 826 l 536 838 q 608 750 608 814 q 488 590 608 696 q 447 563 447 569 l 451 563 l 613 576 l 665 576 q 763 469 728 576 q 742 451 754 451 l 589 465 l 551 465 l 443 461 l 435 447 q 422 296 429 296 l 426 290 q 390 51 414 51 l 386 51 q 350 443 363 51 l 338 443 l 196 382 q 115 332 144 332 q 46 433 46 396 q 160 475 46 447 q 346 543 233 519 q 354 626 354 567 l 354 644 l 346 654 q 244 557 264 557 q 196 686 215 557 q 276 829 199 722 l 276 838 q 228 921 250 838 l 232 925 l 257 925 q 488 994 350 925 l 500 994 m 257 704 l 261 704 l 354 742 l 357 760 l 354 811 q 257 704 343 810 m 443 746 l 443 696 l 435 650 q 519 788 519 754 q 443 746 444 760 z "},",":{"ha":243,"x_min":22,"x_max":204,"o":"m 22 -85 l 74 15 l 74 60 l 31 147 l 31 181 l 60 192 q 204 125 204 168 l 204 47 q 22 -117 204 -92 l 22 -85 z "},"-":{"ha":454,"x_min":11,"x_max":411,"o":"m 47 278 q 11 296 11 278 l 11 353 q 49 372 11 372 l 374 372 q 411 353 411 372 l 411 296 q 374 278 411 278 l 47 278 z "},".":{"ha":376,"x_min":85,"x_max":275,"o":"m 197 200 l 200 200 q 275 160 240 200 l 275 149 l 249 65 q 260 47 260 63 q 186 29 260 32 l 182 32 q 140 11 140 32 q 126 1 140 6 q 85 88 96 1 l 85 114 q 126 190 85 160 l 138 190 l 138 185 l 133 167 l 133 164 l 138 164 q 197 200 171 200 m 140 108 l 144 106 l 144 103 l 140 90 l 140 88 q 189 142 189 94 l 140 111 l 140 108 z "},"/":{"ha":561,"x_min":11,"x_max":542,"o":"m 472 1025 l 478 1025 q 542 958 515 1025 l 542 942 q 453 693 542 861 q 217 210 296 322 q 24 68 89 68 l 11 93 l 11 110 q 247 458 169 304 q 433 925 360 667 l 433 958 l 426 958 l 419 950 l 414 950 l 407 958 l 407 975 q 472 1025 433 1025 z "},":":{"ha":339,"x_min":56,"x_max":258,"o":"m 168 646 l 171 646 q 246 606 211 646 l 246 594 l 219 511 q 231 493 231 508 q 157 475 231 478 l 153 478 q 111 457 111 478 q 97 447 111 451 q 56 533 67 447 l 56 560 q 97 636 56 606 l 108 636 l 108 631 l 104 613 l 104 610 l 108 610 q 168 646 142 646 m 111 554 l 115 551 l 115 549 l 111 536 l 111 533 q 160 588 160 540 l 111 557 l 111 554 m 181 211 l 183 211 q 258 171 224 211 l 258 160 l 232 76 q 243 58 243 74 q 169 40 243 43 l 165 43 q 124 22 124 43 q 110 13 124 17 q 68 99 79 13 l 68 125 q 110 201 68 171 l 121 201 l 121 196 l 117 178 l 117 175 l 121 175 q 181 211 154 211 m 124 119 l 128 117 l 128 114 l 124 101 l 124 99 q 172 153 172 106 l 124 122 l 124 119 z "},";":{"ha":319,"x_min":22,"x_max":213,"o":"m 135 626 l 138 626 q 213 586 178 626 l 213 575 l 186 492 q 197 474 197 489 q 124 456 197 458 l 119 458 q 78 438 78 458 q 64 428 78 432 q 22 514 33 428 l 22 540 q 64 617 22 586 l 75 617 l 75 611 l 71 593 l 71 590 l 75 590 q 135 626 108 626 m 78 535 l 82 532 l 82 529 l 78 517 l 78 514 q 126 568 126 521 l 78 538 l 78 535 m 22 24 l 74 124 l 74 168 l 31 256 l 31 289 l 60 300 q 204 233 204 276 l 204 156 q 22 -8 204 17 l 22 24 z "},"<":{"ha":688,"x_min":93,"x_max":611,"o":"m 611 281 q 515 164 583 165 l 424 225 l 414 244 l 382 250 l 139 450 l 129 460 q 107 543 93 493 q 599 733 542 786 l 599 719 l 593 710 q 300 492 315 540 l 294 482 l 419 393 l 500 358 l 561 328 l 611 281 z "},"=":{"ha":839,"x_min":86,"x_max":765,"o":"m 518 739 l 601 739 l 629 731 l 657 739 q 754 651 721 739 q 692 596 742 596 l 664 596 l 553 604 l 497 589 l 490 596 l 490 604 l 546 668 l 539 668 q 232 540 263 571 q 183 525 232 525 q 86 604 118 525 l 86 613 q 308 707 86 636 q 518 739 444 739 m 529 494 l 613 494 l 640 486 l 668 494 q 765 407 732 494 q 703 351 753 351 l 675 351 l 564 360 l 508 344 l 501 351 l 501 360 l 557 424 l 550 424 q 243 296 274 326 q 194 281 243 281 q 97 360 129 281 l 97 368 q 319 463 97 392 q 529 494 456 494 z "},">":{"ha":688,"x_min":118,"x_max":636,"o":"m 118 243 q 214 126 146 128 l 306 188 l 315 207 l 347 213 l 590 413 l 600 422 q 622 506 636 456 q 131 696 188 749 l 131 682 l 136 672 q 429 454 414 503 l 435 444 l 310 356 l 229 321 l 168 290 l 118 243 z "},"?":{"ha":619,"x_min":54,"x_max":560,"o":"m 236 407 l 293 358 l 285 338 l 274 338 q 133 439 140 364 q 264 565 133 517 l 369 594 l 381 607 l 392 654 l 422 961 l 411 961 l 136 775 q 103 717 128 717 q 54 858 54 797 q 340 1089 324 1032 l 417 1182 q 560 939 560 1147 l 507 522 l 383 465 q 236 407 247 444 m 307 278 l 311 278 q 410 224 364 278 l 410 210 l 375 99 q 389 75 389 94 q 292 51 389 54 l 286 54 q 232 26 232 54 q 214 14 232 19 q 158 128 174 14 l 158 164 q 214 265 158 224 l 228 265 l 228 257 l 222 233 l 222 229 l 228 229 q 307 278 272 278 m 232 156 l 238 153 l 238 149 l 232 132 l 232 128 q 296 200 296 138 l 232 160 l 232 156 z "},"@":{"ha":1272,"x_min":-7,"x_max":1261,"o":"m 649 1117 l 676 1117 q 1140 958 949 1117 q 1261 693 1261 842 l 1174 743 l 1174 753 q 1022 990 1174 901 q 728 1050 903 1050 q 299 956 486 1050 q 125 700 188 893 q 83 422 83 563 q 250 -82 83 114 q 524 -204 374 -204 l 538 -204 q 1042 -32 739 -204 l 1046 -39 l 1046 -43 q 793 -219 1046 -111 q 538 -278 642 -278 l 513 -278 q 114 -29 264 -278 q 17 376 17 158 l 17 406 q 168 925 17 692 q 299 1046 253 1035 q 649 1117 478 1117 m 547 985 l 582 985 q 719 871 683 985 l 725 856 q 683 660 694 767 l 679 660 l 683 635 l 674 593 l 679 588 l 674 563 l 674 547 l 679 551 l 836 551 q 928 449 892 551 q 907 433 928 433 l 694 454 q 674 433 678 449 l 683 340 l 679 325 l 689 300 l 699 38 l 699 26 q 674 -25 699 -14 q 419 253 419 189 l 425 258 l 431 258 q 597 176 578 176 l 603 176 l 603 186 l 608 186 l 603 249 l 603 340 l 593 397 l 593 454 q 394 397 394 428 l 394 392 l 400 367 l 389 321 l 394 300 l 385 279 l 389 274 q 278 26 356 106 l 263 17 l 247 17 q 226 78 226 17 l 226 83 q 242 150 226 150 l 263 144 q 313 403 313 276 l 150 325 l 104 289 l 89 289 q -7 388 51 289 l -7 397 q 39 413 10 413 l 324 506 q 333 635 333 535 q 303 815 333 747 l 297 856 l 303 861 l 308 861 q 354 851 318 851 q 419 758 419 815 l 415 732 l 419 732 q 496 779 468 779 l 521 779 q 578 717 578 779 q 490 542 578 618 l 490 536 l 542 542 l 593 542 q 613 888 593 808 l 603 897 q 486 840 560 885 q 431 831 467 831 l 415 831 l 385 856 q 547 985 500 985 m 394 599 l 400 593 l 400 583 l 389 526 l 389 521 l 415 521 q 461 629 461 585 l 456 644 q 394 599 394 636 z "},"A":{"ha":986,"x_min":-7,"x_max":928,"o":"m 547 985 l 582 985 q 719 871 683 985 l 725 856 q 683 660 694 767 l 679 660 l 683 635 l 674 593 l 679 588 l 674 563 l 674 547 l 679 551 l 836 551 q 928 449 892 551 q 907 433 928 433 l 694 454 q 674 433 678 449 l 683 340 l 679 325 l 689 300 l 699 38 l 699 26 q 674 -25 699 -14 q 419 253 419 189 l 425 258 l 431 258 q 597 176 578 176 l 603 176 l 603 186 l 608 186 l 603 249 l 603 340 l 593 397 l 593 454 q 394 397 394 428 l 394 392 l 400 367 l 389 321 l 394 300 l 385 279 l 389 274 q 278 26 356 106 l 263 17 l 247 17 q 226 78 226 17 l 226 83 q 242 150 226 150 l 263 144 q 313 403 313 276 l 150 325 l 104 289 l 89 289 q -7 388 51 289 l -7 397 q 39 413 10 413 l 324 506 q 333 635 333 535 q 303 815 333 747 l 297 856 l 303 861 l 308 861 q 354 851 318 851 q 419 758 419 815 l 415 732 l 419 732 q 496 779 468 779 l 521 779 q 578 717 578 779 q 490 542 578 618 l 490 536 l 542 542 l 593 542 q 613 888 593 808 l 603 897 q 486 840 560 885 q 431 831 467 831 l 415 831 l 385 856 q 547 985 500 985 m 394 599 l 400 593 l 400 583 l 389 526 l 389 521 l 415 521 q 461 629 461 585 l 456 644 q 394 599 394 636 z "},"B":{"ha":792,"x_min":0,"x_max":761,"o":"m 311 1078 l 317 1078 q 467 978 381 1078 l 467 944 l 450 911 l 517 922 q 711 806 660 922 l 711 794 q 511 628 626 669 l 511 617 l 539 617 q 761 461 686 617 l 761 456 q 606 217 624 217 l 606 206 q 667 117 667 136 q 622 72 663 72 l 589 72 q 467 89 535 89 l 439 89 q 106 0 289 89 l 100 0 q 0 94 0 40 l 0 128 l 100 172 l 178 239 l 178 256 l 161 256 q 94 322 117 256 l 94 333 q 322 406 94 354 l 372 411 l 417 411 q 461 339 439 411 l 461 333 q 350 261 461 325 q 206 194 328 240 l 206 189 q 406 211 313 211 q 489 228 406 228 q 589 500 550 333 l 594 522 q 83 400 413 522 l 78 400 q 56 439 56 410 l 56 450 q 139 561 56 561 l 294 600 l 294 606 q 217 711 236 640 l 217 717 l 228 728 l 272 711 l 300 711 q 328 850 328 711 q 294 1056 328 910 l 311 1078 m 106 861 q 139 800 125 853 l 133 783 q 144 767 144 783 l 150 767 q 294 833 244 831 l 300 828 l 300 806 l 194 722 q 128 589 160 668 l 94 578 q 44 689 44 644 l 44 722 q 106 861 44 803 m 500 844 l 461 844 q 433 706 444 844 q 422 667 426 706 l 411 656 l 411 644 q 556 850 521 735 l 500 844 z "},"C":{"ha":597,"x_min":22,"x_max":543,"o":"m 121 956 l 110 886 q 199 713 199 763 q 408 774 397 736 l 289 819 l 297 840 l 308 840 q 543 757 536 832 q 336 594 543 679 l 213 583 l 201 571 l 190 524 l 160 217 l 171 217 l 446 403 q 479 461 454 461 q 528 319 528 381 q 242 89 258 146 l 165 -4 q 22 239 22 31 l 78 690 q 22 875 22 788 q 121 956 22 956 z "},"D":{"ha":807,"x_min":53,"x_max":774,"o":"m 589 979 q 774 833 692 946 q 618 193 735 563 q 443 38 519 44 q 315 261 417 54 l 306 271 l 296 271 q 82 28 175 28 l 72 28 l 53 47 l 189 319 q 344 785 344 694 l 335 785 l 199 756 l 179 785 q 443 950 300 950 q 589 979 443 979 m 354 417 q 453 261 400 314 l 463 261 q 632 722 525 311 l 618 843 q 443 639 499 843 l 354 417 z "},"E":{"ha":838,"x_min":11,"x_max":821,"o":"m 269 1089 l 310 1089 q 422 1035 383 1089 l 422 1017 q 357 861 422 986 l 568 676 q 821 521 771 582 l 821 503 q 786 485 815 485 l 763 485 q 510 581 556 485 q 351 783 375 765 q 264 640 324 783 q 235 617 247 617 q 310 544 310 563 l 317 526 l 269 347 l 269 324 l 275 324 q 417 563 417 417 l 422 568 l 433 568 q 510 472 510 540 l 510 449 q 269 210 478 339 l 264 203 l 264 197 q 375 119 274 119 l 393 119 q 551 179 551 119 q 581 246 563 179 l 575 251 l 581 293 l 581 342 l 586 342 q 686 119 643 289 l 686 60 q 363 0 686 15 q 193 101 226 0 l 169 192 l 151 179 l 93 179 l 64 192 l 64 203 q 175 269 83 225 l 182 299 l 188 514 l 182 514 q 46 358 107 401 l 29 358 l 11 376 q 58 497 11 497 q 288 1024 218 701 q 251 1076 251 1044 l 269 1089 z "},"F":{"ha":794,"x_min":0,"x_max":776,"o":"m 303 1042 q 415 975 415 1021 l 429 960 l 429 922 l 436 922 l 429 864 l 429 856 l 649 893 q 776 782 740 893 q 724 736 763 736 l 663 736 l 536 767 l 449 744 l 449 669 l 442 663 l 442 654 l 449 647 l 482 654 l 549 654 l 576 663 q 675 557 625 663 l 675 535 l 649 506 l 622 506 q 469 565 551 506 l 449 557 l 443 118 q 383 6 443 6 q 303 140 335 6 q 328 654 328 438 q 307 722 324 722 q 93 610 143 610 q 0 722 0 653 q 74 751 0 740 q 301 833 129 794 l 301 864 l 296 915 l 268 1004 l 268 1011 q 303 1042 272 1026 z "},"G":{"ha":951,"x_min":1,"x_max":935,"o":"m 540 882 q 635 799 635 846 l 635 793 q 435 721 635 769 q 329 588 393 706 l 313 571 l 313 560 l 329 560 q 496 638 407 604 q 551 526 551 596 q 501 282 501 333 l 501 232 q 624 88 517 88 q 724 65 649 71 l 768 71 l 768 76 q 674 310 768 147 l 679 315 l 690 315 q 890 99 799 221 q 935 65 911 99 l 935 38 q 774 -35 910 -35 q 457 82 521 -35 q 413 182 429 125 l 407 182 q 140 21 217 75 q 1 171 35 21 q 163 388 71 171 q 124 426 131 388 q 196 476 196 438 l 257 626 l 251 626 q 201 599 222 599 q 74 738 74 669 l 85 749 l 118 738 l 140 738 q 513 876 165 738 l 540 882 m 268 443 l 268 438 q 390 332 336 438 q 351 299 378 299 l 251 321 l 246 321 q 190 232 235 318 q 151 199 151 208 l 163 199 q 401 271 326 271 l 407 271 l 440 488 l 385 471 q 313 538 344 471 q 301 510 301 538 l 268 443 z "},"H":{"ha":793,"x_min":35,"x_max":779,"o":"m 446 989 q 563 878 563 954 l 563 839 q 540 783 563 807 l 540 767 q 546 617 532 672 l 557 567 l 557 550 l 524 456 l 657 406 q 779 267 779 358 l 779 250 q 746 233 774 233 q 551 344 731 233 l 535 339 l 546 78 q 507 0 528 4 l 485 0 q 313 167 313 142 l 313 172 l 318 178 l 318 183 l 407 161 l 413 156 l 446 156 l 457 167 l 457 389 l 451 389 q 251 283 406 321 l 240 272 l 240 194 l 235 172 q 251 33 251 149 l 235 17 q 151 189 174 17 l 151 244 l 140 244 q 107 200 140 228 l 85 200 q 35 311 35 217 l 35 328 q 63 339 35 339 l 151 456 l 163 528 q 185 739 185 679 l 190 856 q 157 922 190 900 l 157 928 q 190 950 157 939 q 307 861 307 914 l 307 839 q 279 756 307 782 l 279 739 l 263 606 l 251 572 l 251 567 l 263 567 q 457 711 263 625 l 457 889 q 418 950 457 915 l 418 967 q 446 989 421 978 m 246 411 q 396 478 311 478 q 435 567 435 540 l 429 567 l 346 583 q 285 489 308 583 q 246 411 246 428 m 235 361 l 235 333 q 351 428 306 382 l 335 428 l 240 361 l 235 361 z "},"I":{"ha":794,"x_min":-12,"x_max":771,"o":"m 518 942 q 603 858 542 942 q 493 794 603 822 l 501 757 l 497 650 l 506 603 l 479 501 l 479 483 q 557 613 532 533 l 531 640 l 557 668 l 565 668 q 667 557 624 668 q 489 318 643 468 l 454 263 l 447 197 l 660 215 q 771 104 699 215 l 771 96 q 719 49 746 49 l 507 86 l 447 86 q 71 32 308 86 l 63 32 q -12 114 -12 31 q 235 169 164 169 l 235 178 q 207 336 211 292 q 139 290 175 290 q 97 400 97 290 q 139 521 106 521 q 174 474 147 474 q 246 721 232 474 l 238 721 l 194 711 q 118 858 124 794 l 126 868 l 169 858 l 186 858 l 510 942 l 518 942 m 374 776 q 331 749 374 754 l 335 631 q 310 567 335 600 l 310 557 l 394 585 l 390 757 l 374 776 m 386 549 q 318 428 386 521 l 318 419 l 326 410 l 326 400 l 310 346 q 394 493 394 346 l 394 549 l 386 549 m 318 253 l 311 188 l 319 197 l 371 197 l 378 290 q 318 253 318 268 z "},"J":{"ha":776,"x_min":28,"x_max":797,"o":"m 725 589 q 621 551 686 567 l 578 569 q 635 733 665 629 l 625 733 q 444 646 474 646 l 444 629 q 481 551 481 601 l 483 551 l 489 338 l 499 169 l 489 163 l 489 154 l 499 122 l 499 114 q 417 -36 499 -3 q 201 163 344 4 l 114 317 l 208 240 l 208 233 q 344 178 317 178 l 354 178 l 354 210 l 363 346 l 363 404 l 371 408 l 363 415 l 363 432 q 326 592 360 592 q 136 432 247 592 l 100 415 q 28 543 53 415 q 244 915 244 753 l 244 924 l 228 947 l 228 964 l 244 979 l 290 979 q 463 900 417 979 q 326 749 463 865 l 326 742 q 563 829 528 829 l 608 829 q 797 686 696 829 l 797 669 q 725 589 771 621 z "},"K":{"ha":850,"x_min":21,"x_max":847,"o":"m 332 983 l 369 983 q 490 890 468 983 q 431 739 490 860 l 438 739 l 560 782 q 658 714 613 782 l 658 681 q 392 579 658 643 l 392 563 l 407 563 q 529 444 529 540 q 415 158 415 224 q 544 117 422 125 q 718 235 718 117 l 718 318 l 733 335 q 847 75 813 251 q 650 -10 847 -10 l 468 -10 q 324 142 324 21 l 378 496 l 378 504 l 363 521 q 89 7 290 246 l 51 -10 l 21 15 l 21 32 q 74 175 21 146 q 218 461 175 294 l 196 444 l 172 444 q 43 604 43 496 l 51 613 l 58 613 l 104 596 q 317 714 317 638 l 354 865 q 308 942 354 889 l 308 958 l 332 983 m 582 942 l 589 942 q 764 790 764 942 q 718 747 751 747 q 551 824 551 800 q 604 849 551 843 l 604 882 q 560 917 574 882 l 582 942 z "},"L":{"ha":418,"x_min":15,"x_max":885,"o":"m 58 975 q 240 811 240 950 l 240 733 q 96 667 240 690 l 67 678 l 67 711 l 110 799 l 110 843 l 58 943 l 58 975 m 29 635 q 131 556 54 556 q 189 435 189 463 l 160 347 l 160 336 q 225 160 225 217 l 225 128 l 203 83 l 203 72 q 581 -17 286 72 l 754 -4 q 885 -72 874 -17 l 885 -94 q 689 -215 885 -139 l 233 -51 l 125 -51 q 44 83 67 -51 l 53 93 l 117 93 l 146 204 q 81 392 100 204 l 81 424 q 15 579 15 444 l 15 611 l 29 635 z "},"M":{"ha":971,"x_min":0,"x_max":967,"o":"m 828 894 q 967 756 892 894 l 967 750 q 839 67 899 222 q 772 0 797 7 q 556 217 631 76 l 539 261 l 556 267 q 728 183 663 189 q 822 633 764 183 l 828 750 l 833 772 l 828 778 l 822 778 q 606 672 768 778 l 556 656 l 544 656 q 417 756 417 686 l 556 806 q 828 894 715 894 m 267 756 l 283 756 q 344 667 322 729 l 339 639 l 339 594 q 394 706 371 635 l 411 706 l 422 678 q 278 317 311 365 l 233 306 q 200 361 200 318 l 200 394 l 239 572 l 239 600 q 156 383 193 528 l 150 344 l 156 317 l 150 317 l 161 272 l 161 256 l 139 233 l 128 233 q 22 400 22 313 l 22 467 l 28 500 q 0 628 22 558 l 0 633 l 11 644 q 111 550 64 644 l 122 550 q 267 756 211 756 m 722 667 l 744 644 l 744 633 q 594 433 697 551 q 456 244 497 279 l 444 244 q 417 306 431 244 q 400 394 401 329 l 400 444 q 433 528 415 528 l 444 528 l 461 489 l 450 478 l 450 461 l 456 461 q 722 667 517 472 z "},"N":{"ha":890,"x_min":32,"x_max":883,"o":"m 49 689 q 124 772 82 689 q 119 769 122 771 l 175 879 l 175 897 l 181 921 l 168 993 l 188 999 q 306 910 243 999 l 306 897 q 281 850 306 876 q 363 814 296 832 l 382 796 l 394 796 q 507 933 411 849 q 551 963 517 963 l 564 963 q 651 874 574 963 l 582 511 l 582 469 l 576 463 l 582 457 l 569 386 l 569 332 l 564 308 q 676 196 582 196 l 701 196 l 701 214 q 639 428 682 313 l 644 433 l 657 433 q 833 196 750 328 q 883 124 883 161 q 701 47 883 47 q 513 136 583 47 q 450 356 450 247 l 482 743 l 469 743 q 419 660 419 731 q 357 326 357 560 l 313 196 q 163 35 217 35 l 150 35 q 131 71 131 40 l 131 76 q 168 196 131 196 q 288 636 232 196 l 288 749 l 268 790 l 263 790 q 156 671 249 738 l 143 671 l 143 665 l 165 644 l 32 646 l 40 685 l 49 689 z "},"O":{"ha":754,"x_min":24,"x_max":714,"o":"m 431 969 l 492 969 q 706 621 706 901 l 714 456 q 507 8 714 8 q 315 67 413 22 l 269 50 q 47 215 47 103 q 24 332 32 215 q 124 838 24 446 l 131 846 l 139 846 q 215 688 215 758 l 146 556 l 161 556 q 331 646 331 615 l 338 688 l 338 729 l 300 721 l 292 729 l 292 738 l 307 796 l 261 779 l 254 779 l 224 813 q 431 969 324 969 m 369 821 l 369 804 l 392 804 q 446 746 446 804 l 446 713 q 546 606 546 674 q 431 547 546 572 l 400 431 q 583 381 488 431 l 592 381 l 592 629 q 522 861 575 861 l 507 861 l 369 821 m 208 447 l 139 464 q 100 324 115 435 q 192 182 100 240 l 192 190 q 124 332 124 296 l 139 332 l 231 240 q 285 349 243 240 q 239 372 239 358 l 239 381 q 307 422 239 396 l 315 497 q 208 447 246 447 m 292 215 l 292 207 l 307 190 l 315 190 l 338 207 l 353 207 l 353 190 l 346 182 l 346 174 q 422 149 385 149 l 468 149 q 576 240 576 165 l 576 249 q 400 332 542 249 q 338 249 375 328 l 292 215 z "},"P":{"ha":650,"x_min":-7,"x_max":629,"o":"m 103 857 q 381 972 211 972 q 451 1001 422 1001 q 629 885 546 981 l 629 869 q 606 775 629 810 q 629 731 629 767 l 629 724 q 536 665 615 694 l 490 621 l 490 614 q 606 533 544 614 l 606 518 l 575 489 l 458 489 q 288 408 288 489 q 86 50 229 186 q 8 14 42 14 q -7 36 -7 14 l 64 153 q 164 431 164 371 l 157 431 l 118 417 q 64 489 64 417 l 64 497 q 101 556 64 536 l 110 556 l 133 540 q 218 621 218 563 l 218 636 l 157 621 q 56 688 56 621 l 218 746 l 218 753 q 194 767 194 753 l 194 775 l 242 833 l 172 818 l 101 847 l 103 857 m 281 840 l 281 833 q 342 782 326 833 q 451 804 393 804 l 467 804 l 474 840 l 474 856 l 467 856 l 281 840 m 326 621 l 326 607 l 350 607 q 413 688 392 639 l 404 688 q 326 621 347 657 z "},"Q":{"ha":751,"x_min":-14,"x_max":739,"o":"m 464 982 l 485 982 q 643 797 604 982 l 643 478 q 569 210 643 274 q 739 4 739 125 l 739 -36 l 696 -78 q 421 200 421 138 l 474 221 l 400 303 q 39 -36 272 -36 q -14 25 -14 -19 q 188 179 111 86 l 188 190 q 124 282 140 190 l 124 756 q 167 817 124 817 q 231 725 231 792 l 240 725 q 304 765 240 765 q 453 643 453 736 q 400 406 432 438 l 485 344 l 494 385 l 485 396 l 485 879 q 231 807 342 807 l 188 838 q 464 982 351 981 m 251 704 l 219 251 l 219 242 l 231 242 q 293 643 293 374 q 261 704 283 704 l 251 704 z "},"R":{"ha":896,"x_min":-17,"x_max":882,"o":"m 544 969 l 568 969 q 679 889 618 969 l 679 864 q 606 751 679 801 l 606 726 q 657 654 644 726 l 657 646 l 635 622 l 560 622 q 313 468 313 593 q 28 -50 196 -50 q -17 -26 -17 -42 l -17 -18 q 231 565 131 89 l 224 622 q 275 849 251 622 q 231 881 231 853 q 306 938 231 917 l 372 904 q 544 969 511 969 m 350 686 q 507 783 507 724 q 531 840 531 801 l 531 856 q 381 775 489 815 l 343 686 l 350 686 m 560 581 q 679 517 624 581 l 679 476 q 447 297 653 432 l 433 193 l 433 185 q 582 144 525 144 q 792 274 792 165 q 822 394 807 274 l 829 394 q 882 96 882 333 q 635 22 882 61 l 553 22 q 358 225 358 22 l 358 274 q 313 290 313 274 l 313 297 q 365 331 313 319 l 365 492 q 343 517 343 492 q 381 557 343 538 q 469 443 469 543 l 469 436 q 553 581 553 510 l 560 581 z "},"S":{"ha":640,"x_min":28,"x_max":624,"o":"m 407 979 q 536 893 490 979 l 542 858 q 454 613 542 826 l 419 585 l 419 572 l 465 572 q 618 464 536 572 l 624 429 q 338 -22 489 -22 q 174 167 268 -22 l 179 172 l 203 172 q 319 121 258 132 l 332 121 q 449 286 406 158 l 472 401 l 472 469 l 465 475 l 465 482 q 157 385 225 447 l 128 385 q 75 436 75 392 q 139 607 75 479 l 144 676 l 133 768 l 139 774 l 174 774 q 244 710 244 768 l 244 647 q 208 533 244 603 l 215 533 l 319 556 q 274 699 274 654 l 279 704 l 285 704 q 319 658 319 675 l 338 658 q 396 825 396 765 l 396 836 l 390 842 l 390 847 q 174 796 390 825 q 128 842 128 801 q 407 979 390 979 m 319 378 l 372 378 q 436 321 436 367 l 436 304 q 208 224 436 275 q 133 201 167 201 l 128 201 q 28 293 28 238 q 208 350 39 306 q 319 378 208 365 z "},"T":{"ha":519,"x_min":-8,"x_max":506,"o":"m 317 1003 q 494 942 460 1003 l 506 914 q 444 831 506 886 l 203 700 q 256 511 247 608 l 258 432 l 256 322 l 250 39 q 222 11 250 24 q 133 156 167 46 q 142 611 150 324 l 131 622 q 53 528 131 593 l 42 528 q -8 633 22 528 l -8 644 q 75 739 -8 671 q 294 907 257 844 l 294 935 l 294 992 l 317 1003 z "},"U":{"ha":865,"x_min":29,"x_max":844,"o":"m 490 900 l 496 900 q 585 800 557 900 l 585 550 l 574 489 l 574 478 q 668 606 596 478 l 668 622 q 640 633 640 622 l 640 644 q 690 672 654 672 q 785 578 731 672 l 785 572 q 579 306 785 503 q 551 206 579 232 l 563 194 l 590 194 q 815 79 767 153 l 831 49 q 817 -8 844 13 q 507 78 696 78 l 457 78 q 124 -18 193 78 q 29 115 50 43 q 113 139 50 126 q 263 178 151 161 q 224 306 224 240 l 213 306 q 135 250 167 250 q 79 356 79 250 q 113 483 79 401 l 124 483 l 146 461 l 140 428 l 146 428 q 235 517 235 442 q 318 733 265 733 l 324 739 l 340 706 l 329 656 l 329 583 l 313 517 l 318 517 l 418 561 l 435 561 l 446 550 l 446 539 q 324 411 324 432 l 324 389 l 329 361 l 324 361 l 329 344 l 324 294 l 329 294 q 474 372 474 346 l 485 706 l 479 783 l 474 783 l 440 778 q 429 839 429 800 l 429 844 q 490 900 453 900 m 329 200 l 329 189 l 435 200 l 485 200 l 479 267 q 340 239 440 239 q 329 200 340 213 z "},"V":{"ha":1015,"x_min":0,"x_max":994,"o":"m 794 1218 l 881 1225 l 901 1225 l 938 1186 q 794 1097 914 1156 l 788 1057 l 781 776 l 801 776 q 967 985 860 924 l 974 985 l 994 961 l 994 929 q 938 793 994 793 q 658 104 756 532 q 701 17 701 50 l 681 0 l 608 0 q 486 81 540 0 l 486 88 q 535 217 486 149 q 165 633 281 613 q 0 769 54 694 l 0 785 q 50 817 11 817 l 79 817 q 372 706 325 817 q 531 403 401 681 q 596 371 574 371 l 603 371 q 715 640 638 529 q 615 744 638 697 q 681 1010 651 929 l 681 1025 l 674 1025 q 501 706 501 897 l 494 697 l 479 697 q 372 833 419 697 q 644 1161 372 942 q 674 1193 674 1169 l 794 1218 z "},"W":{"ha":965,"x_min":60,"x_max":921,"o":"m 399 -18 q 265 143 265 58 q 349 526 349 383 l 349 571 q 299 793 349 758 l 221 815 l 199 804 l 199 771 q 271 543 199 719 l 271 532 l 265 532 q 126 765 194 615 q 60 882 106 825 q 154 960 60 939 l 210 965 q 438 676 376 965 l 438 654 l 449 654 q 554 788 461 788 l 565 799 l 565 854 q 615 1104 565 1104 l 621 1104 q 665 954 660 1038 l 660 710 l 660 604 q 699 693 669 604 q 771 743 735 743 q 860 893 800 893 l 865 893 q 921 721 921 840 l 921 699 l 910 699 q 893 738 899 699 l 888 738 q 871 676 871 738 l 876 454 q 821 226 876 376 l 815 226 q 799 249 799 226 l 788 249 q 638 115 768 197 q 438 -7 504 81 l 399 -18 m 732 293 l 732 299 l 704 299 l 560 243 l 515 243 q 471 293 483 267 l 471 315 q 543 432 543 382 l 554 443 l 554 449 l 549 449 l 532 443 l 532 449 l 493 438 q 443 482 443 450 l 438 482 q 421 360 433 360 l 426 354 l 426 349 q 415 304 422 304 l 421 288 q 399 138 410 288 l 404 138 q 565 215 419 138 q 732 293 711 293 m 760 315 l 749 354 l 788 599 l 788 604 q 671 410 713 536 q 704 360 671 360 q 749 304 749 346 l 760 315 m 571 676 l 571 688 l 560 688 q 526 576 535 688 l 532 538 q 565 671 553 538 l 571 676 z "},"X":{"ha":1033,"x_min":19,"x_max":1104,"o":"m 688 1211 l 693 1211 q 797 1100 797 1174 l 786 1079 l 786 1072 l 804 1072 q 926 963 888 1072 l 926 942 q 724 879 926 894 q 578 761 640 761 l 578 754 q 688 615 688 707 q 601 346 688 588 q 932 104 711 218 q 1104 -28 1017 63 l 1104 -56 q 908 -90 1104 -85 q 553 207 813 -90 l 546 207 q 160 0 418 0 l 136 0 q 19 56 53 0 l 19 63 q 253 144 19 83 q 454 304 347 179 l 454 318 q 142 478 299 478 l 129 499 l 129 513 q 210 540 129 535 l 283 540 q 515 429 385 540 q 546 650 546 493 l 546 657 q 515 719 546 683 l 515 726 q 546 747 515 746 l 546 754 q 504 768 504 754 q 608 914 608 874 l 601 914 q 479 824 479 896 l 474 796 l 479 775 q 449 719 463 719 l 436 719 q 363 810 386 719 q 222 740 274 740 l 215 740 q 142 907 142 806 l 160 921 l 233 921 q 363 956 363 943 l 363 969 q 307 1107 363 1006 l 307 1128 l 326 1142 l 338 1142 q 492 996 492 1125 l 492 983 l 485 976 l 485 969 l 492 969 q 657 1051 657 1003 l 669 1135 l 663 1142 l 657 1135 l 644 1135 l 626 1156 q 688 1211 643 1211 z "},"Y":{"ha":674,"x_min":21,"x_max":631,"o":"m 447 986 l 494 986 q 631 872 579 986 q 418 596 607 758 l 408 568 l 428 511 l 428 388 l 418 339 l 428 282 l 428 92 q 379 -12 413 -12 l 350 -12 q 224 178 224 85 l 292 158 l 311 215 l 311 406 q 204 635 311 565 q 50 710 160 710 l 21 749 l 21 758 q 118 815 60 815 l 138 815 q 321 682 321 754 l 321 643 l 331 643 q 476 910 468 782 l 467 910 l 408 900 q 369 929 369 915 l 369 949 q 447 986 369 972 z "},"Z":{"ha":682,"x_min":0,"x_max":772,"o":"m 481 868 l 483 868 l 507 879 l 507 882 l 501 882 q 481 868 488 882 m 381 1042 l 392 1042 q 558 943 476 1042 l 558 932 q 490 846 558 871 l 415 790 q 600 681 549 790 q 518 546 600 624 q 260 269 339 301 l 260 264 l 265 264 q 576 307 372 288 l 547 411 l 547 417 l 558 429 l 565 429 q 738 251 639 429 l 772 160 q 708 0 772 50 l 692 0 q 651 129 678 0 l 628 178 l 622 172 l 617 172 l 582 178 q 219 74 392 178 q 167 43 196 43 q 51 165 114 43 l 46 196 l 46 226 q 121 307 46 307 q 294 472 188 349 q 438 686 422 621 l 438 699 l 432 699 l 415 693 l 386 699 l 375 699 q 167 496 343 699 q 35 411 68 411 q 0 533 17 411 q 139 643 0 564 q 190 693 139 658 q 369 986 369 913 l 369 999 l 363 1029 l 381 1042 z "},"[":{"ha":438,"x_min":132,"x_max":436,"o":"m 436 -136 l 411 -197 l 132 -197 q 136 -17 132 -128 q 146 394 146 244 q 143 749 146 617 q 132 964 140 882 l 436 964 q 411 906 418 935 l 258 914 l 258 -147 q 436 -136 344 -147 z "},"\\":{"ha":561,"x_min":11,"x_max":542,"o":"m 81 1025 q 146 975 119 1025 l 146 958 l 139 950 l 133 950 l 126 958 l 119 958 l 119 925 q 306 458 193 667 q 542 110 383 304 l 542 93 l 529 68 q 336 210 464 68 q 100 693 257 322 q 11 942 11 861 l 11 958 q 75 1025 38 1025 l 81 1025 z "},"]":{"ha":438,"x_min":1,"x_max":306,"o":"m 306 -197 l 1 -197 q 26 -139 19 -168 l 179 -147 l 179 914 q 1 903 93 914 l 26 964 l 306 964 q 301 783 306 894 q 292 372 292 522 q 294 17 292 150 q 306 -197 297 -115 z "},"^":{"ha":603,"x_min":21,"x_max":582,"o":"m 292 1114 l 292 1104 l 311 1104 q 575 796 575 993 l 569 796 l 582 744 q 556 693 569 699 l 543 693 q 369 919 503 693 l 304 981 l 285 981 q 143 754 253 754 q 21 836 43 754 q 189 1063 189 865 l 292 1114 z "},"_":{"ha":694,"x_min":0,"x_max":694,"o":"m 694 -278 l 0 -278 l 0 -208 l 694 -208 l 694 -278 z "},"`":{"ha":411,"x_min":117,"x_max":307,"o":"m 143 1035 q 307 878 307 1001 l 307 833 l 294 818 l 281 818 l 117 1004 l 117 1013 q 143 1035 117 1031 z "},"a":{"ha":986,"x_min":-7,"x_max":928,"o":"m 547 985 l 582 985 q 719 871 683 985 l 725 856 q 683 660 694 767 l 679 660 l 683 635 l 674 593 l 679 588 l 674 563 l 674 547 l 679 551 l 836 551 q 928 449 892 551 q 907 433 928 433 l 694 454 q 674 433 678 449 l 683 340 l 679 325 l 689 300 l 699 38 l 699 26 q 674 -25 699 -14 q 419 253 419 189 l 425 258 l 431 258 q 597 176 578 176 l 603 176 l 603 186 l 608 186 l 603 249 l 603 340 l 593 397 l 593 454 q 394 397 394 428 l 394 392 l 400 367 l 389 321 l 394 300 l 385 279 l 389 274 q 278 26 356 106 l 263 17 l 247 17 q 226 78 226 17 l 226 83 q 242 150 226 150 l 263 144 q 313 403 313 276 l 150 325 l 104 289 l 89 289 q -7 388 51 289 l -7 397 q 39 413 10 413 l 324 506 q 333 635 333 535 q 303 815 333 747 l 297 856 l 303 861 l 308 861 q 354 851 318 851 q 419 758 419 815 l 415 732 l 419 732 q 496 779 468 779 l 521 779 q 578 717 578 779 q 490 542 578 618 l 490 536 l 542 542 l 593 542 q 613 888 593 808 l 603 897 q 486 840 560 885 q 431 831 467 831 l 415 831 l 385 856 q 547 985 500 985 m 394 599 l 400 593 l 400 583 l 389 526 l 389 521 l 415 521 q 461 629 461 585 l 456 644 q 394 599 394 636 z "},"b":{"ha":792,"x_min":0,"x_max":761,"o":"m 311 1078 l 317 1078 q 467 978 381 1078 l 467 944 l 450 911 l 517 922 q 711 806 660 922 l 711 794 q 511 628 626 669 l 511 617 l 539 617 q 761 461 686 617 l 761 456 q 606 217 624 217 l 606 206 q 667 117 667 136 q 622 72 663 72 l 589 72 q 467 89 535 89 l 439 89 q 106 0 289 89 l 100 0 q 0 94 0 40 l 0 128 l 100 172 l 178 239 l 178 256 l 161 256 q 94 322 117 256 l 94 333 q 322 406 94 354 l 372 411 l 417 411 q 461 339 439 411 l 461 333 q 350 261 461 325 q 206 194 328 240 l 206 189 q 406 211 313 211 q 489 228 406 228 q 589 500 550 333 l 594 522 q 83 400 413 522 l 78 400 q 56 439 56 410 l 56 450 q 139 561 56 561 l 294 600 l 294 606 q 217 711 236 640 l 217 717 l 228 728 l 272 711 l 300 711 q 328 850 328 711 q 294 1056 328 910 l 311 1078 m 106 861 q 139 800 125 853 l 133 783 q 144 767 144 783 l 150 767 q 294 833 244 831 l 300 828 l 300 806 l 194 722 q 128 589 160 668 l 94 578 q 44 689 44 644 l 44 722 q 106 861 44 803 m 500 844 l 461 844 q 433 706 444 844 q 422 667 426 706 l 411 656 l 411 644 q 556 850 521 735 l 500 844 z "},"c":{"ha":597,"x_min":22,"x_max":543,"o":"m 121 956 l 110 886 q 199 713 199 763 q 408 774 397 736 l 289 819 l 297 840 l 308 840 q 543 757 536 832 q 336 594 543 679 l 213 583 l 201 571 l 190 524 l 160 217 l 171 217 l 446 403 q 479 461 454 461 q 528 319 528 381 q 242 89 258 146 l 165 -4 q 22 239 22 31 l 78 690 q 22 875 22 788 q 121 956 22 956 z "},"d":{"ha":807,"x_min":53,"x_max":774,"o":"m 589 979 q 774 833 692 946 q 618 193 735 563 q 443 38 519 44 q 315 261 417 54 l 306 271 l 296 271 q 82 28 175 28 l 72 28 l 53 47 l 189 319 q 344 785 344 694 l 335 785 l 199 756 l 179 785 q 443 950 300 950 q 589 979 443 979 m 354 417 q 453 261 400 314 l 463 261 q 632 722 525 311 l 618 843 q 443 639 499 843 l 354 417 z "},"e":{"ha":838,"x_min":11,"x_max":821,"o":"m 269 1089 l 310 1089 q 422 1035 383 1089 l 422 1017 q 357 861 422 986 l 568 676 q 821 521 771 582 l 821 503 q 786 485 815 485 l 763 485 q 510 581 556 485 q 351 783 375 765 q 264 640 324 783 q 235 617 247 617 q 310 544 310 563 l 317 526 l 269 347 l 269 324 l 275 324 q 417 563 417 417 l 422 568 l 433 568 q 510 472 510 540 l 510 449 q 269 210 478 339 l 264 203 l 264 197 q 375 119 274 119 l 393 119 q 551 179 551 119 q 581 246 563 179 l 575 251 l 581 293 l 581 342 l 586 342 q 686 119 643 289 l 686 60 q 363 0 686 15 q 193 101 226 0 l 169 192 l 151 179 l 93 179 l 64 192 l 64 203 q 175 269 83 225 l 182 299 l 188 514 l 182 514 q 46 358 107 401 l 29 358 l 11 376 q 58 497 11 497 q 288 1024 218 701 q 251 1076 251 1044 l 269 1089 z "},"f":{"ha":794,"x_min":0,"x_max":776,"o":"m 303 1042 q 415 975 415 1021 l 429 960 l 429 922 l 436 922 l 429 864 l 429 856 l 649 893 q 776 782 740 893 q 724 736 763 736 l 663 736 l 536 767 l 449 744 l 449 669 l 442 663 l 442 654 l 449 647 l 482 654 l 549 654 l 576 663 q 675 557 625 663 l 675 535 l 649 506 l 622 506 q 469 565 551 506 l 449 557 l 443 118 q 383 6 443 6 q 303 140 335 6 q 328 654 328 438 q 307 722 324 722 q 93 610 143 610 q 0 722 0 653 q 74 751 0 740 q 301 833 129 794 l 301 864 l 296 915 l 268 1004 l 268 1011 q 303 1042 272 1026 z "},"g":{"ha":951,"x_min":1,"x_max":935,"o":"m 540 882 q 635 799 635 846 l 635 793 q 435 721 635 769 q 329 588 393 706 l 313 571 l 313 560 l 329 560 q 496 638 407 604 q 551 526 551 596 q 501 282 501 333 l 501 232 q 624 88 517 88 q 724 65 649 71 l 768 71 l 768 76 q 674 310 768 147 l 679 315 l 690 315 q 890 99 799 221 q 935 65 911 99 l 935 38 q 774 -35 910 -35 q 457 82 521 -35 q 413 182 429 125 l 407 182 q 140 21 217 75 q 1 171 35 21 q 163 388 71 171 q 124 426 131 388 q 196 476 196 438 l 257 626 l 251 626 q 201 599 222 599 q 74 738 74 669 l 85 749 l 118 738 l 140 738 q 513 876 165 738 l 540 882 m 268 443 l 268 438 q 390 332 336 438 q 351 299 378 299 l 251 321 l 246 321 q 190 232 235 318 q 151 199 151 208 l 163 199 q 401 271 326 271 l 407 271 l 440 488 l 385 471 q 313 538 344 471 q 301 510 301 538 l 268 443 z "},"h":{"ha":793,"x_min":35,"x_max":779,"o":"m 446 989 q 563 878 563 954 l 563 839 q 540 783 563 807 l 540 767 q 546 617 532 672 l 557 567 l 557 550 l 524 456 l 657 406 q 779 267 779 358 l 779 250 q 746 233 774 233 q 551 344 731 233 l 535 339 l 546 78 q 507 0 528 4 l 485 0 q 313 167 313 142 l 313 172 l 318 178 l 318 183 l 407 161 l 413 156 l 446 156 l 457 167 l 457 389 l 451 389 q 251 283 406 321 l 240 272 l 240 194 l 235 172 q 251 33 251 149 l 235 17 q 151 189 174 17 l 151 244 l 140 244 q 107 200 140 228 l 85 200 q 35 311 35 217 l 35 328 q 63 339 35 339 l 151 456 l 163 528 q 185 739 185 679 l 190 856 q 157 922 190 900 l 157 928 q 190 950 157 939 q 307 861 307 914 l 307 839 q 279 756 307 782 l 279 739 l 263 606 l 251 572 l 251 567 l 263 567 q 457 711 263 625 l 457 889 q 418 950 457 915 l 418 967 q 446 989 421 978 m 246 411 q 396 478 311 478 q 435 567 435 540 l 429 567 l 346 583 q 285 489 308 583 q 246 411 246 428 m 235 361 l 235 333 q 351 428 306 382 l 335 428 l 240 361 l 235 361 z "},"i":{"ha":794,"x_min":-12,"x_max":771,"o":"m 518 942 q 603 858 542 942 q 493 794 603 822 l 501 757 l 497 650 l 506 603 l 479 501 l 479 483 q 557 613 532 533 l 531 640 l 557 668 l 565 668 q 667 557 624 668 q 489 318 643 468 l 454 263 l 447 197 l 660 215 q 771 104 699 215 l 771 96 q 719 49 746 49 l 507 86 l 447 86 q 71 32 308 86 l 63 32 q -12 114 -12 31 q 235 169 164 169 l 235 178 q 207 336 211 292 q 139 290 175 290 q 97 400 97 290 q 139 521 106 521 q 174 474 147 474 q 246 721 232 474 l 238 721 l 194 711 q 118 858 124 794 l 126 868 l 169 858 l 186 858 l 510 942 l 518 942 m 374 776 q 331 749 374 754 l 335 631 q 310 567 335 600 l 310 557 l 394 585 l 390 757 l 374 776 m 386 549 q 318 428 386 521 l 318 419 l 326 410 l 326 400 l 310 346 q 394 493 394 346 l 394 549 l 386 549 m 318 253 l 311 188 l 319 197 l 371 197 l 378 290 q 318 253 318 268 z "},"j":{"ha":776,"x_min":28,"x_max":797,"o":"m 725 589 q 621 551 686 567 l 578 569 q 635 733 665 629 l 625 733 q 444 646 474 646 l 444 629 q 481 551 481 601 l 483 551 l 489 338 l 499 169 l 489 163 l 489 154 l 499 122 l 499 114 q 417 -36 499 -3 q 201 163 344 4 l 114 317 l 208 240 l 208 233 q 344 178 317 178 l 354 178 l 354 210 l 363 346 l 363 404 l 371 408 l 363 415 l 363 432 q 326 592 360 592 q 136 432 247 592 l 100 415 q 28 543 53 415 q 244 915 244 753 l 244 924 l 228 947 l 228 964 l 244 979 l 290 979 q 463 900 417 979 q 326 749 463 865 l 326 742 q 563 829 528 829 l 608 829 q 797 686 696 829 l 797 669 q 725 589 771 621 z "},"k":{"ha":850,"x_min":21,"x_max":847,"o":"m 332 983 l 369 983 q 490 890 468 983 q 431 739 490 860 l 438 739 l 560 782 q 658 714 613 782 l 658 681 q 392 579 658 643 l 392 563 l 407 563 q 529 444 529 540 q 415 158 415 224 q 544 117 422 125 q 718 235 718 117 l 718 318 l 733 335 q 847 75 813 251 q 650 -10 847 -10 l 468 -10 q 324 142 324 21 l 378 496 l 378 504 l 363 521 q 89 7 290 246 l 51 -10 l 21 15 l 21 32 q 74 175 21 146 q 218 461 175 294 l 196 444 l 172 444 q 43 604 43 496 l 51 613 l 58 613 l 104 596 q 317 714 317 638 l 354 865 q 308 942 354 889 l 308 958 l 332 983 m 582 942 l 589 942 q 764 790 764 942 q 718 747 751 747 q 551 824 551 800 q 604 849 551 843 l 604 882 q 560 917 574 882 l 582 942 z "},"l":{"ha":418,"x_min":15,"x_max":885,"o":"m 58 975 q 240 811 240 950 l 240 733 q 96 667 240 690 l 67 678 l 67 711 l 110 799 l 110 843 l 58 943 l 58 975 m 29 635 q 131 556 54 556 q 189 435 189 463 l 160 347 l 160 336 q 225 160 225 217 l 225 128 l 203 83 l 203 72 q 581 -17 286 72 l 754 -4 q 885 -72 874 -17 l 885 -94 q 689 -215 885 -139 l 233 -51 l 125 -51 q 44 83 67 -51 l 53 93 l 117 93 l 146 204 q 81 392 100 204 l 81 424 q 15 579 15 444 l 15 611 l 29 635 z "},"m":{"ha":971,"x_min":0,"x_max":967,"o":"m 828 894 q 967 756 892 894 l 967 750 q 839 67 899 222 q 772 0 797 7 q 556 217 631 76 l 539 261 l 556 267 q 728 183 663 189 q 822 633 764 183 l 828 750 l 833 772 l 828 778 l 822 778 q 606 672 768 778 l 556 656 l 544 656 q 417 756 417 686 l 556 806 q 828 894 715 894 m 267 756 l 283 756 q 344 667 322 729 l 339 639 l 339 594 q 394 706 371 635 l 411 706 l 422 678 q 278 317 311 365 l 233 306 q 200 361 200 318 l 200 394 l 239 572 l 239 600 q 156 383 193 528 l 150 344 l 156 317 l 150 317 l 161 272 l 161 256 l 139 233 l 128 233 q 22 400 22 313 l 22 467 l 28 500 q 0 628 22 558 l 0 633 l 11 644 q 111 550 64 644 l 122 550 q 267 756 211 756 m 722 667 l 744 644 l 744 633 q 594 433 697 551 q 456 244 497 279 l 444 244 q 417 306 431 244 q 400 394 401 329 l 400 444 q 433 528 415 528 l 444 528 l 461 489 l 450 478 l 450 461 l 456 461 q 722 667 517 472 z "},"n":{"ha":890,"x_min":32,"x_max":883,"o":"m 49 689 q 124 772 82 689 q 119 769 122 771 l 175 879 l 175 897 l 181 921 l 168 993 l 188 999 q 306 910 243 999 l 306 897 q 281 850 306 876 q 363 814 296 832 l 382 796 l 394 796 q 507 933 411 849 q 551 963 517 963 l 564 963 q 651 874 574 963 l 582 511 l 582 469 l 576 463 l 582 457 l 569 386 l 569 332 l 564 308 q 676 196 582 196 l 701 196 l 701 214 q 639 428 682 313 l 644 433 l 657 433 q 833 196 750 328 q 883 124 883 161 q 701 47 883 47 q 513 136 583 47 q 450 356 450 247 l 482 743 l 469 743 q 419 660 419 731 q 357 326 357 560 l 313 196 q 163 35 217 35 l 150 35 q 131 71 131 40 l 131 76 q 168 196 131 196 q 288 636 232 196 l 288 749 l 268 790 l 263 790 q 156 671 249 738 l 143 671 l 143 665 l 165 644 l 32 646 l 40 685 l 49 689 z "},"o":{"ha":754,"x_min":24,"x_max":714,"o":"m 431 969 l 492 969 q 706 621 706 901 l 714 456 q 507 8 714 8 q 315 67 413 22 l 269 50 q 47 215 47 103 q 24 332 32 215 q 124 838 24 446 l 131 846 l 139 846 q 215 688 215 758 l 146 556 l 161 556 q 331 646 331 615 l 338 688 l 338 729 l 300 721 l 292 729 l 292 738 l 307 796 l 261 779 l 254 779 l 224 813 q 431 969 324 969 m 369 821 l 369 804 l 392 804 q 446 746 446 804 l 446 713 q 546 606 546 674 q 431 547 546 572 l 400 431 q 583 381 488 431 l 592 381 l 592 629 q 522 861 575 861 l 507 861 l 369 821 m 208 447 l 139 464 q 100 324 115 435 q 192 182 100 240 l 192 190 q 124 332 124 296 l 139 332 l 231 240 q 285 349 243 240 q 239 372 239 358 l 239 381 q 307 422 239 396 l 315 497 q 208 447 246 447 m 292 215 l 292 207 l 307 190 l 315 190 l 338 207 l 353 207 l 353 190 l 346 182 l 346 174 q 422 149 385 149 l 468 149 q 576 240 576 165 l 576 249 q 400 332 542 249 q 338 249 375 328 l 292 215 z "},"p":{"ha":650,"x_min":-7,"x_max":629,"o":"m 103 857 q 381 972 211 972 q 451 1001 422 1001 q 629 885 546 981 l 629 869 q 606 775 629 810 q 629 731 629 767 l 629 724 q 536 665 615 694 l 490 621 l 490 614 q 606 533 544 614 l 606 518 l 575 489 l 458 489 q 288 408 288 489 q 86 50 229 186 q 8 14 42 14 q -7 36 -7 14 l 64 153 q 164 431 164 371 l 157 431 l 118 417 q 64 489 64 417 l 64 497 q 101 556 64 536 l 110 556 l 133 540 q 218 621 218 563 l 218 636 l 157 621 q 56 688 56 621 l 218 746 l 218 753 q 194 767 194 753 l 194 775 l 242 833 l 172 818 l 101 847 l 103 857 m 281 840 l 281 833 q 342 782 326 833 q 451 804 393 804 l 467 804 l 474 840 l 474 856 l 467 856 l 281 840 m 326 621 l 326 607 l 350 607 q 413 688 392 639 l 404 688 q 326 621 347 657 z "},"q":{"ha":751,"x_min":-14,"x_max":739,"o":"m 464 982 l 485 982 q 643 797 604 982 l 643 478 q 569 210 643 274 q 739 4 739 125 l 739 -36 l 696 -78 q 421 200 421 138 l 474 221 l 400 303 q 39 -36 272 -36 q -14 25 -14 -19 q 188 179 111 86 l 188 190 q 124 282 140 190 l 124 756 q 167 817 124 817 q 231 725 231 792 l 240 725 q 304 765 240 765 q 453 643 453 736 q 400 406 432 438 l 485 344 l 494 385 l 485 396 l 485 879 q 231 807 342 807 l 188 838 q 464 982 351 981 m 251 704 l 219 251 l 219 242 l 231 242 q 293 643 293 374 q 261 704 283 704 l 251 704 z "},"r":{"ha":896,"x_min":-17,"x_max":882,"o":"m 544 969 l 568 969 q 679 889 618 969 l 679 864 q 606 751 679 801 l 606 726 q 657 654 644 726 l 657 646 l 635 622 l 560 622 q 313 468 313 593 q 28 -50 196 -50 q -17 -26 -17 -42 l -17 -18 q 231 565 131 89 l 224 622 q 275 849 251 622 q 231 881 231 853 q 306 938 231 917 l 372 904 q 544 969 511 969 m 350 686 q 507 783 507 724 q 531 840 531 801 l 531 856 q 381 775 489 815 l 343 686 l 350 686 m 560 581 q 679 517 624 581 l 679 476 q 447 297 653 432 l 433 193 l 433 185 q 582 144 525 144 q 792 274 792 165 q 822 394 807 274 l 829 394 q 882 96 882 333 q 635 22 882 61 l 553 22 q 358 225 358 22 l 358 274 q 313 290 313 274 l 313 297 q 365 331 313 319 l 365 492 q 343 517 343 492 q 381 557 343 538 q 469 443 469 543 l 469 436 q 553 581 553 510 l 560 581 z "},"s":{"ha":640,"x_min":28,"x_max":624,"o":"m 407 979 q 536 893 490 979 l 542 858 q 454 613 542 826 l 419 585 l 419 572 l 465 572 q 618 464 536 572 l 624 429 q 338 -22 489 -22 q 174 167 268 -22 l 179 172 l 203 172 q 319 121 258 132 l 332 121 q 449 286 406 158 l 472 401 l 472 469 l 465 475 l 465 482 q 157 385 225 447 l 128 385 q 75 436 75 392 q 139 607 75 479 l 144 676 l 133 768 l 139 774 l 174 774 q 244 710 244 768 l 244 647 q 208 533 244 603 l 215 533 l 319 556 q 274 699 274 654 l 279 704 l 285 704 q 319 658 319 675 l 338 658 q 396 825 396 765 l 396 836 l 390 842 l 390 847 q 174 796 390 825 q 128 842 128 801 q 407 979 390 979 m 319 378 l 372 378 q 436 321 436 367 l 436 304 q 208 224 436 275 q 133 201 167 201 l 128 201 q 28 293 28 238 q 208 350 39 306 q 319 378 208 365 z "},"t":{"ha":519,"x_min":-8,"x_max":506,"o":"m 317 1003 q 494 942 460 1003 l 506 914 q 444 831 506 886 l 203 700 q 256 511 247 608 l 258 432 l 256 322 l 250 39 q 222 11 250 24 q 133 156 167 46 q 142 611 150 324 l 131 622 q 53 528 131 593 l 42 528 q -8 633 22 528 l -8 644 q 75 739 -8 671 q 294 907 257 844 l 294 935 l 294 992 l 317 1003 z "},"u":{"ha":865,"x_min":29,"x_max":844,"o":"m 490 900 l 496 900 q 585 800 557 900 l 585 550 l 574 489 l 574 478 q 668 606 596 478 l 668 622 q 640 633 640 622 l 640 644 q 690 672 654 672 q 785 578 731 672 l 785 572 q 579 306 785 503 q 551 206 579 232 l 563 194 l 590 194 q 815 79 767 153 l 831 49 q 817 -8 844 13 q 507 78 696 78 l 457 78 q 124 -18 193 78 q 29 115 50 43 q 113 139 50 126 q 263 178 151 161 q 224 306 224 240 l 213 306 q 135 250 167 250 q 79 356 79 250 q 113 483 79 401 l 124 483 l 146 461 l 140 428 l 146 428 q 235 517 235 442 q 318 733 265 733 l 324 739 l 340 706 l 329 656 l 329 583 l 313 517 l 318 517 l 418 561 l 435 561 l 446 550 l 446 539 q 324 411 324 432 l 324 389 l 329 361 l 324 361 l 329 344 l 324 294 l 329 294 q 474 372 474 346 l 485 706 l 479 783 l 474 783 l 440 778 q 429 839 429 800 l 429 844 q 490 900 453 900 m 329 200 l 329 189 l 435 200 l 485 200 l 479 267 q 340 239 440 239 q 329 200 340 213 z "},"v":{"ha":1015,"x_min":0,"x_max":994,"o":"m 794 1218 l 881 1225 l 901 1225 l 938 1186 q 794 1097 914 1156 l 788 1057 l 781 776 l 801 776 q 967 985 860 924 l 974 985 l 994 961 l 994 929 q 938 793 994 793 q 658 104 756 532 q 701 17 701 50 l 681 0 l 608 0 q 486 81 540 0 l 486 88 q 535 217 486 149 q 165 633 281 613 q 0 769 54 694 l 0 785 q 50 817 11 817 l 79 817 q 372 706 325 817 q 531 403 401 681 q 596 371 574 371 l 603 371 q 715 640 638 529 q 615 744 638 697 q 681 1010 651 929 l 681 1025 l 674 1025 q 501 706 501 897 l 494 697 l 479 697 q 372 833 419 697 q 644 1161 372 942 q 674 1193 674 1169 l 794 1218 z "},"w":{"ha":965,"x_min":60,"x_max":921,"o":"m 399 -18 q 265 143 265 58 q 349 526 349 383 l 349 571 q 299 793 349 758 l 221 815 l 199 804 l 199 771 q 271 543 199 719 l 271 532 l 265 532 q 126 765 194 615 q 60 882 106 825 q 154 960 60 939 l 210 965 q 438 676 376 965 l 438 654 l 449 654 q 554 788 461 788 l 565 799 l 565 854 q 615 1104 565 1104 l 621 1104 q 665 954 660 1038 l 660 710 l 660 604 q 699 693 669 604 q 771 743 735 743 q 860 893 800 893 l 865 893 q 921 721 921 840 l 921 699 l 910 699 q 893 738 899 699 l 888 738 q 871 676 871 738 l 876 454 q 821 226 876 376 l 815 226 q 799 249 799 226 l 788 249 q 638 115 768 197 q 438 -7 504 81 l 399 -18 m 732 293 l 732 299 l 704 299 l 560 243 l 515 243 q 471 293 483 267 l 471 315 q 543 432 543 382 l 554 443 l 554 449 l 549 449 l 532 443 l 532 449 l 493 438 q 443 482 443 450 l 438 482 q 421 360 433 360 l 426 354 l 426 349 q 415 304 422 304 l 421 288 q 399 138 410 288 l 404 138 q 565 215 419 138 q 732 293 711 293 m 760 315 l 749 354 l 788 599 l 788 604 q 671 410 713 536 q 704 360 671 360 q 749 304 749 346 l 760 315 m 571 676 l 571 688 l 560 688 q 526 576 535 688 l 532 538 q 565 671 553 538 l 571 676 z "},"x":{"ha":1033,"x_min":19,"x_max":1104,"o":"m 688 1211 l 693 1211 q 797 1100 797 1174 l 786 1079 l 786 1072 l 804 1072 q 926 963 888 1072 l 926 942 q 724 879 926 894 q 578 761 640 761 l 578 754 q 688 615 688 707 q 601 346 688 588 q 932 104 711 218 q 1104 -28 1017 63 l 1104 -56 q 908 -90 1104 -85 q 553 207 813 -90 l 546 207 q 160 0 418 0 l 136 0 q 19 56 53 0 l 19 63 q 253 144 19 83 q 454 304 347 179 l 454 318 q 142 478 299 478 l 129 499 l 129 513 q 210 540 129 535 l 283 540 q 515 429 385 540 q 546 650 546 493 l 546 657 q 515 719 546 683 l 515 726 q 546 747 515 746 l 546 754 q 504 768 504 754 q 608 914 608 874 l 601 914 q 479 824 479 896 l 474 796 l 479 775 q 449 719 463 719 l 436 719 q 363 810 386 719 q 222 740 274 740 l 215 740 q 142 907 142 806 l 160 921 l 233 921 q 363 956 363 943 l 363 969 q 307 1107 363 1006 l 307 1128 l 326 1142 l 338 1142 q 492 996 492 1125 l 492 983 l 485 976 l 485 969 l 492 969 q 657 1051 657 1003 l 669 1135 l 663 1142 l 657 1135 l 644 1135 l 626 1156 q 688 1211 643 1211 z "},"y":{"ha":674,"x_min":21,"x_max":631,"o":"m 447 986 l 494 986 q 631 872 579 986 q 418 596 607 758 l 408 568 l 428 511 l 428 388 l 418 339 l 428 282 l 428 92 q 379 -12 413 -12 l 350 -12 q 224 178 224 85 l 292 158 l 311 215 l 311 406 q 204 635 311 565 q 50 710 160 710 l 21 749 l 21 758 q 118 815 60 815 l 138 815 q 321 682 321 754 l 321 643 l 331 643 q 476 910 468 782 l 467 910 l 408 900 q 369 929 369 915 l 369 949 q 447 986 369 972 z "},"z":{"ha":682,"x_min":0,"x_max":772,"o":"m 481 868 l 483 868 l 507 879 l 507 882 l 501 882 q 481 868 488 882 m 381 1042 l 392 1042 q 558 943 476 1042 l 558 932 q 490 846 558 871 l 415 790 q 600 681 549 790 q 518 546 600 624 q 260 269 339 301 l 260 264 l 265 264 q 576 307 372 288 l 547 411 l 547 417 l 558 429 l 565 429 q 738 251 639 429 l 772 160 q 708 0 772 50 l 692 0 q 651 129 678 0 l 628 178 l 622 172 l 617 172 l 582 178 q 219 74 392 178 q 167 43 196 43 q 51 165 114 43 l 46 196 l 46 226 q 121 307 46 307 q 294 472 188 349 q 438 686 422 621 l 438 699 l 432 699 l 415 693 l 386 699 l 375 699 q 167 496 343 699 q 35 411 68 411 q 0 533 17 411 q 139 643 0 564 q 190 693 139 658 q 369 986 369 913 l 369 999 l 363 1029 l 381 1042 z "},"{":{"ha":688,"x_min":163,"x_max":599,"o":"m 163 474 q 314 522 279 476 q 349 611 349 567 l 349 929 q 401 1025 349 979 q 526 1071 453 1071 l 599 1071 l 599 1038 l 539 1038 q 466 1015 497 1038 q 433 953 435 992 l 433 613 q 392 506 433 557 q 296 454 351 454 l 296 453 q 393 401 351 451 q 435 293 435 350 l 433 -46 q 466 -108 435 -85 q 539 -131 497 -131 l 599 -131 l 599 -164 l 526 -164 q 401 -118 453 -164 q 349 -22 349 -72 l 349 294 q 314 385 349 340 q 163 433 279 429 l 163 474 z "},"|":{"ha":688,"x_min":289,"x_max":397,"o":"m 289 1069 l 397 1069 l 397 -283 l 289 -283 l 289 1069 z "},"}":{"ha":688,"x_min":88,"x_max":524,"o":"m 524 489 q 373 427 407 485 q 339 313 339 369 l 339 -93 q 285 -215 338 -157 q 161 -274 233 -274 l 88 -274 l 88 -231 l 149 -231 q 222 -202 190 -231 q 253 -122 253 -174 l 253 311 q 294 447 253 382 q 392 514 335 513 l 392 515 q 294 582 335 517 q 253 719 253 647 l 253 1151 q 222 1231 253 1203 q 149 1260 190 1260 l 88 1260 l 88 1303 l 161 1303 q 286 1244 233 1303 q 339 1122 339 1186 l 339 717 q 373 602 339 660 q 524 540 407 544 l 524 489 z "},"~":{"ha":688,"x_min":78,"x_max":611,"o":"m 267 565 q 433 543 325 565 q 611 476 611 493 l 611 471 q 533 415 586 415 q 494 426 494 415 q 250 515 471 447 l 244 515 l 289 471 l 289 465 l 283 460 l 239 471 l 150 465 l 128 465 q 78 504 88 465 q 156 565 104 565 l 178 560 l 200 565 l 267 565 z "},"":{"ha":929,"x_min":4,"x_max":939,"o":"m 558 957 l 593 957 q 731 843 694 957 l 736 828 q 694 632 706 739 l 690 632 l 694 607 l 685 565 l 690 560 l 685 535 l 685 519 l 690 524 l 847 524 q 939 421 903 524 q 918 406 939 406 l 706 426 q 685 406 689 421 l 694 313 l 690 297 l 700 272 l 710 10 l 710 -1 q 685 -53 710 -42 q 431 225 431 161 l 436 231 l 442 231 q 608 149 589 149 l 614 149 l 614 158 l 619 158 l 614 221 l 614 313 l 604 369 l 604 426 q 406 369 406 400 l 406 364 l 411 339 l 400 293 l 406 272 l 396 251 l 400 246 q 289 -1 367 78 l 274 -11 l 258 -11 q 238 50 238 -11 l 238 56 q 253 122 238 122 l 274 117 q 324 375 324 249 l 161 297 l 115 261 l 100 261 q 4 360 63 261 l 4 369 q 50 385 21 385 l 335 478 q 344 607 344 507 q 314 788 344 719 l 308 828 l 314 833 l 319 833 q 365 824 329 824 q 431 731 431 788 l 426 704 l 431 704 q 507 751 479 751 l 532 751 q 589 689 589 751 q 501 514 589 590 l 501 508 l 553 514 l 604 514 q 624 860 604 781 l 614 869 q 497 813 571 857 q 442 803 478 803 l 426 803 l 396 828 q 558 957 511 957 m 406 571 l 411 565 l 411 556 l 400 499 l 400 493 l 426 493 q 472 601 472 557 l 467 617 q 406 571 406 608 m 439 1206 l 442 1206 q 517 1165 482 1206 l 517 1154 l 490 1071 q 501 1053 501 1068 q 428 1035 501 1038 l 424 1038 q 382 1017 382 1038 q 368 1007 382 1011 q 326 1093 338 1007 l 326 1119 q 368 1196 326 1165 l 379 1196 l 379 1190 l 375 1172 l 375 1169 l 379 1169 q 439 1206 413 1206 m 382 1114 l 386 1111 l 386 1108 l 382 1096 l 382 1093 q 431 1147 431 1100 l 382 1117 l 382 1114 m 674 1210 l 676 1210 q 751 1169 717 1210 l 751 1158 l 725 1075 q 736 1057 736 1072 q 663 1039 736 1042 l 658 1042 q 617 1021 617 1042 q 603 1011 617 1015 q 561 1097 572 1011 l 561 1124 q 603 1200 561 1169 l 614 1200 l 614 1194 l 610 1176 l 610 1174 l 614 1174 q 674 1210 647 1210 m 617 1118 l 621 1115 l 621 1113 l 617 1100 l 617 1097 q 665 1151 665 1104 l 617 1121 l 617 1118 z "},"":{"ha":828,"x_min":-31,"x_max":904,"o":"m 524 985 l 558 985 q 696 871 660 985 l 701 856 q 660 660 671 767 l 656 660 l 660 635 l 650 593 l 656 588 l 650 563 l 650 547 l 656 551 l 813 551 q 904 449 868 551 q 883 433 904 433 l 671 454 q 650 433 654 449 l 660 340 l 656 325 l 665 300 l 675 38 l 675 26 q 650 -25 675 -14 q 396 253 396 189 l 401 258 l 407 258 q 574 176 554 176 l 579 176 l 579 186 l 585 186 l 579 249 l 579 340 l 569 397 l 569 454 q 371 397 371 428 l 371 392 l 376 367 l 365 321 l 371 300 l 361 279 l 365 274 q 254 26 332 106 l 239 17 l 224 17 q 203 78 203 17 l 203 83 q 218 150 203 150 l 239 144 q 289 403 289 276 l 126 325 l 81 289 l 65 289 q -31 388 28 289 l -31 397 q 15 413 -14 413 l 300 506 q 310 635 310 535 q 279 815 310 747 l 274 856 l 279 861 l 285 861 q 331 851 294 851 q 396 758 396 815 l 392 732 l 396 732 q 472 779 444 779 l 497 779 q 554 717 554 779 q 467 542 554 618 l 467 536 l 518 542 l 569 542 q 589 888 569 808 l 579 897 q 463 840 536 885 q 407 831 443 831 l 392 831 l 361 856 q 524 985 476 985 m 371 599 l 376 593 l 376 583 l 365 526 l 365 521 l 392 521 q 438 629 438 585 l 432 644 q 371 599 371 636 m 511 1172 q 418 967 451 1000 q 335 933 385 933 q 251 967 286 933 q 217 1050 217 1000 q 251 1133 217 1099 q 335 1168 286 1168 q 417 1133 382 1168 q 511 1172 451 1099 m 399 1050 q 390 1085 399 1076 q 335 1115 382 1093 q 288 1097 307 1115 q 269 1050 269 1078 q 288 1003 269 1022 q 335 985 307 985 q 381 1003 363 985 q 399 1050 399 1021 z "},"":{"ha":594,"x_min":25,"x_max":546,"o":"m 124 942 l 113 872 q 201 699 201 749 q 411 760 400 722 l 292 806 l 300 826 l 311 826 q 546 743 539 818 q 339 581 546 665 l 215 569 l 204 557 l 193 510 l 163 203 l 174 203 l 449 389 q 482 447 457 447 q 531 306 531 367 q 244 75 261 132 l 168 -18 q 25 225 25 17 l 81 676 q 25 861 25 774 q 124 942 25 942 m 233 -101 q 93 -282 233 -131 l 56 -256 q 117 -174 117 -190 q 93 -143 117 -158 q 25 -111 69 -128 q 88 -37 65 -64 q 146 39 126 8 l 183 39 l 143 -18 q 214 -67 194 -47 q 233 -101 233 -86 z "},"":{"ha":808,"x_min":-1,"x_max":808,"o":"m 257 981 l 297 981 q 410 926 371 981 l 410 908 q 344 753 410 878 l 556 568 q 808 413 758 474 l 808 394 q 774 376 803 376 l 750 376 q 497 472 543 376 q 339 675 363 657 q 251 532 311 675 q 222 508 235 508 q 297 436 297 454 l 304 418 l 257 239 l 257 215 l 263 215 q 404 454 404 308 l 410 460 l 421 460 q 497 364 497 432 l 497 340 q 257 101 465 231 l 251 94 l 251 89 q 363 11 261 11 l 381 11 q 539 71 539 11 q 568 138 550 71 l 563 143 l 568 185 l 568 233 l 574 233 q 674 11 631 181 l 674 -49 q 350 -108 674 -93 q 181 -7 214 -108 l 157 83 l 139 71 l 81 71 l 51 83 l 51 94 q 163 161 71 117 l 169 190 l 175 406 l 169 406 q 33 250 94 293 l 17 250 l -1 268 q 46 389 -1 389 q 275 915 206 593 q 239 968 239 936 l 257 981 m 678 1033 q 707 1013 707 1031 l 707 1006 l 525 833 l 510 833 l 496 847 l 496 889 q 678 1033 496 1003 z "},"":{"ha":824,"x_min":32,"x_max":883,"o":"m 49 642 q 124 725 82 642 q 119 722 122 724 l 175 832 l 175 850 l 181 874 l 168 946 l 188 951 q 306 863 243 951 l 306 850 q 281 803 306 829 q 363 767 296 785 l 382 749 l 394 749 q 507 886 411 801 q 551 915 517 915 l 564 915 q 651 826 574 915 l 582 464 l 582 422 l 576 415 l 582 410 l 569 339 l 569 285 l 564 261 q 676 149 582 149 l 701 149 l 701 167 q 639 381 682 265 l 644 386 l 657 386 q 833 149 750 281 q 883 76 883 114 q 701 0 883 0 q 513 89 583 0 q 450 308 450 200 l 482 696 l 469 696 q 419 613 419 683 q 357 279 357 513 l 313 149 q 163 -12 217 -12 l 150 -12 q 131 24 131 -7 l 131 29 q 168 149 131 149 q 288 589 232 149 l 288 701 l 268 743 l 263 743 q 156 624 249 690 l 143 624 l 143 618 l 165 597 l 32 599 l 40 638 l 49 642 m 363 1150 q 492 1089 399 1150 q 550 1074 525 1074 q 649 1150 596 1074 l 654 1150 l 654 1143 q 513 1028 582 1028 q 421 1071 479 1028 q 342 1092 379 1092 l 340 1092 q 238 1025 263 1092 q 213 1010 225 1010 l 208 1010 q 157 1056 157 1019 l 157 1067 q 164 1085 157 1083 l 185 1085 l 188 1082 l 190 1082 q 182 1060 182 1071 l 182 1050 q 208 1028 188 1028 q 240 1078 221 1028 q 363 1150 300 1150 m 332 1081 l 342 1081 q 457 1024 388 1081 l 486 1021 l 494 1021 q 606 1064 551 1021 l 608 1064 l 608 1063 q 474 978 571 1004 l 449 974 q 363 1019 375 996 q 296 1043 326 1042 l 251 1032 l 251 1038 q 332 1081 283 1081 z "},"":{"ha":774,"x_min":-10,"x_max":681,"o":"m 397 936 l 458 936 q 672 588 672 868 l 681 422 q 474 -25 681 -25 q 282 33 379 -11 l 236 17 q 14 182 14 69 q -10 299 -1 182 q 90 804 -10 413 l 97 813 l 106 813 q 182 654 182 725 l 113 522 l 128 522 q 297 613 297 582 l 304 654 l 304 696 l 267 688 l 258 696 l 258 704 l 274 763 l 228 746 l 221 746 l 190 779 q 397 936 290 936 m 336 788 l 336 771 l 358 771 q 413 713 413 771 l 413 679 q 513 572 513 640 q 397 514 513 539 l 367 397 q 550 347 454 397 l 558 347 l 558 596 q 489 828 542 828 l 474 828 l 336 788 m 175 414 l 106 431 q 67 290 82 401 q 158 149 67 207 l 158 157 q 90 299 90 263 l 106 299 l 197 207 q 251 315 210 207 q 206 339 206 325 l 206 347 q 274 389 206 363 l 282 464 q 175 414 213 414 m 258 182 l 258 174 l 274 157 l 282 157 l 304 174 l 319 174 l 319 157 l 313 149 l 313 140 q 389 115 351 115 l 435 115 q 543 207 543 132 l 543 215 q 367 299 508 215 q 304 215 342 294 l 258 182 m 344 1204 l 347 1204 q 422 1164 388 1204 l 422 1153 l 396 1069 q 407 1051 407 1067 q 333 1033 407 1036 l 329 1036 q 288 1015 288 1036 q 274 1006 288 1010 q 232 1092 243 1006 l 232 1118 q 274 1194 232 1164 l 285 1194 l 285 1189 l 281 1171 l 281 1168 l 285 1168 q 344 1204 318 1204 m 288 1113 l 292 1110 l 292 1107 l 288 1094 l 288 1092 q 336 1146 336 1099 l 288 1115 l 288 1113 m 579 1208 l 582 1208 q 657 1168 622 1208 l 657 1157 l 631 1074 q 642 1056 642 1071 q 568 1038 642 1040 l 564 1040 q 522 1019 522 1040 q 508 1010 522 1014 q 467 1096 478 1010 l 467 1122 q 508 1199 467 1168 l 519 1199 l 519 1193 l 515 1175 l 515 1172 l 519 1172 q 579 1208 553 1208 m 522 1117 l 526 1114 l 526 1111 l 522 1099 l 522 1096 q 571 1150 571 1103 l 522 1119 l 522 1117 z "},"":{"ha":832,"x_min":-3,"x_max":813,"o":"m 458 900 l 464 900 q 553 800 525 900 l 553 550 l 542 489 l 542 478 q 636 606 564 478 l 636 622 q 608 633 608 622 l 608 644 q 658 672 622 672 q 753 578 699 672 l 753 572 q 547 306 753 503 q 519 206 547 232 l 531 194 l 558 194 q 783 79 735 153 l 799 49 q 785 -8 813 13 q 475 78 664 78 l 425 78 q 92 -18 161 78 q -3 115 18 43 q 81 139 18 126 q 231 178 119 161 q 192 306 192 240 l 181 306 q 103 250 135 250 q 47 356 47 250 q 81 483 47 401 l 92 483 l 114 461 l 108 428 l 114 428 q 203 517 203 442 q 286 733 233 733 l 292 739 l 308 706 l 297 656 l 297 583 l 281 517 l 286 517 l 386 561 l 403 561 l 414 550 l 414 539 q 292 411 292 432 l 292 389 l 297 361 l 292 361 l 297 344 l 292 294 l 297 294 q 442 372 442 346 l 453 706 l 447 783 l 442 783 l 408 778 q 397 839 397 800 l 397 844 q 458 900 421 900 m 297 200 l 297 189 l 403 200 l 453 200 l 447 267 q 308 239 408 239 q 297 200 308 213 m 260 1103 l 263 1103 q 338 1063 303 1103 l 338 1051 l 311 968 q 322 950 322 965 q 249 932 322 935 l 244 935 q 203 914 203 935 q 189 904 203 908 q 147 990 158 904 l 147 1017 q 189 1093 147 1063 l 200 1093 l 200 1088 l 196 1069 l 196 1067 l 200 1067 q 260 1103 233 1103 m 203 1011 l 207 1008 l 207 1006 l 203 993 l 203 990 q 251 1044 251 997 l 203 1014 l 203 1011 m 494 1107 l 497 1107 q 572 1067 538 1107 l 572 1056 l 546 972 q 557 954 557 969 q 483 936 557 939 l 479 939 q 438 918 438 939 q 424 908 438 913 q 382 994 393 908 l 382 1021 q 424 1097 382 1067 l 435 1097 l 435 1092 l 431 1074 l 431 1071 l 435 1071 q 494 1107 468 1107 m 438 1015 l 442 1013 l 442 1010 l 438 997 l 438 994 q 486 1049 486 1001 l 438 1018 l 438 1015 z "},"":{"ha":946,"x_min":10,"x_max":944,"o":"m 564 924 l 599 924 q 736 810 700 924 l 742 794 q 700 599 711 706 l 696 599 l 700 574 l 690 532 l 696 526 l 690 501 l 690 486 l 696 490 l 853 490 q 944 388 908 490 q 924 372 944 372 l 711 393 q 690 372 694 388 l 700 279 l 696 264 l 706 239 l 715 -24 l 715 -35 q 690 -86 715 -75 q 436 192 436 128 l 442 197 l 447 197 q 614 115 594 115 l 619 115 l 619 125 l 625 125 l 619 188 l 619 279 l 610 336 l 610 393 q 411 336 411 367 l 411 331 l 417 306 l 406 260 l 411 239 l 401 218 l 406 213 q 294 -35 372 44 l 279 -44 l 264 -44 q 243 17 243 -44 l 243 22 q 258 89 243 89 l 279 83 q 329 342 329 215 l 167 264 l 121 228 l 106 228 q 10 326 68 228 l 10 336 q 56 351 26 351 l 340 444 q 350 574 350 474 q 319 754 350 686 l 314 794 l 319 800 l 325 800 q 371 790 335 790 q 436 697 436 754 l 432 671 l 436 671 q 513 718 485 718 l 538 718 q 594 656 594 718 q 507 481 594 557 l 507 475 l 558 481 l 610 481 q 629 826 610 747 l 619 836 q 503 779 576 824 q 447 769 483 769 l 432 769 l 401 794 q 564 924 517 924 m 411 538 l 417 532 l 417 522 l 406 465 l 406 460 l 432 460 q 478 568 478 524 l 472 583 q 411 538 411 575 m 658 1181 q 688 1160 688 1178 l 688 1153 l 506 981 l 490 981 l 476 994 l 476 1036 q 658 1181 476 1150 z "},"":{"ha":835,"x_min":-4,"x_max":931,"o":"m 550 983 l 585 983 q 722 869 686 983 l 728 854 q 686 658 697 765 l 682 658 l 686 633 l 676 592 l 682 586 l 676 561 l 676 546 l 682 550 l 839 550 q 931 447 894 550 q 910 432 931 432 l 697 453 q 676 432 681 447 l 686 339 l 682 324 l 692 299 l 701 36 l 701 25 q 676 -26 701 -15 q 422 251 422 188 l 428 257 l 433 257 q 600 175 581 175 l 606 175 l 606 185 l 611 185 l 606 247 l 606 339 l 596 396 l 596 453 q 397 396 397 426 l 397 390 l 403 365 l 392 319 l 397 299 l 388 278 l 392 272 q 281 25 358 104 l 265 15 l 250 15 q 229 76 229 15 l 229 82 q 244 149 229 149 l 265 143 q 315 401 315 275 l 153 324 l 107 288 l 92 288 q -4 386 54 288 l -4 396 q 42 411 13 411 l 326 504 q 336 633 336 533 q 306 814 336 746 l 300 854 l 306 860 l 311 860 q 357 850 321 850 q 422 757 422 814 l 418 731 l 422 731 q 499 778 471 778 l 524 778 q 581 715 581 778 q 493 540 581 617 l 493 535 l 544 540 l 596 540 q 615 886 596 807 l 606 896 q 489 839 563 883 q 433 829 469 829 l 418 829 l 388 854 q 550 983 503 983 m 397 597 l 403 592 l 403 582 l 392 525 l 392 519 l 418 519 q 464 628 464 583 l 458 643 q 397 597 397 635 m 97 1175 q 261 1018 261 1142 l 261 974 l 249 958 l 235 958 l 71 1144 l 71 1153 q 97 1175 71 1171 z "},"":{"ha":799,"x_min":1,"x_max":936,"o":"m 556 990 l 590 990 q 728 876 692 990 l 733 861 q 692 665 703 772 l 688 665 l 692 640 l 682 599 l 688 593 l 682 568 l 682 553 l 688 557 l 844 557 q 936 454 900 557 q 915 439 936 439 l 703 460 q 682 439 686 454 l 692 346 l 688 331 l 697 306 l 707 43 l 707 32 q 682 -19 707 -8 q 428 258 428 194 l 433 264 l 439 264 q 606 182 586 182 l 611 182 l 611 192 l 617 192 l 611 254 l 611 346 l 601 403 l 601 460 q 403 403 403 433 l 403 397 l 408 372 l 397 326 l 403 306 l 393 285 l 397 279 q 286 32 364 111 l 271 22 l 256 22 q 235 83 235 22 l 235 89 q 250 156 235 156 l 271 150 q 321 408 321 282 l 158 331 l 113 294 l 97 294 q 1 393 60 294 l 1 403 q 47 418 18 418 l 332 511 q 342 640 342 540 q 311 821 342 753 l 306 861 l 311 867 l 317 867 q 363 857 326 857 q 428 764 428 821 l 424 738 l 428 738 q 504 785 476 785 l 529 785 q 586 722 586 785 q 499 547 586 624 l 499 542 l 550 547 l 601 547 q 621 893 601 814 l 611 903 q 494 846 568 890 q 439 836 475 836 l 424 836 l 393 861 q 556 990 508 990 m 403 604 l 408 599 l 408 589 l 397 532 l 397 526 l 424 526 q 469 635 469 590 l 464 650 q 403 604 403 642 m 444 1360 l 444 1354 l 461 1354 q 689 1188 689 1294 l 683 1188 l 694 1160 q 672 1132 683 1135 l 661 1132 q 511 1254 626 1132 l 456 1288 l 439 1288 q 317 1165 411 1165 q 211 1210 231 1165 q 356 1332 356 1225 l 444 1360 z "},"":{"ha":793,"x_min":-6,"x_max":929,"o":"m 549 985 l 583 985 q 721 871 685 985 l 726 856 q 685 660 696 767 l 681 660 l 685 635 l 675 593 l 681 588 l 675 563 l 675 547 l 681 551 l 838 551 q 929 449 893 551 q 908 433 929 433 l 696 454 q 675 433 679 449 l 685 340 l 681 325 l 690 300 l 700 38 l 700 26 q 675 -25 700 -14 q 421 253 421 189 l 426 258 l 432 258 q 599 176 579 176 l 604 176 l 604 186 l 610 186 l 604 249 l 604 340 l 594 397 l 594 454 q 396 397 396 428 l 396 392 l 401 367 l 390 321 l 396 300 l 386 279 l 390 274 q 279 26 357 106 l 264 17 l 249 17 q 228 78 228 17 l 228 83 q 243 150 228 150 l 264 144 q 314 403 314 276 l 151 325 l 106 289 l 90 289 q -6 388 53 289 l -6 397 q 40 413 11 413 l 325 506 q 335 635 335 535 q 304 815 335 747 l 299 856 l 304 861 l 310 861 q 356 851 319 851 q 421 758 421 815 l 417 732 l 421 732 q 497 779 469 779 l 522 779 q 579 717 579 779 q 492 542 579 618 l 492 536 l 543 542 l 594 542 q 614 888 594 808 l 604 897 q 488 840 561 885 q 432 831 468 831 l 417 831 l 386 856 q 549 985 501 985 m 396 599 l 401 593 l 401 583 l 390 526 l 390 521 l 417 521 q 463 629 463 585 l 457 644 q 396 599 396 636 m 433 1218 l 436 1218 q 511 1178 476 1218 l 511 1167 l 485 1083 q 496 1065 496 1081 q 422 1047 496 1050 l 418 1050 q 376 1029 376 1050 q 363 1019 376 1024 q 321 1106 332 1019 l 321 1132 q 363 1208 321 1178 l 374 1208 l 374 1203 l 369 1185 l 369 1182 l 374 1182 q 433 1218 407 1218 m 376 1126 l 381 1124 l 381 1121 l 376 1108 l 376 1106 q 425 1160 425 1113 l 376 1129 l 376 1126 m 668 1222 l 671 1222 q 746 1182 711 1222 l 746 1171 l 719 1088 q 731 1069 731 1085 q 657 1051 731 1054 l 653 1054 q 611 1033 611 1054 q 597 1024 611 1028 q 556 1110 567 1024 l 556 1136 q 597 1213 556 1182 l 608 1213 l 608 1207 l 604 1189 l 604 1186 l 608 1186 q 668 1222 642 1222 m 611 1131 l 615 1128 l 615 1125 l 611 1113 l 611 1110 q 660 1164 660 1117 l 611 1133 l 611 1131 z "},"":{"ha":853,"x_min":0,"x_max":935,"o":"m 554 967 l 589 967 q 726 853 690 967 l 732 838 q 690 642 701 749 l 686 642 l 690 617 l 681 575 l 686 569 l 681 544 l 681 529 l 686 533 l 843 533 q 935 431 899 533 q 914 415 935 415 l 701 436 q 681 415 685 431 l 690 322 l 686 307 l 696 282 l 706 19 l 706 8 q 681 -43 706 -32 q 426 235 426 171 l 432 240 l 438 240 q 604 158 585 158 l 610 158 l 610 168 l 615 168 l 610 231 l 610 322 l 600 379 l 600 436 q 401 379 401 410 l 401 374 l 407 349 l 396 303 l 401 282 l 392 261 l 396 256 q 285 8 363 88 l 269 -1 l 254 -1 q 233 60 233 -1 l 233 65 q 249 132 233 132 l 269 126 q 319 385 319 258 l 157 307 l 111 271 l 96 271 q 0 369 58 271 l 0 379 q 46 394 17 394 l 331 488 q 340 617 340 517 q 310 797 340 729 l 304 838 l 310 843 l 315 843 q 361 833 325 833 q 426 740 426 797 l 422 714 l 426 714 q 503 761 475 761 l 528 761 q 585 699 585 761 q 497 524 585 600 l 497 518 l 549 524 l 600 524 q 619 869 600 790 l 610 879 q 493 822 567 867 q 438 813 474 813 l 422 813 l 392 838 q 554 967 507 967 m 401 581 l 407 575 l 407 565 l 396 508 l 396 503 l 422 503 q 468 611 468 567 l 463 626 q 401 581 401 618 m 519 1171 q 649 1110 556 1171 q 707 1094 682 1094 q 806 1171 753 1094 l 811 1171 l 811 1164 q 669 1049 739 1049 q 578 1092 636 1049 q 499 1113 536 1113 l 497 1113 q 394 1046 419 1113 q 369 1031 382 1031 l 365 1031 q 314 1076 314 1040 l 314 1088 q 321 1106 314 1104 l 342 1106 l 344 1103 l 347 1103 q 339 1081 339 1092 l 339 1071 q 365 1049 344 1049 q 397 1099 378 1049 q 519 1171 457 1171 m 489 1101 l 499 1101 q 614 1044 544 1101 l 643 1042 l 651 1042 q 763 1085 708 1042 l 765 1085 l 765 1083 q 631 999 728 1025 l 606 994 q 519 1040 532 1017 q 453 1064 483 1063 l 408 1053 l 408 1058 q 489 1101 440 1101 z "},"":{"ha":824,"x_min":7,"x_max":942,"o":"m 561 1008 l 596 1008 q 733 894 697 1008 l 739 879 q 697 683 708 790 l 693 683 l 697 658 l 688 617 l 693 611 l 688 586 l 688 571 l 693 575 l 850 575 q 942 472 906 575 q 921 457 942 457 l 708 478 q 688 457 692 472 l 697 364 l 693 349 l 703 324 l 713 61 l 713 50 q 688 -1 713 10 q 433 276 433 213 l 439 282 l 444 282 q 611 200 592 200 l 617 200 l 617 210 l 622 210 l 617 272 l 617 364 l 607 421 l 607 478 q 408 421 408 451 l 408 415 l 414 390 l 403 344 l 408 324 l 399 303 l 403 297 q 292 50 369 129 l 276 40 l 261 40 q 240 101 240 40 l 240 107 q 256 174 240 174 l 276 168 q 326 426 326 300 l 164 349 l 118 313 l 103 313 q 7 411 65 313 l 7 421 q 53 436 24 436 l 338 529 q 347 658 347 558 q 317 839 347 771 l 311 879 l 317 885 l 322 885 q 368 875 332 875 q 433 782 433 839 l 429 756 l 433 756 q 510 803 482 803 l 535 803 q 592 740 592 803 q 504 565 592 642 l 504 560 l 556 565 l 607 565 q 626 911 607 832 l 617 921 q 500 864 574 908 q 444 854 481 854 l 429 854 l 399 879 q 561 1008 514 1008 m 408 622 l 414 617 l 414 607 l 403 550 l 403 544 l 429 544 q 475 653 475 608 l 469 668 q 408 622 408 660 m 499 1146 q 406 940 439 974 q 322 907 372 907 q 239 940 274 907 q 204 1024 204 974 q 239 1107 204 1072 q 322 1142 274 1142 q 404 1107 369 1142 q 499 1146 439 1072 m 386 1024 q 378 1058 386 1050 q 322 1089 369 1067 q 276 1070 294 1089 q 257 1024 257 1051 q 276 977 257 996 q 322 958 294 958 q 368 976 350 958 q 386 1024 386 994 z "},"":{"ha":603,"x_min":26,"x_max":547,"o":"m 125 932 l 114 863 q 203 689 203 739 q 413 750 401 713 l 293 796 l 301 817 l 313 817 q 547 733 540 808 q 340 571 547 656 l 217 560 l 206 547 l 194 500 l 164 193 l 175 193 l 450 379 q 483 438 458 438 q 532 296 532 357 q 246 65 263 122 l 169 -28 q 26 215 26 7 l 82 667 q 26 851 26 764 q 125 932 26 932 m 247 -89 q 107 -269 247 -118 l 69 -243 q 131 -161 131 -178 q 107 -131 131 -146 q 39 -99 83 -115 q 101 -25 79 -51 q 160 51 140 21 l 197 51 l 157 -6 q 228 -54 208 -35 q 247 -89 247 -74 z "},"":{"ha":786,"x_min":-10,"x_max":800,"o":"m 249 1083 l 289 1083 q 401 1029 363 1083 l 401 1011 q 336 856 401 981 l 547 671 q 800 515 750 576 l 800 497 q 765 479 794 479 l 742 479 q 489 575 535 479 q 331 778 354 760 q 243 635 303 778 q 214 611 226 611 q 289 539 289 557 l 296 521 l 249 342 l 249 318 l 254 318 q 396 557 396 411 l 401 563 l 413 563 q 489 467 489 535 l 489 443 q 249 204 457 333 l 243 197 l 243 192 q 354 114 253 114 l 372 114 q 531 174 531 114 q 560 240 542 174 l 554 246 l 560 288 l 560 336 l 565 336 q 665 114 622 283 l 665 54 q 342 -6 665 10 q 172 96 206 -6 l 149 186 l 131 174 l 72 174 l 43 186 l 43 197 q 154 264 63 219 l 161 293 l 167 508 l 161 508 q 25 353 86 396 l 8 353 l -10 371 q 38 492 -10 492 q 267 1018 197 696 q 231 1071 231 1039 l 249 1083 m 649 1097 q 678 1076 678 1094 l 678 1069 l 496 897 l 481 897 l 467 911 l 467 953 q 649 1097 467 1067 z "},"":{"ha":826,"x_min":6,"x_max":815,"o":"m 264 1047 l 304 1047 q 417 993 378 1047 l 417 975 q 351 819 417 944 l 563 635 q 815 479 765 540 l 815 461 q 781 443 810 443 l 757 443 q 504 539 550 443 q 346 742 369 724 q 258 599 318 742 q 229 575 242 575 q 304 503 304 521 l 311 485 l 264 306 l 264 282 l 269 282 q 411 521 411 375 l 417 526 l 428 526 q 504 431 504 499 l 504 407 q 264 168 472 297 l 258 161 l 258 156 q 369 78 268 78 l 388 78 q 546 138 546 78 q 575 204 557 138 l 569 210 l 575 251 l 575 300 l 581 300 q 681 78 638 247 l 681 18 q 357 -42 681 -26 q 188 60 221 -42 l 164 150 l 146 138 l 88 138 l 58 150 l 58 161 q 169 228 78 183 l 176 257 l 182 472 l 176 472 q 40 317 101 360 l 24 317 l 6 335 q 53 456 6 456 q 282 982 213 660 q 246 1035 246 1003 l 264 1047 m 43 1065 q 207 908 207 1032 l 207 864 l 194 849 l 181 849 l 17 1035 l 17 1043 q 43 1065 17 1061 z "},"":{"ha":835,"x_min":7,"x_max":817,"o":"m 265 1015 l 306 1015 q 418 961 379 1015 l 418 943 q 353 788 418 913 l 564 603 q 817 447 767 508 l 817 429 q 782 411 811 411 l 758 411 q 506 507 551 411 q 347 710 371 692 q 260 567 319 710 q 231 543 243 543 q 306 471 306 489 l 313 453 l 265 274 l 265 250 l 271 250 q 413 489 413 343 l 418 494 l 429 494 q 506 399 506 467 l 506 375 q 265 136 474 265 l 260 129 l 260 124 q 371 46 269 46 l 389 46 q 547 106 547 46 q 576 172 558 106 l 571 178 l 576 219 l 576 268 l 582 268 q 682 46 639 215 l 682 -14 q 358 -74 682 -58 q 189 28 222 -74 l 165 118 l 147 106 l 89 106 l 60 118 l 60 129 q 171 196 79 151 l 178 225 l 183 440 l 178 440 q 42 285 103 328 l 25 285 l 7 303 q 54 424 7 424 q 283 950 214 628 q 247 1003 247 971 l 265 1015 m 267 1349 l 267 1343 l 283 1343 q 511 1176 511 1283 l 506 1176 l 517 1149 q 494 1121 506 1124 l 483 1121 q 333 1243 449 1121 l 278 1276 l 261 1276 q 139 1154 233 1154 q 33 1199 53 1154 q 178 1321 178 1214 l 267 1349 z "},"":{"ha":838,"x_min":6,"x_max":815,"o":"m 264 1010 l 304 1010 q 417 956 378 1010 l 417 938 q 351 782 417 907 l 563 597 q 815 442 765 503 l 815 424 q 781 406 810 406 l 757 406 q 504 501 550 406 q 346 704 369 686 q 258 561 318 704 q 229 538 242 538 q 304 465 304 483 l 311 447 l 264 268 l 264 244 l 269 244 q 411 483 411 338 l 417 489 l 428 489 q 504 393 504 461 l 504 369 q 264 131 472 260 l 258 124 l 258 118 q 369 40 268 40 l 388 40 q 546 100 546 40 q 575 167 557 100 l 569 172 l 575 214 l 575 263 l 581 263 q 681 40 638 210 l 681 -19 q 357 -79 681 -64 q 188 22 221 -79 l 164 113 l 146 100 l 88 100 l 58 113 l 58 124 q 169 190 78 146 l 176 219 l 182 435 l 176 435 q 40 279 101 322 l 24 279 l 6 297 q 53 418 6 418 q 282 944 213 622 q 246 997 246 965 l 264 1010 m 300 1246 l 303 1246 q 378 1206 343 1246 l 378 1194 l 351 1111 q 363 1093 363 1108 q 289 1075 363 1078 l 285 1078 q 243 1057 243 1078 q 229 1047 243 1051 q 188 1133 199 1047 l 188 1160 q 229 1236 188 1206 l 240 1236 l 240 1231 l 236 1213 l 236 1210 l 240 1210 q 300 1246 274 1246 m 243 1154 l 247 1151 l 247 1149 l 243 1136 l 243 1133 q 292 1188 292 1140 l 243 1157 l 243 1154 m 535 1250 l 538 1250 q 613 1210 578 1250 l 613 1199 l 586 1115 q 597 1097 597 1113 q 524 1079 597 1082 l 519 1082 q 478 1061 478 1082 q 464 1051 478 1056 q 422 1138 433 1051 l 422 1164 q 464 1240 422 1210 l 475 1240 l 475 1235 l 471 1217 l 471 1214 l 475 1214 q 535 1250 508 1250 m 478 1158 l 482 1156 l 482 1153 l 478 1140 l 478 1138 q 526 1192 526 1144 l 478 1161 l 478 1158 z "},"":{"ha":792,"x_min":0,"x_max":783,"o":"m 531 942 q 615 858 554 942 q 506 794 615 822 l 514 757 l 510 650 l 518 603 l 492 501 l 492 483 q 569 613 544 533 l 543 640 l 569 668 l 578 668 q 679 557 636 668 q 501 318 656 468 l 467 263 l 460 197 l 672 215 q 783 104 711 215 l 783 96 q 732 49 758 49 l 519 86 l 460 86 q 83 32 321 86 l 75 32 q 0 114 0 31 q 247 169 176 169 l 247 178 q 219 336 224 292 q 151 290 188 290 q 110 400 110 290 q 151 521 118 521 q 186 474 160 474 q 258 721 244 474 l 250 721 l 207 711 q 131 858 136 794 l 139 868 l 182 858 l 199 858 l 522 942 l 531 942 m 386 776 q 343 749 386 754 l 347 631 q 322 567 347 600 l 322 557 l 407 585 l 403 757 l 386 776 m 399 549 q 331 428 399 521 l 331 419 l 339 410 l 339 400 l 322 346 q 407 493 407 346 l 407 549 l 399 549 m 331 253 l 324 188 l 332 197 l 383 197 l 390 290 q 331 253 331 268 m 493 1115 q 522 1094 522 1113 l 522 1088 l 340 915 l 325 915 l 311 929 l 311 971 q 493 1115 311 1085 z "},"":{"ha":797,"x_min":0,"x_max":783,"o":"m 531 942 q 615 858 554 942 q 506 794 615 822 l 514 757 l 510 650 l 518 603 l 492 501 l 492 483 q 569 613 544 533 l 543 640 l 569 668 l 578 668 q 679 557 636 668 q 501 318 656 468 l 467 263 l 460 197 l 672 215 q 783 104 711 215 l 783 96 q 732 49 758 49 l 519 86 l 460 86 q 83 32 321 86 l 75 32 q 0 114 0 31 q 247 169 176 169 l 247 178 q 219 336 224 292 q 151 290 188 290 q 110 400 110 290 q 151 521 118 521 q 186 474 160 474 q 258 721 244 474 l 250 721 l 207 711 q 131 858 136 794 l 139 868 l 182 858 l 199 858 l 522 942 l 531 942 m 386 776 q 343 749 386 754 l 347 631 q 322 567 347 600 l 322 557 l 407 585 l 403 757 l 386 776 m 399 549 q 331 428 399 521 l 331 419 l 339 410 l 339 400 l 322 346 q 407 493 407 346 l 407 549 l 399 549 m 331 253 l 324 188 l 332 197 l 383 197 l 390 290 q 331 253 331 268 m 149 1133 q 313 976 313 1100 l 313 932 l 300 917 l 286 917 l 122 1103 l 122 1111 q 149 1133 122 1129 z "},"":{"ha":792,"x_min":0,"x_max":783,"o":"m 531 942 q 615 858 554 942 q 506 794 615 822 l 514 757 l 510 650 l 518 603 l 492 501 l 492 483 q 569 613 544 533 l 543 640 l 569 668 l 578 668 q 679 557 636 668 q 501 318 656 468 l 467 263 l 460 197 l 672 215 q 783 104 711 215 l 783 96 q 732 49 758 49 l 519 86 l 460 86 q 83 32 321 86 l 75 32 q 0 114 0 31 q 247 169 176 169 l 247 178 q 219 336 224 292 q 151 290 188 290 q 110 400 110 290 q 151 521 118 521 q 186 474 160 474 q 258 721 244 474 l 250 721 l 207 711 q 131 858 136 794 l 139 868 l 182 858 l 199 858 l 522 942 l 531 942 m 386 776 q 343 749 386 754 l 347 631 q 322 567 347 600 l 322 557 l 407 585 l 403 757 l 386 776 m 399 549 q 331 428 399 521 l 331 419 l 339 410 l 339 400 l 322 346 q 407 493 407 346 l 407 549 l 399 549 m 331 253 l 324 188 l 332 197 l 383 197 l 390 290 q 331 253 331 268 m 368 1160 l 368 1154 l 385 1154 q 613 988 613 1094 l 607 988 l 618 960 q 596 932 607 935 l 585 932 q 435 1054 550 932 l 379 1088 l 363 1088 q 240 965 335 965 q 135 1010 154 965 q 279 1132 279 1025 l 368 1160 z "},"":{"ha":815,"x_min":0,"x_max":783,"o":"m 531 942 q 615 858 554 942 q 506 794 615 822 l 514 757 l 510 650 l 518 603 l 492 501 l 492 483 q 569 613 544 533 l 543 640 l 569 668 l 578 668 q 679 557 636 668 q 501 318 656 468 l 467 263 l 460 197 l 672 215 q 783 104 711 215 l 783 96 q 732 49 758 49 l 519 86 l 460 86 q 83 32 321 86 l 75 32 q 0 114 0 31 q 247 169 176 169 l 247 178 q 219 336 224 292 q 151 290 188 290 q 110 400 110 290 q 151 521 118 521 q 186 474 160 474 q 258 721 244 474 l 250 721 l 207 711 q 131 858 136 794 l 139 868 l 182 858 l 199 858 l 522 942 l 531 942 m 386 776 q 343 749 386 754 l 347 631 q 322 567 347 600 l 322 557 l 407 585 l 403 757 l 386 776 m 399 549 q 331 428 399 521 l 331 419 l 339 410 l 339 400 l 322 346 q 407 493 407 346 l 407 549 l 399 549 m 331 253 l 324 188 l 332 197 l 383 197 l 390 290 q 331 253 331 268 m 247 1156 l 250 1156 q 325 1115 290 1156 l 325 1104 l 299 1021 q 310 1003 310 1018 q 236 985 310 988 l 232 988 q 190 967 190 988 q 176 957 190 961 q 135 1043 146 957 l 135 1069 q 176 1146 135 1115 l 188 1146 l 188 1140 l 183 1122 l 183 1119 l 188 1119 q 247 1156 221 1156 m 190 1064 l 194 1061 l 194 1058 l 190 1046 l 190 1043 q 239 1097 239 1050 l 190 1067 l 190 1064 m 482 1160 l 485 1160 q 560 1119 525 1160 l 560 1108 l 533 1025 q 544 1007 544 1022 q 471 989 544 992 l 467 992 q 425 971 425 992 q 411 961 425 965 q 369 1047 381 961 l 369 1074 q 411 1150 369 1119 l 422 1150 l 422 1144 l 418 1126 l 418 1124 l 422 1124 q 482 1160 456 1160 m 425 1068 l 429 1065 l 429 1063 l 425 1050 l 425 1047 q 474 1101 474 1054 l 425 1071 l 425 1068 z "},"":{"ha":800,"x_min":-22,"x_max":829,"o":"m -6 643 q 69 726 28 643 q 65 724 68 725 l 121 833 l 121 851 l 126 875 l 114 947 l 133 953 q 251 864 189 953 l 251 851 q 226 804 251 831 q 308 768 242 786 l 328 750 l 340 750 q 453 888 357 803 q 497 917 463 917 l 510 917 q 597 828 519 917 l 528 465 l 528 424 l 522 417 l 528 411 l 515 340 l 515 286 l 510 263 q 622 150 528 150 l 647 150 l 647 168 q 585 382 628 267 l 590 388 l 603 388 q 779 150 696 282 q 829 78 829 115 q 647 1 829 1 q 458 90 529 1 q 396 310 396 201 l 428 697 l 415 697 q 365 614 365 685 q 303 281 303 514 l 258 150 q 108 -11 163 -11 l 96 -11 q 76 25 76 -6 l 76 31 q 114 150 76 150 q 233 590 178 150 l 233 703 l 214 744 l 208 744 q 101 625 194 692 l 89 625 l 89 619 l 111 599 l -22 600 l -14 639 l -6 643 m 242 1172 q 371 1111 278 1172 q 429 1096 404 1096 q 528 1172 475 1096 l 533 1172 l 533 1165 q 392 1050 461 1050 q 300 1093 358 1050 q 221 1114 258 1114 l 219 1114 q 117 1047 142 1114 q 92 1032 104 1032 l 88 1032 q 36 1078 36 1042 l 36 1089 q 43 1107 36 1106 l 64 1107 l 67 1104 l 69 1104 q 61 1082 61 1093 l 61 1072 q 88 1050 67 1050 q 119 1100 100 1050 q 242 1172 179 1172 m 211 1103 l 221 1103 q 336 1046 267 1103 l 365 1043 l 374 1043 q 485 1086 431 1043 l 488 1086 l 488 1085 q 353 1000 450 1026 l 328 996 q 242 1042 254 1018 q 175 1065 206 1064 l 131 1054 l 131 1060 q 211 1103 163 1103 z "},"":{"ha":724,"x_min":-7,"x_max":683,"o":"m 400 882 l 461 882 q 675 533 675 814 l 683 368 q 476 -79 683 -79 q 285 -21 382 -65 l 239 -37 q 17 128 17 15 q -7 244 1 128 q 93 750 -7 358 l 100 758 l 108 758 q 185 600 185 671 l 115 468 l 131 468 q 300 558 300 528 l 307 600 l 307 642 l 269 633 l 261 642 l 261 650 l 276 708 l 231 692 l 224 692 l 193 725 q 400 882 293 882 m 339 733 l 339 717 l 361 717 q 415 658 415 717 l 415 625 q 515 518 515 586 q 400 460 515 485 l 369 343 q 553 293 457 343 l 561 293 l 561 542 q 492 774 544 774 l 476 774 l 339 733 m 178 360 l 108 376 q 69 236 85 347 q 161 94 69 153 l 161 103 q 93 244 93 208 l 108 244 l 200 153 q 254 261 213 153 q 208 285 208 271 l 208 293 q 276 335 208 308 l 285 410 q 178 360 215 360 m 261 128 l 261 119 l 276 103 l 285 103 l 307 119 l 322 119 l 322 103 l 315 94 l 315 86 q 392 61 354 61 l 438 61 q 546 153 546 78 l 546 161 q 369 244 511 161 q 307 161 344 240 l 261 128 m 606 1176 q 635 1156 635 1174 l 635 1149 l 453 976 l 438 976 l 424 990 l 424 1032 q 606 1176 424 1146 z "},"":{"ha":717,"x_min":-1,"x_max":689,"o":"m 406 926 l 467 926 q 681 578 681 858 l 689 413 q 482 -35 689 -35 q 290 24 388 -21 l 244 7 q 22 172 22 60 q -1 289 7 172 q 99 794 -1 403 l 106 803 l 114 803 q 190 644 190 715 l 121 513 l 136 513 q 306 603 306 572 l 313 644 l 313 686 l 275 678 l 267 686 l 267 694 l 282 753 l 236 736 l 229 736 l 199 769 q 406 926 299 926 m 344 778 l 344 761 l 367 761 q 421 703 421 761 l 421 669 q 521 563 521 631 q 406 504 521 529 l 375 388 q 558 338 463 388 l 567 338 l 567 586 q 497 818 550 818 l 482 818 l 344 778 m 183 404 l 114 421 q 75 281 90 392 q 167 139 75 197 l 167 147 q 99 289 99 253 l 114 289 l 206 197 q 260 306 218 197 q 214 329 214 315 l 214 338 q 282 379 214 353 l 290 454 q 183 404 221 404 m 267 172 l 267 164 l 282 147 l 290 147 l 313 164 l 328 164 l 328 147 l 321 139 l 321 131 q 397 106 360 106 l 443 106 q 551 197 551 122 l 551 206 q 375 289 517 206 q 313 206 350 285 l 267 172 m 188 1169 q 351 1013 351 1136 l 351 968 l 339 953 l 325 953 l 161 1139 l 161 1147 q 188 1169 161 1165 z "},"":{"ha":711,"x_min":11,"x_max":701,"o":"m 418 947 l 479 947 q 693 599 693 879 l 701 433 q 494 -14 701 -14 q 303 44 400 0 l 257 28 q 35 193 35 81 q 11 310 19 193 q 111 815 11 424 l 118 824 l 126 824 q 203 665 203 736 l 133 533 l 149 533 q 318 624 318 593 l 325 665 l 325 707 l 288 699 l 279 707 l 279 715 l 294 774 l 249 757 l 242 757 l 211 790 q 418 947 311 947 m 357 799 l 357 782 l 379 782 q 433 724 433 782 l 433 690 q 533 583 533 651 q 418 525 533 550 l 388 408 q 571 358 475 408 l 579 358 l 579 607 q 510 839 563 839 l 494 839 l 357 799 m 196 425 l 126 442 q 88 301 103 413 q 179 160 88 218 l 179 168 q 111 310 111 274 l 126 310 l 218 218 q 272 326 231 218 q 226 350 226 336 l 226 358 q 294 400 226 374 l 303 475 q 196 425 233 425 m 279 193 l 279 185 l 294 168 l 303 168 l 325 185 l 340 185 l 340 168 l 333 160 l 333 151 q 410 126 372 126 l 456 126 q 564 218 564 143 l 564 226 q 388 310 529 226 q 325 226 363 306 l 279 193 m 351 1160 l 351 1154 l 368 1154 q 596 988 596 1094 l 590 988 l 601 960 q 579 932 590 935 l 568 932 q 418 1054 533 932 l 363 1088 l 346 1088 q 224 965 318 965 q 118 1010 138 965 q 263 1132 263 1025 l 351 1160 z "},"":{"ha":739,"x_min":19,"x_max":710,"o":"m 426 967 l 488 967 q 701 618 701 899 l 710 453 q 503 6 710 6 q 311 64 408 19 l 265 47 q 43 213 43 100 q 19 329 28 213 q 119 835 19 443 l 126 843 l 135 843 q 211 685 211 756 l 142 553 l 157 553 q 326 643 326 613 l 333 685 l 333 726 l 296 718 l 288 726 l 288 735 l 303 793 l 257 776 l 250 776 l 219 810 q 426 967 319 967 m 365 818 l 365 801 l 388 801 q 442 743 442 801 l 442 710 q 542 603 542 671 q 426 544 542 569 l 396 428 q 579 378 483 428 l 588 378 l 588 626 q 518 858 571 858 l 503 858 l 365 818 m 204 444 l 135 461 q 96 321 111 432 q 188 179 96 238 l 188 188 q 119 329 119 293 l 135 329 l 226 238 q 281 346 239 238 q 235 369 235 356 l 235 378 q 303 419 235 393 l 311 494 q 204 444 242 444 m 288 213 l 288 204 l 303 188 l 311 188 l 333 204 l 349 204 l 349 188 l 342 179 l 342 171 q 418 146 381 146 l 464 146 q 572 238 572 163 l 572 246 q 396 329 538 246 q 333 246 371 325 l 288 213 m 304 1203 l 307 1203 q 382 1163 347 1203 l 382 1151 l 356 1068 q 367 1050 367 1065 q 293 1032 367 1035 l 289 1035 q 247 1014 247 1035 q 233 1004 247 1008 q 192 1090 203 1004 l 192 1117 q 233 1193 192 1163 l 244 1193 l 244 1188 l 240 1169 l 240 1167 l 244 1167 q 304 1203 278 1203 m 247 1111 l 251 1108 l 251 1106 l 247 1093 l 247 1090 q 296 1144 296 1097 l 247 1114 l 247 1111 m 539 1207 l 542 1207 q 617 1167 582 1207 l 617 1156 l 590 1072 q 601 1054 601 1069 q 528 1036 601 1039 l 524 1039 q 482 1018 482 1039 q 468 1008 482 1013 q 426 1094 438 1008 l 426 1121 q 468 1197 426 1167 l 479 1197 l 479 1192 l 475 1174 l 475 1171 l 479 1171 q 539 1207 513 1207 m 482 1115 l 486 1113 l 486 1110 l 482 1097 l 482 1094 q 531 1149 531 1101 l 482 1118 l 482 1115 z "},"":{"ha":760,"x_min":21,"x_max":711,"o":"m 428 981 l 489 981 q 703 632 703 913 l 711 467 q 504 19 711 19 q 313 78 410 33 l 267 61 q 44 226 44 114 q 21 343 29 226 q 121 849 21 457 l 128 857 l 136 857 q 213 699 213 769 l 143 567 l 158 567 q 328 657 328 626 l 335 699 l 335 740 l 297 732 l 289 740 l 289 749 l 304 807 l 258 790 l 251 790 l 221 824 q 428 981 321 981 m 367 832 l 367 815 l 389 815 q 443 757 443 815 l 443 724 q 543 617 543 685 q 428 558 543 583 l 397 442 q 581 392 485 442 l 589 392 l 589 640 q 519 872 572 872 l 504 872 l 367 832 m 206 458 l 136 475 q 97 335 113 446 q 189 193 97 251 l 189 201 q 121 343 121 307 l 136 343 l 228 251 q 282 360 240 251 q 236 383 236 369 l 236 392 q 304 433 236 407 l 313 508 q 206 458 243 458 m 289 226 l 289 218 l 304 201 l 313 201 l 335 218 l 350 218 l 350 201 l 343 193 l 343 185 q 419 160 382 160 l 465 160 q 574 251 574 176 l 574 260 q 397 343 539 260 q 335 260 372 339 l 289 226 m 376 1183 q 506 1122 413 1183 q 564 1107 539 1107 q 663 1183 610 1107 l 668 1183 l 668 1176 q 526 1061 596 1061 q 435 1104 493 1061 q 356 1125 393 1125 l 354 1125 q 251 1058 276 1125 q 226 1043 239 1043 l 222 1043 q 171 1089 171 1053 l 171 1100 q 178 1118 171 1117 l 199 1118 l 201 1115 l 204 1115 q 196 1093 196 1104 l 196 1083 q 222 1061 201 1061 q 254 1111 235 1061 q 376 1183 314 1183 m 346 1114 l 356 1114 q 471 1057 401 1114 l 500 1054 l 508 1054 q 619 1097 565 1054 l 622 1097 l 622 1096 q 488 1011 585 1038 l 463 1007 q 376 1053 389 1029 q 310 1076 340 1075 l 265 1065 l 265 1071 q 346 1114 297 1114 z "},"":{"ha":789,"x_min":-4,"x_max":811,"o":"m 457 900 l 463 900 q 551 800 524 900 l 551 550 l 540 489 l 540 478 q 635 606 563 478 l 635 622 q 607 633 607 622 l 607 644 q 657 672 621 672 q 751 578 697 672 l 751 572 q 546 306 751 503 q 518 206 546 232 l 529 194 l 557 194 q 782 79 733 153 l 797 49 q 783 -8 811 13 q 474 78 663 78 l 424 78 q 90 -18 160 78 q -4 115 17 43 q 79 139 17 126 q 229 178 118 161 q 190 306 190 240 l 179 306 q 101 250 133 250 q 46 356 46 250 q 79 483 46 401 l 90 483 l 113 461 l 107 428 l 113 428 q 201 517 201 442 q 285 733 232 733 l 290 739 l 307 706 l 296 656 l 296 583 l 279 517 l 285 517 l 385 561 l 401 561 l 413 550 l 413 539 q 290 411 290 432 l 290 389 l 296 361 l 290 361 l 296 344 l 290 294 l 296 294 q 440 372 440 346 l 451 706 l 446 783 l 440 783 l 407 778 q 396 839 396 800 l 396 844 q 457 900 419 900 m 296 200 l 296 189 l 401 200 l 451 200 l 446 267 q 307 239 407 239 q 296 200 307 213 m 514 1081 q 543 1060 543 1078 l 543 1053 l 361 881 l 346 881 l 332 894 l 332 936 q 514 1081 332 1050 z "},"":{"ha":832,"x_min":19,"x_max":835,"o":"m 481 900 l 486 900 q 575 800 547 900 l 575 550 l 564 489 l 564 478 q 658 606 586 478 l 658 622 q 631 633 631 622 l 631 644 q 681 672 644 672 q 775 578 721 672 l 775 572 q 569 306 775 503 q 542 206 569 232 l 553 194 l 581 194 q 806 79 757 153 l 821 49 q 807 -8 835 13 q 497 78 686 78 l 447 78 q 114 -18 183 78 q 19 115 40 43 q 103 139 40 126 q 253 178 142 161 q 214 306 214 240 l 203 306 q 125 250 157 250 q 69 356 69 250 q 103 483 69 401 l 114 483 l 136 461 l 131 428 l 136 428 q 225 517 225 442 q 308 733 256 733 l 314 739 l 331 706 l 319 656 l 319 583 l 303 517 l 308 517 l 408 561 l 425 561 l 436 550 l 436 539 q 314 411 314 432 l 314 389 l 319 361 l 314 361 l 319 344 l 314 294 l 319 294 q 464 372 464 346 l 475 706 l 469 783 l 464 783 l 431 778 q 419 839 419 800 l 419 844 q 481 900 443 900 m 319 200 l 319 189 l 425 200 l 475 200 l 469 267 q 331 239 431 239 q 319 200 331 213 m 210 1026 q 374 869 374 993 l 374 825 l 361 810 l 347 810 l 183 996 l 183 1004 q 210 1026 183 1022 z "},"":{"ha":832,"x_min":7,"x_max":822,"o":"m 468 903 l 474 903 q 563 803 535 903 l 563 553 l 551 492 l 551 481 q 646 608 574 481 l 646 625 q 618 636 618 625 l 618 647 q 668 675 632 675 q 763 581 708 675 l 763 575 q 557 308 763 506 q 529 208 557 235 l 540 197 l 568 197 q 793 82 744 156 l 808 51 q 794 -6 822 15 q 485 81 674 81 l 435 81 q 101 -15 171 81 q 7 118 28 46 q 90 142 28 129 q 240 181 129 164 q 201 308 201 243 l 190 308 q 113 253 144 253 q 57 358 57 253 q 90 486 57 404 l 101 486 l 124 464 l 118 431 l 124 431 q 213 519 213 444 q 296 736 243 736 l 301 742 l 318 708 l 307 658 l 307 586 l 290 519 l 296 519 l 396 564 l 413 564 l 424 553 l 424 542 q 301 414 301 435 l 301 392 l 307 364 l 301 364 l 307 347 l 301 297 l 307 297 q 451 375 451 349 l 463 708 l 457 786 l 451 786 l 418 781 q 407 842 407 803 l 407 847 q 468 903 431 903 m 307 203 l 307 192 l 413 203 l 463 203 l 457 269 q 318 242 418 242 q 307 203 318 215 m 450 1113 l 450 1107 l 467 1107 q 694 940 694 1047 l 689 940 l 700 913 q 678 885 689 888 l 667 885 q 517 1007 632 885 l 461 1040 l 444 1040 q 322 918 417 918 q 217 963 236 918 q 361 1085 361 978 l 450 1113 z "},"":{"ha":825,"x_min":19,"x_max":835,"o":"m 481 900 l 486 900 q 575 800 547 900 l 575 550 l 564 489 l 564 478 q 658 606 586 478 l 658 622 q 631 633 631 622 l 631 644 q 681 672 644 672 q 775 578 721 672 l 775 572 q 569 306 775 503 q 542 206 569 232 l 553 194 l 581 194 q 806 79 757 153 l 821 49 q 807 -8 835 13 q 497 78 686 78 l 447 78 q 114 -18 183 78 q 19 115 40 43 q 103 139 40 126 q 253 178 142 161 q 214 306 214 240 l 203 306 q 125 250 157 250 q 69 356 69 250 q 103 483 69 401 l 114 483 l 136 461 l 131 428 l 136 428 q 225 517 225 442 q 308 733 256 733 l 314 739 l 331 706 l 319 656 l 319 583 l 303 517 l 308 517 l 408 561 l 425 561 l 436 550 l 436 539 q 314 411 314 432 l 314 389 l 319 361 l 314 361 l 319 344 l 314 294 l 319 294 q 464 372 464 346 l 475 706 l 469 783 l 464 783 l 431 778 q 419 839 419 800 l 419 844 q 481 900 443 900 m 319 200 l 319 189 l 425 200 l 475 200 l 469 267 q 331 239 431 239 q 319 200 331 213 m 306 1108 l 308 1108 q 383 1068 349 1108 l 383 1057 l 357 974 q 368 956 368 971 q 294 938 368 940 l 290 940 q 249 919 249 940 q 235 910 249 914 q 193 996 204 910 l 193 1022 q 235 1099 193 1068 l 246 1099 l 246 1093 l 242 1075 l 242 1072 l 246 1072 q 306 1108 279 1108 m 249 1017 l 253 1014 l 253 1011 l 249 999 l 249 996 q 297 1050 297 1003 l 249 1019 l 249 1017 m 540 1113 l 543 1113 q 618 1072 583 1113 l 618 1061 l 592 978 q 603 960 603 975 q 529 942 603 944 l 525 944 q 483 924 483 944 q 469 914 483 918 q 428 1000 439 914 l 428 1026 q 469 1103 428 1072 l 481 1103 l 481 1097 l 476 1079 l 476 1076 l 481 1076 q 540 1113 514 1113 m 483 1021 l 488 1018 l 488 1015 l 483 1003 l 483 1000 q 532 1054 532 1007 l 483 1024 l 483 1021 z "},"":{"ha":704,"x_min":-6,"x_max":665,"o":"m 382 439 q 369 -60 415 -60 l 357 -60 q 278 217 278 106 l 289 318 l 268 682 l 275 756 l 71 621 l 64 621 q -6 756 -6 644 q 268 867 131 826 l 268 918 l 263 918 l 268 985 l 271 1006 q 249 1142 271 1057 l 249 1175 l 260 1193 q 365 1090 319 1193 l 358 1040 l 358 1031 l 349 976 l 344 883 l 560 935 l 567 935 q 665 825 611 935 q 607 756 665 756 q 432 781 513 781 l 368 765 l 374 722 l 382 439 z "},"":{"ha":435,"x_min":4,"x_max":418,"o":"m 249 1188 l 256 1188 q 418 1104 343 1188 l 418 1081 l 361 907 q 385 869 385 901 q 225 832 385 838 l 215 838 q 125 794 125 838 q 94 774 125 782 q 4 953 28 774 l 4 1008 q 94 1167 4 1104 l 119 1167 l 119 1156 l 110 1118 l 110 1113 l 119 1113 q 249 1188 192 1188 m 125 996 l 135 990 l 135 985 l 125 958 l 125 953 q 231 1065 231 968 l 125 1003 l 125 996 z "},"":{"ha":565,"x_min":-69,"x_max":518,"o":"m 96 956 l 85 886 q 174 713 174 763 q 383 774 372 736 l 264 819 l 272 840 l 283 840 q 518 757 511 832 q 311 594 518 679 l 188 583 l 176 571 l 165 524 l 135 217 l 146 217 l 421 403 q 454 461 429 461 q 503 319 503 381 q 217 89 233 146 l 140 -4 q -3 239 -3 31 l 53 690 q -3 875 -3 788 q 96 956 -3 956 m 392 925 l 397 925 q 461 858 435 925 l 461 842 q 372 593 461 761 q 136 110 215 222 q -57 -32 8 -32 l -69 -7 l -69 10 q 167 358 89 204 q 353 825 279 567 l 353 858 l 346 858 l 339 850 l 333 850 l 326 858 l 326 875 q 392 925 353 925 z "},"":{"ha":861,"x_min":-139,"x_max":944,"o":"m 118 1000 q 300 836 300 975 l 300 758 q 156 692 300 715 l 126 703 l 126 736 l 169 824 l 169 868 l 118 968 l 118 1000 m 89 660 q 190 581 114 581 q 249 460 249 488 l 219 372 l 219 361 q 285 185 285 242 l 285 153 l 263 108 l 263 97 q 640 8 346 97 l 814 21 q 944 -47 933 8 l 944 -69 q 749 -190 944 -114 l 293 -26 l 185 -26 q 104 108 126 -26 l 113 118 l 176 118 l 206 229 q 140 417 160 229 l 140 449 q 75 604 75 469 l 75 636 l 89 660 m 293 478 l 376 478 l 404 469 l 432 478 q 529 390 496 478 q 467 335 517 335 l 439 335 l 328 343 l 272 328 l 265 335 l 265 343 l 321 407 l 314 407 q 7 279 38 310 q -42 264 7 264 q -139 343 -107 264 l -139 351 q 83 446 -139 375 q 293 478 219 478 z "},"":{"ha":732,"x_min":43,"x_max":735,"o":"m 431 1051 q 560 965 514 1051 l 565 931 q 478 685 565 899 l 443 657 l 443 644 l 489 644 q 614 586 560 644 l 624 533 l 590 458 l 479 526 l 489 547 l 489 554 q 181 457 249 519 l 151 457 q 99 508 99 464 q 163 679 99 551 l 168 749 l 157 840 l 163 846 l 197 846 q 268 782 268 840 l 268 719 q 232 606 268 675 l 239 606 l 343 628 q 297 771 297 726 l 303 776 l 308 776 q 343 731 343 747 l 361 731 q 419 897 419 838 l 419 908 l 414 914 l 414 919 q 197 868 414 897 q 151 914 151 874 q 431 1051 414 1051 m 428 517 q 576 426 524 517 l 583 390 q 482 133 583 357 l 442 104 l 442 92 l 494 92 q 653 42 576 92 q 653 -210 735 -131 q 424 -42 533 -239 l 431 -36 l 457 -36 q 583 -106 522 -78 q 539 -22 572 -42 l 494 -10 l 494 -3 q 138 -104 217 -39 l 104 -104 q 43 -50 43 -97 q 117 128 43 -6 l 124 200 l 111 296 l 117 301 l 157 301 q 239 235 239 296 l 239 169 q 197 51 239 124 l 206 51 l 326 74 q 272 224 272 178 l 279 229 l 286 229 q 326 182 326 199 l 347 182 q 414 356 414 293 l 414 367 l 408 374 l 408 379 q 157 325 408 356 q 104 374 104 331 q 428 517 408 517 z "},"":{"ha":588,"x_min":88,"x_max":501,"o":"m 332 683 l 339 683 q 501 600 426 683 l 501 576 l 444 403 q 468 365 468 397 q 308 328 468 333 l 299 333 q 208 290 208 333 q 178 269 208 278 q 88 449 111 269 l 88 504 q 178 663 88 600 l 203 663 l 203 651 l 193 614 l 193 608 l 203 608 q 332 683 275 683 m 208 492 l 218 486 l 218 481 l 208 454 l 208 449 q 314 561 314 464 l 208 499 l 208 492 z "},"":{"ha":882,"x_min":63,"x_max":851,"o":"m 851 996 l 851 947 l 732 947 l 732 3 l 654 3 l 654 947 l 497 947 l 497 3 l 418 3 l 418 513 q 158 584 254 518 q 63 754 63 650 q 164 929 63 863 q 433 996 265 996 l 851 996 z "},"":{"ha":792,"x_min":6,"x_max":761,"o":"m 111 33 l 106 33 q 6 128 6 74 l 6 161 l 106 206 l 183 272 l 183 289 l 167 289 q 100 356 122 289 l 100 367 q 328 439 100 388 l 378 444 l 422 444 q 467 372 444 444 l 467 367 q 356 294 467 358 q 211 228 333 274 l 154 53 q 111 33 133 44 m 344 208 q 406 211 376 211 q 489 228 406 228 q 589 500 550 333 l 594 522 q 83 400 413 522 l 78 400 q 56 439 56 410 l 56 450 q 139 561 56 561 l 294 600 l 294 606 q 217 711 236 640 l 217 717 l 228 728 l 272 711 l 300 711 q 328 850 328 711 q 294 1056 328 910 l 311 1078 l 317 1078 q 467 978 381 1078 l 467 944 l 450 911 l 517 922 q 711 806 660 922 l 711 794 q 511 628 626 669 l 511 617 l 539 617 q 761 461 686 617 l 761 456 q 606 217 624 217 l 606 206 q 667 117 667 136 q 622 72 663 72 l 589 72 q 467 89 535 89 l 439 89 q 282 67 364 89 l 344 208 m 106 861 q 139 800 125 853 l 133 783 q 144 767 144 783 l 150 767 q 294 833 244 831 l 300 828 l 300 806 l 194 722 q 128 589 160 668 l 94 578 q 44 689 44 644 l 44 722 q 106 861 44 803 m 500 844 l 461 844 q 433 706 444 844 q 422 667 426 706 l 411 656 l 411 644 q 556 850 521 735 l 500 844 z "},"":{"ha":1088,"x_min":19,"x_max":1049,"o":"m 544 1060 l 604 1060 q 996 822 915 1060 l 1049 688 l 1049 638 q 658 111 1049 260 q 478 85 568 85 q 33 367 138 85 l 19 471 l 19 521 q 329 1015 19 821 q 544 1060 431 1060 m 74 481 q 338 136 74 232 l 453 117 q 900 381 721 117 l 925 443 l 918 443 l 881 431 l 875 431 q 932 661 932 560 l 932 668 q 749 975 932 904 q 617 1000 671 1000 l 565 1000 q 86 600 208 1000 l 74 481 m 536 956 l 550 956 q 615 899 579 956 l 615 881 q 572 801 615 836 l 572 783 q 603 732 596 783 l 603 726 l 589 710 l 544 710 q 399 600 399 689 q 229 233 329 233 q 203 250 203 239 l 203 256 q 350 669 290 332 l 346 710 q 376 869 363 710 q 350 893 350 872 q 394 933 350 918 l 433 910 q 536 956 517 956 m 421 754 q 514 824 514 782 q 528 864 528 836 l 528 875 q 439 818 503 846 l 417 754 l 421 754 m 544 681 q 615 635 583 681 l 615 607 q 478 479 600 575 l 469 406 l 469 400 q 558 371 524 371 q 682 463 682 386 q 700 549 692 463 l 704 549 q 736 336 736 506 q 589 285 736 313 l 540 285 q 425 428 425 285 l 425 463 q 399 475 399 463 l 399 479 q 429 503 399 494 l 429 617 q 417 635 417 617 q 439 664 417 650 q 492 582 492 654 l 492 578 q 540 681 540 631 l 544 681 z "},"":{"ha":1088,"x_min":19,"x_max":1049,"o":"m 544 1060 l 604 1060 q 996 822 915 1060 l 1049 688 l 1049 638 q 658 111 1049 260 q 478 85 568 85 q 33 367 138 85 l 19 471 l 19 521 q 329 1015 19 821 q 544 1060 431 1060 m 74 481 q 338 136 74 232 l 453 117 q 900 381 721 117 l 925 443 l 918 443 l 881 431 l 875 431 q 932 661 932 560 l 932 668 q 749 975 932 904 q 617 1000 671 1000 l 565 1000 q 86 600 208 1000 l 74 481 m 613 876 q 678 761 665 849 l 657 722 q 374 649 613 690 l 308 553 l 304 544 q 404 440 358 465 q 643 475 586 369 q 731 581 656 468 l 736 576 q 625 263 747 494 q 385 299 607 228 l 317 333 q 264 617 158 418 l 289 664 q 260 700 251 683 l 264 707 q 324 717 275 728 l 408 874 q 403 907 390 883 q 454 931 414 928 q 468 781 519 878 l 464 774 q 607 879 571 810 l 613 876 z "},"":{"ha":950,"x_min":28,"x_max":918,"o":"m 289 1179 q 432 1136 404 1179 l 440 1117 q 392 1058 440 1097 l 197 967 q 240 835 233 903 l 242 779 l 240 703 l 235 504 q 213 485 235 493 q 142 586 168 510 q 149 906 156 704 l 139 913 q 76 847 139 892 l 68 847 q 28 921 53 847 l 28 928 q 94 994 28 947 q 271 1113 240 1068 l 271 1132 l 271 1171 l 289 1179 m 826 1079 q 918 994 869 1079 l 918 992 q 835 574 874 669 q 790 533 807 538 q 649 665 697 581 l 638 693 l 649 696 q 761 646 719 649 q 824 919 785 646 l 826 992 l 831 1004 l 826 1008 l 824 1008 q 682 943 788 1008 l 649 933 l 642 933 q 558 994 558 951 l 649 1025 q 826 1079 753 1079 m 460 994 l 471 994 q 510 940 496 978 l 507 924 l 507 896 q 543 964 528 921 l 554 964 l 561 947 q 467 726 489 756 l 438 719 q 415 754 415 728 l 415 774 l 442 882 l 442 900 q 386 767 411 856 l 383 743 l 386 726 l 383 726 l 390 700 l 390 689 l 376 676 l 368 676 q 299 778 299 724 l 299 818 l 303 839 q 285 917 299 874 l 285 919 l 292 926 q 357 869 326 926 l 365 869 q 460 994 424 994 m 758 940 l 772 926 l 772 919 q 674 797 742 869 q 583 682 611 704 l 576 682 q 558 719 567 682 q 547 774 547 735 l 547 804 q 568 856 557 856 l 576 856 l 588 832 l 579 825 l 579 815 l 583 815 q 758 940 624 821 z "},"":{"ha":528,"x_min":299,"x_max":510,"o":"m 481 1115 q 510 1094 510 1113 l 510 1088 l 328 915 l 313 915 l 299 929 l 299 971 q 481 1115 299 1085 z "},"":{"ha":689,"x_min":229,"x_max":654,"o":"m 342 985 l 344 985 q 419 944 385 985 l 419 933 l 393 850 q 404 832 404 847 q 331 814 404 817 l 326 817 q 285 796 285 817 q 271 786 285 790 q 229 872 240 786 l 229 899 q 271 975 229 944 l 282 975 l 282 969 l 278 951 l 278 949 l 282 949 q 342 985 315 985 m 285 893 l 289 890 l 289 888 l 285 875 l 285 872 q 333 926 333 879 l 285 896 l 285 893 m 576 989 l 579 989 q 654 949 619 989 l 654 938 l 628 854 q 639 836 639 851 q 565 818 639 821 l 561 821 q 519 800 519 821 q 506 790 519 794 q 464 876 475 790 l 464 903 q 506 979 464 949 l 517 979 l 517 974 l 513 956 l 513 953 l 517 953 q 576 989 550 989 m 519 897 l 524 894 l 524 892 l 519 879 l 519 876 q 568 931 568 883 l 519 900 l 519 897 z "},"":{"ha":732,"x_min":74,"x_max":786,"o":"m 539 742 l 622 742 l 650 733 l 678 742 q 775 654 742 742 q 713 599 763 599 l 685 599 l 574 607 l 518 592 l 511 599 l 511 607 l 567 671 l 560 671 q 253 543 283 574 q 204 528 253 528 q 107 607 139 528 l 107 615 q 329 710 107 639 q 539 742 465 742 m 550 497 l 633 497 l 661 489 l 689 497 q 786 410 753 497 q 724 354 774 354 l 696 354 l 585 363 l 529 347 l 522 354 l 522 363 l 578 426 l 571 426 q 264 299 294 329 q 215 283 264 283 q 118 363 150 283 l 118 371 q 340 465 118 394 q 550 497 476 497 m 535 997 l 540 997 q 604 931 578 997 l 604 914 q 515 665 604 833 q 279 182 358 294 q 86 40 151 40 l 74 65 l 74 82 q 310 431 232 276 q 496 897 422 639 l 496 931 l 489 931 l 482 922 l 476 922 l 469 931 l 469 947 q 535 997 496 997 z "},"":{"ha":1410,"x_min":0,"x_max":1415,"o":"m 554 957 l 589 957 q 726 843 690 957 l 732 828 q 690 632 701 739 l 686 632 l 690 607 l 681 565 l 686 560 l 681 535 l 681 519 l 686 524 l 843 524 q 935 421 899 524 q 914 406 935 406 l 701 426 q 681 406 685 421 l 690 313 l 686 297 l 696 272 l 706 10 l 706 -1 q 681 -53 706 -42 q 426 225 426 161 l 432 231 l 438 231 q 604 149 585 149 l 610 149 l 610 158 l 615 158 l 610 221 l 610 313 l 600 369 l 600 426 q 401 369 401 400 l 401 364 l 407 339 l 396 293 l 401 272 l 392 251 l 396 246 q 285 -1 363 78 l 269 -11 l 254 -11 q 233 50 233 -11 l 233 56 q 249 122 233 122 l 269 117 q 319 375 319 249 l 157 297 l 111 261 l 96 261 q 0 360 58 261 l 0 369 q 46 385 17 385 l 331 478 q 340 607 340 507 q 310 788 340 719 l 304 828 l 310 833 l 315 833 q 361 824 325 824 q 426 731 426 788 l 422 704 l 426 704 q 503 751 475 751 l 528 751 q 585 689 585 751 q 497 514 585 590 l 497 508 l 549 514 l 600 514 q 619 860 600 781 l 610 869 q 493 813 567 857 q 438 803 474 803 l 422 803 l 392 828 q 554 957 507 957 m 401 571 l 407 565 l 407 556 l 396 499 l 396 493 l 422 493 q 468 601 468 557 l 463 617 q 401 571 401 608 m 864 992 l 904 992 q 1017 938 978 992 l 1017 919 q 951 764 1017 889 l 1163 579 q 1415 424 1365 485 l 1415 406 q 1381 388 1410 388 l 1357 388 q 1104 483 1150 388 q 946 686 969 668 q 858 543 918 686 q 829 519 842 519 q 904 447 904 465 l 911 429 l 864 250 l 864 226 l 869 226 q 1011 465 1011 319 l 1017 471 l 1028 471 q 1104 375 1104 443 l 1104 351 q 864 113 1072 242 l 858 106 l 858 100 q 969 22 868 22 l 988 22 q 1146 82 1146 22 q 1175 149 1157 82 l 1169 154 l 1175 196 l 1175 244 l 1181 244 q 1281 22 1238 192 l 1281 -37 q 957 -97 1281 -82 q 788 4 821 -97 l 764 94 l 746 82 l 688 82 l 658 94 l 658 106 q 769 172 678 128 l 776 201 l 782 417 l 776 417 q 640 261 701 304 l 624 261 l 606 279 q 653 400 606 400 q 882 926 813 604 q 846 979 846 947 l 864 992 z "},"":{"ha":719,"x_min":10,"x_max":718,"o":"m 417 953 l 478 953 q 692 604 692 885 l 700 439 q 493 -8 700 -8 q 301 50 399 6 l 256 33 q 33 199 33 86 q 10 315 18 199 q 110 821 10 429 l 117 829 l 125 829 q 201 671 201 742 l 132 539 l 147 539 q 317 629 317 599 l 324 671 l 324 713 l 286 704 l 278 713 l 278 721 l 293 779 l 247 763 l 240 763 l 210 796 q 417 953 310 953 m 356 804 l 356 788 l 378 788 q 432 729 432 788 l 432 696 q 532 589 532 657 q 417 531 532 556 l 386 414 q 569 364 474 414 l 578 364 l 578 613 q 508 844 561 844 l 493 844 l 356 804 m 194 431 l 125 447 q 86 307 101 418 q 178 165 86 224 l 178 174 q 110 315 110 279 l 125 315 l 217 224 q 271 332 229 224 q 225 356 225 342 l 225 364 q 293 406 225 379 l 301 481 q 194 431 232 431 m 278 199 l 278 190 l 293 174 l 301 174 l 324 190 l 339 190 l 339 174 l 332 165 l 332 157 q 408 132 371 132 l 454 132 q 563 224 563 149 l 563 232 q 386 315 528 232 q 324 232 361 311 l 278 199 m 649 989 l 654 989 q 718 922 692 989 l 718 906 q 629 657 718 825 q 393 174 472 286 q 200 32 265 32 l 188 57 l 188 74 q 424 422 346 268 q 610 889 536 631 l 610 922 l 603 922 l 596 914 l 590 914 l 583 922 l 583 939 q 649 989 610 989 z "},"":{"ha":875,"x_min":-1,"x_max":832,"o":"m 219 390 q 257 326 260 333 q 160 322 250 313 l 92 315 q -1 415 49 335 l 4 429 l 24 442 q 136 456 99 447 l 221 394 l 219 390 m 136 456 q 171 471 165 463 l 138 544 q 71 733 65 724 q 189 754 89 774 l 242 725 l 285 706 q 325 678 313 693 l 331 681 l 417 642 l 439 638 l 444 661 l 447 665 q 588 735 465 706 q 736 774 699 790 l 749 768 q 783 593 813 658 l 776 575 q 622 411 749 514 l 619 407 l 710 431 q 793 446 763 460 l 797 444 q 801 326 832 394 l 775 268 l 763 263 l 751 268 q 729 294 743 288 q 489 296 650 331 q 365 261 379 256 q 306 342 300 329 l 308 346 q 425 394 317 367 q 521 463 488 388 q 385 560 521 486 q 221 396 306 468 l 221 394 l 136 456 m 538 614 l 532 590 l 556 579 q 585 518 575 554 l 589 517 l 590 521 q 725 642 718 625 l 726 646 q 538 614 560 665 m 338 582 l 332 579 l 317 586 l 314 592 q 290 592 311 583 l 236 617 l 200 622 q 208 481 188 558 l 211 479 q 342 569 217 490 l 344 574 l 342 579 l 338 582 z "},"":{"ha":833,"x_min":56,"x_max":818,"o":"m 510 1006 q 578 928 536 1006 l 578 914 q 453 849 578 894 l 444 808 l 449 808 q 538 849 496 838 l 546 849 q 618 761 618 825 q 497 601 618 707 q 457 574 457 581 l 461 574 l 622 588 l 675 588 q 772 481 738 588 q 751 463 764 463 l 599 476 l 561 476 l 453 472 l 444 458 q 432 307 439 307 l 436 301 q 400 63 424 63 l 396 63 q 360 454 372 63 l 347 454 l 206 393 q 125 343 154 343 q 56 444 56 407 q 169 486 56 458 q 356 554 243 531 q 364 638 364 578 l 364 656 l 356 665 q 254 568 274 568 q 206 697 225 568 q 286 840 208 733 l 286 849 q 238 932 260 849 l 242 936 l 267 936 q 497 1006 360 936 l 510 1006 m 267 715 l 271 715 l 364 753 l 367 771 l 364 822 q 267 715 353 821 m 453 757 l 453 707 l 444 661 q 529 799 529 765 q 453 757 454 771 m 582 107 l 665 107 l 693 99 l 721 107 q 818 19 785 107 q 756 -36 806 -36 l 728 -36 l 617 -28 l 561 -43 l 554 -36 l 554 -28 l 610 36 l 603 36 q 296 -92 326 -61 q 247 -107 296 -107 q 150 -28 182 -107 l 150 -19 q 372 75 150 4 q 582 107 508 107 z "},"":{"ha":761,"x_min":0,"x_max":0,"o":""},"":{"ha":539,"x_min":0,"x_max":0,"o":""},"":{"ha":771,"x_min":0,"x_max":800,"o":"m 479 0 q 403 107 435 0 l 403 172 l 415 193 l 415 206 l 397 206 q 303 272 336 206 l 303 293 q 372 346 319 325 q 264 458 342 415 l 264 479 q 435 565 264 497 l 435 571 q 208 771 360 624 l 50 857 l 0 911 l 0 931 q 57 957 8 957 l 132 957 q 308 818 246 957 q 485 671 435 671 q 567 883 510 814 q 699 931 661 931 l 713 931 q 800 878 800 931 l 800 871 l 793 871 q 611 738 660 871 l 592 678 l 592 671 l 636 697 q 725 558 725 654 q 706 525 719 525 l 699 525 q 681 551 681 525 l 649 551 q 536 492 536 535 l 522 413 q 611 465 589 465 l 617 465 l 631 451 l 631 439 l 542 346 q 624 232 624 274 l 617 226 l 554 232 l 504 232 q 485 193 485 226 l 485 113 l 492 79 l 522 79 l 536 67 l 536 46 q 479 0 536 0 m 447 451 l 447 458 l 440 458 l 390 418 l 397 353 q 447 451 410 353 z "},"":{"ha":865,"x_min":29,"x_max":785,"o":"m 471 200 l 485 200 l 479 267 q 340 239 440 239 q 329 200 340 213 l 317 69 q 124 -18 172 49 q 29 115 50 43 q 113 139 50 126 q 263 178 151 161 q 224 306 224 240 l 213 306 q 135 250 167 250 q 79 356 79 250 q 113 483 79 401 l 124 483 l 146 461 l 140 428 l 146 428 q 235 517 235 442 q 318 733 265 733 l 324 739 l 340 706 l 329 656 l 329 583 l 313 517 l 318 517 l 418 561 l 435 561 l 446 550 l 446 539 q 324 411 324 432 l 324 389 l 329 361 l 324 361 l 329 344 l 324 294 l 329 294 q 474 372 474 346 l 485 706 l 479 783 l 474 783 l 440 778 q 429 839 429 800 l 429 844 q 490 900 453 900 l 496 900 q 585 800 557 900 l 585 550 l 574 489 l 574 478 q 668 606 596 478 l 668 622 q 640 633 640 622 l 640 644 q 690 672 654 672 q 785 578 731 672 l 785 572 q 579 306 785 503 q 551 206 579 232 l 563 194 l 590 194 l 574 175 l 471 200 z "},"":{"ha":375,"x_min":-1,"x_max":378,"o":"m 135 607 l 146 1001 q 165 1128 150 1072 q 199 1211 179 1183 q 240 1248 213 1232 q 293 1264 268 1264 q 353 1241 328 1264 q 378 1190 378 1218 q 360 1140 378 1158 q 317 1121 343 1121 q 264 1144 292 1121 q 238 1158 249 1158 q 218 1149 226 1158 q 210 1115 210 1139 q 217 1017 210 1088 q 242 567 242 738 q 232 211 242 519 q 218 36 229 99 q 183 -83 204 -47 q 135 -134 161 -119 q 79 -149 110 -149 q 21 -126 43 -149 q -1 -67 -1 -103 q 16 -18 -1 -36 q 60 0 33 0 q 106 -22 86 0 q 140 -43 126 -43 q 159 -34 151 -43 q 167 -1 167 -25 q 160 79 167 26 q 143 308 149 176 q 135 607 135 478 z "},"":{"ha":632,"x_min":14,"x_max":618,"o":"m 372 1194 l 394 1194 q 483 1121 460 1194 l 488 1111 q 460 983 467 1053 l 457 983 l 460 967 l 454 940 l 457 936 l 454 921 l 454 910 l 457 913 l 558 913 q 618 846 594 913 q 604 836 618 836 l 467 850 q 454 836 457 846 l 460 776 l 457 767 l 464 750 l 469 579 l 469 572 q 454 539 469 546 q 289 719 289 678 l 293 722 l 297 722 q 404 669 392 669 l 408 669 l 408 676 l 411 676 l 408 717 l 408 776 l 401 813 l 401 850 q 274 813 274 833 l 274 810 l 276 793 l 269 764 l 274 750 l 267 736 l 269 733 q 199 572 249 624 l 188 565 l 178 565 q 165 606 165 565 l 165 610 q 175 653 165 653 l 188 649 q 221 817 221 735 l 115 767 l 86 743 l 76 743 q 14 807 51 743 l 14 813 q 43 824 25 824 l 228 883 q 233 967 233 903 q 214 1085 233 1040 l 211 1111 l 214 1114 l 218 1114 q 247 1108 224 1108 q 289 1047 289 1085 l 286 1031 l 289 1031 q 339 1061 321 1061 l 356 1061 q 392 1021 392 1061 q 335 907 392 957 l 335 903 l 368 907 l 401 907 q 414 1132 401 1081 l 408 1138 q 332 1100 381 1129 q 297 1094 319 1094 l 286 1094 l 267 1111 q 372 1194 342 1194 m 274 944 l 276 940 l 276 933 l 269 897 l 269 893 l 286 893 q 317 964 317 935 l 313 974 q 274 944 274 968 z "},"":{"ha":518,"x_min":33,"x_max":478,"o":"m 296 1179 l 335 1179 q 472 1017 472 1147 l 478 940 q 344 732 478 732 q 221 760 283 739 l 192 751 q 49 828 49 776 q 33 882 39 828 q 97 1118 33 936 l 103 1122 l 107 1122 q 157 1049 157 1081 l 113 986 l 122 986 q 231 1029 231 1014 l 236 1049 l 236 1068 l 211 1064 l 206 1068 l 206 1071 l 215 1099 l 186 1090 l 182 1090 l 163 1106 q 296 1179 226 1179 m 256 1110 l 256 1103 l 271 1103 q 306 1075 306 1103 l 306 1060 q 369 1010 369 1042 q 296 983 369 994 l 275 928 q 393 906 332 928 l 399 906 l 399 1021 q 354 1129 389 1129 l 344 1129 l 256 1110 m 153 936 l 107 944 q 82 879 92 931 q 142 813 82 840 l 142 817 q 97 882 97 865 l 107 882 l 167 840 q 201 890 175 840 q 172 901 172 894 l 172 906 q 215 925 172 913 l 221 960 q 153 936 176 936 m 206 828 l 206 825 l 215 817 l 221 817 l 236 825 l 246 825 l 246 817 l 240 813 l 240 808 q 290 797 265 797 l 319 797 q 389 840 389 806 l 389 844 q 275 882 367 844 q 236 844 260 881 l 206 828 z "},"":{"ha":1444,"x_min":3,"x_max":1447,"o":"m 557 985 l 592 985 q 729 871 693 985 l 735 856 q 693 660 704 767 l 689 660 l 693 635 l 683 593 l 689 588 l 683 563 l 683 547 l 689 551 l 846 551 q 938 449 901 551 q 917 433 938 433 l 704 454 q 683 433 688 449 l 693 340 l 689 325 l 699 300 l 708 38 l 708 26 q 683 -25 708 -14 q 429 253 429 189 l 435 258 l 440 258 q 607 176 588 176 l 613 176 l 613 186 l 618 186 l 613 249 l 613 340 l 603 397 l 603 454 q 404 397 404 428 l 404 392 l 410 367 l 399 321 l 404 300 l 394 279 l 399 274 q 288 26 365 106 l 272 17 l 257 17 q 236 78 236 17 l 236 83 q 251 150 236 150 l 272 144 q 322 403 322 276 l 160 325 l 114 289 l 99 289 q 3 388 61 289 l 3 397 q 49 413 19 413 l 333 506 q 343 635 343 535 q 313 815 343 747 l 307 856 l 313 861 l 318 861 q 364 851 328 851 q 429 758 429 815 l 425 732 l 429 732 q 506 779 478 779 l 531 779 q 588 717 588 779 q 500 542 588 618 l 500 536 l 551 542 l 603 542 q 622 888 603 808 l 613 897 q 496 840 569 885 q 440 831 476 831 l 425 831 l 394 856 q 557 985 510 985 m 404 599 l 410 593 l 410 583 l 399 526 l 399 521 l 425 521 q 471 629 471 585 l 465 644 q 404 599 404 636 m 896 1028 l 936 1028 q 1049 974 1010 1028 l 1049 956 q 983 800 1049 925 l 1194 615 q 1447 460 1397 521 l 1447 442 q 1413 424 1442 424 l 1389 424 q 1136 519 1182 424 q 978 722 1001 704 q 890 579 950 722 q 861 556 874 556 q 936 483 936 501 l 943 465 l 896 286 l 896 263 l 901 263 q 1043 501 1043 356 l 1049 507 l 1060 507 q 1136 411 1136 479 l 1136 388 q 896 149 1104 278 l 890 142 l 890 136 q 1001 58 900 58 l 1019 58 q 1178 118 1178 58 q 1207 185 1189 118 l 1201 190 l 1207 232 l 1207 281 l 1213 281 q 1313 58 1269 228 l 1313 -1 q 989 -61 1313 -46 q 819 40 853 -61 l 796 131 l 778 118 l 719 118 l 690 131 l 690 142 q 801 208 710 164 l 808 238 l 814 453 l 808 453 q 672 297 733 340 l 656 297 l 638 315 q 685 436 638 436 q 914 963 844 640 q 878 1015 878 983 l 896 1028 z "},"":{"ha":722,"x_min":14,"x_max":704,"o":"m 421 953 l 482 953 q 696 604 696 885 l 704 439 q 497 -8 704 -8 q 306 50 403 6 l 260 33 q 38 199 38 86 q 14 315 22 199 q 114 821 14 429 l 121 829 l 129 829 q 206 671 206 742 l 136 539 l 151 539 q 321 629 321 599 l 328 671 l 328 713 l 290 704 l 282 713 l 282 721 l 297 779 l 251 763 l 244 763 l 214 796 q 421 953 314 953 m 360 804 l 360 788 l 382 788 q 436 729 436 788 l 436 696 q 536 589 536 657 q 421 531 536 556 l 390 414 q 574 364 478 414 l 582 364 l 582 613 q 513 844 565 844 l 497 844 l 360 804 m 199 431 l 129 447 q 90 307 106 418 q 182 165 90 224 l 182 174 q 114 315 114 279 l 129 315 l 221 224 q 275 332 233 224 q 229 356 229 342 l 229 364 q 297 406 229 379 l 306 481 q 199 431 236 431 m 282 199 l 282 190 l 297 174 l 306 174 l 328 190 l 343 190 l 343 174 l 336 165 l 336 157 q 413 132 375 132 l 458 132 q 567 224 567 149 l 567 232 q 390 315 532 232 q 328 232 365 311 l 282 199 m 533 990 l 539 990 q 603 924 576 990 l 603 907 q 514 658 603 826 q 278 175 357 288 q 85 33 150 33 l 72 58 l 72 75 q 308 424 231 269 q 494 890 421 632 l 494 924 l 488 924 l 481 915 l 475 915 l 468 924 l 468 940 q 533 990 494 990 z "},"":{"ha":683,"x_min":106,"x_max":611,"o":"m 429 453 l 372 501 l 381 522 l 392 522 q 532 421 525 496 q 401 294 532 343 l 296 265 l 285 253 l 274 206 l 243 -101 l 254 -101 l 529 85 q 563 143 538 143 q 611 1 611 63 q 325 -229 342 -172 l 249 -322 q 106 -79 106 -287 l 158 338 l 282 394 q 429 453 418 415 m 358 582 l 354 582 q 256 636 301 582 l 256 650 l 290 761 q 276 785 276 765 q 374 808 276 806 l 379 806 q 433 833 433 806 q 451 846 433 840 q 507 732 492 846 l 507 696 q 451 594 507 636 l 438 594 l 438 603 l 443 626 l 443 631 l 438 631 q 358 582 393 582 m 433 704 l 428 707 l 428 711 l 433 728 l 433 732 q 369 660 369 722 l 433 700 l 433 704 z "},"":{"ha":704,"x_min":13,"x_max":683,"o":"m 299 278 q 344 607 299 607 l 357 607 q 403 453 403 540 l 392 372 l 392 139 l 403 125 l 607 232 l 614 232 q 683 125 683 213 q 410 38 547 69 l 410 -3 l 415 -3 q 479 25 446 25 l 497 25 l 514 4 q 410 -56 514 -12 l 410 -169 q 432 -276 410 -210 l 432 -303 l 421 -317 q 315 -236 361 -317 l 322 -196 l 322 -189 l 246 -236 l 206 -236 l 140 -162 l 140 -150 q 329 -49 146 -121 l 333 25 l 118 -15 l 111 -15 q 13 71 67 -15 q 71 125 13 125 q 246 106 165 106 l 310 118 l 304 151 l 299 278 m 336 679 l 333 679 q 258 719 293 679 l 258 731 l 285 814 q 274 832 274 817 q 347 850 274 847 l 351 847 q 393 868 393 847 q 407 878 393 874 q 449 792 438 878 l 449 765 q 407 689 449 719 l 396 689 l 396 694 l 400 713 l 400 715 l 396 715 q 336 679 363 679 m 393 771 l 389 774 l 389 776 l 393 789 l 393 792 q 344 738 344 785 l 393 768 l 393 771 z "},"":{"ha":925,"x_min":88,"x_max":838,"o":"m 88 686 l 838 686 l 838 231 l 713 231 l 711 561 l 88 561 l 88 686 z "},"":{"ha":767,"x_min":58,"x_max":764,"o":"m 714 1268 l 764 1268 l 551 -53 l 215 639 l 82 578 l 58 621 l 263 724 l 538 165 l 714 1268 z "},"":{"ha":676,"x_min":8,"x_max":669,"o":"m 449 617 l 313 28 q 308 -7 308 8 q 340 -72 308 -50 l 332 -89 q 136 -193 238 -115 l 8 -65 l 28 -47 l 71 -89 l 161 -31 l 311 617 l 247 617 l 265 693 l 329 693 l 367 856 q 547 972 482 924 l 669 940 l 621 826 l 504 856 l 467 693 l 572 693 l 554 617 l 449 617 z "},"":{"ha":549,"x_min":39,"x_max":508,"o":"m 253 61 l 235 40 q 87 201 135 113 q 39 386 39 290 q 235 732 39 590 l 253 713 q 166 567 196 653 q 136 388 136 482 q 166 206 136 292 q 253 61 196 121 m 508 61 l 490 40 q 345 200 394 108 q 296 386 296 292 q 342 567 296 476 q 490 732 389 657 l 508 713 q 393 389 393 582 q 422 211 393 297 q 508 61 451 125 z "},"":{"ha":549,"x_min":40,"x_max":510,"o":"m 297 61 q 383 206 353 121 q 414 388 414 292 q 384 567 414 482 q 297 713 354 653 l 315 732 q 510 386 510 590 q 463 201 510 290 q 315 40 415 113 l 297 61 m 40 61 q 127 211 99 125 q 156 389 156 297 q 40 713 156 582 l 60 732 q 208 567 161 657 q 254 386 254 476 q 205 200 254 292 q 60 40 156 108 l 40 61 z "},"":{"ha":826,"x_min":56,"x_max":761,"o":"m 168 181 l 171 181 q 246 140 211 181 l 246 129 l 219 46 q 231 28 231 43 q 157 10 231 13 l 153 13 q 111 -8 111 13 q 97 -18 111 -14 q 56 68 67 -18 l 56 94 q 97 171 56 140 l 108 171 l 108 165 l 104 147 l 104 144 l 108 144 q 168 181 142 181 m 111 89 l 115 86 l 115 83 l 111 71 l 111 68 q 160 122 160 75 l 111 92 l 111 89 m 419 182 l 422 182 q 497 142 463 182 l 497 131 l 471 47 q 482 29 482 44 q 408 11 482 14 l 404 14 q 363 -7 363 14 q 349 -17 363 -12 q 307 69 318 -17 l 307 96 q 349 172 307 142 l 360 172 l 360 167 l 356 149 l 356 146 l 360 146 q 419 182 393 182 m 363 90 l 367 88 l 367 85 l 363 72 l 363 69 q 411 124 411 76 l 363 93 l 363 90 m 683 188 l 686 188 q 761 147 726 188 l 761 136 l 735 53 q 746 35 746 50 q 672 17 746 19 l 668 19 q 626 -1 626 19 q 613 -11 626 -7 q 571 75 582 -11 l 571 101 q 613 178 571 147 l 624 178 l 624 172 l 619 154 l 619 151 l 624 151 q 683 188 657 188 m 626 96 l 631 93 l 631 90 l 626 78 l 626 75 q 675 129 675 82 l 626 99 l 626 96 z "},"":{"ha":392,"x_min":0,"x_max":0,"o":""},"":{"ha":903,"x_min":-14,"x_max":921,"o":"m 540 938 l 575 938 q 713 824 676 938 l 718 808 q 676 613 688 719 l 672 613 l 676 588 l 667 546 l 672 540 l 667 515 l 667 500 l 672 504 l 829 504 q 921 401 885 504 q 900 386 921 386 l 688 407 q 667 386 671 401 l 676 293 l 672 278 l 682 253 l 692 -10 l 692 -21 q 667 -72 692 -61 q 413 206 413 142 l 418 211 l 424 211 q 590 129 571 129 l 596 129 l 596 139 l 601 139 l 596 201 l 596 293 l 586 350 l 586 407 q 388 350 388 381 l 388 344 l 393 319 l 382 274 l 388 253 l 378 232 l 382 226 q 271 -21 349 58 l 256 -31 l 240 -31 q 219 31 219 -31 l 219 36 q 235 103 219 103 l 256 97 q 306 356 306 229 l 143 278 l 97 242 l 82 242 q -14 340 44 242 l -14 350 q 32 365 3 365 l 317 458 q 326 588 326 488 q 296 768 326 700 l 290 808 l 296 814 l 301 814 q 347 804 311 804 q 413 711 413 768 l 408 685 l 413 685 q 489 732 461 732 l 514 732 q 571 669 571 732 q 483 494 571 571 l 483 489 l 535 494 l 586 494 q 606 840 586 761 l 596 850 q 479 793 553 838 q 424 783 460 783 l 408 783 l 378 808 q 540 938 493 938 m 388 551 l 393 546 l 393 536 l 382 479 l 382 474 l 408 474 q 454 582 454 538 l 449 597 q 388 551 388 589 m 279 1144 q 443 988 443 1111 l 443 943 l 431 928 l 417 928 l 253 1114 l 253 1122 q 279 1144 253 1140 z "},"":{"ha":903,"x_min":-10,"x_max":925,"o":"m 544 940 l 579 940 q 717 826 681 940 l 722 811 q 681 615 692 722 l 676 615 l 681 590 l 671 549 l 676 543 l 671 518 l 671 503 l 676 507 l 833 507 q 925 404 889 507 q 904 389 925 389 l 692 410 q 671 389 675 404 l 681 296 l 676 281 l 686 256 l 696 -7 l 696 -18 q 671 -69 696 -58 q 417 208 417 144 l 422 214 l 428 214 q 594 132 575 132 l 600 132 l 600 142 l 606 142 l 600 204 l 600 296 l 590 353 l 590 410 q 392 353 392 383 l 392 347 l 397 322 l 386 276 l 392 256 l 382 235 l 386 229 q 275 -18 353 61 l 260 -28 l 244 -28 q 224 33 224 -28 l 224 39 q 239 106 224 106 l 260 100 q 310 358 310 232 l 147 281 l 101 244 l 86 244 q -10 343 49 244 l -10 353 q 36 368 7 368 l 321 461 q 331 590 331 490 q 300 771 331 703 l 294 811 l 300 817 l 306 817 q 351 807 315 807 q 417 714 417 771 l 413 688 l 417 688 q 493 735 465 735 l 518 735 q 575 672 575 735 q 488 497 575 574 l 488 492 l 539 497 l 590 497 q 610 843 590 764 l 600 853 q 483 796 557 840 q 428 786 464 786 l 413 786 l 382 811 q 544 940 497 940 m 392 554 l 397 549 l 397 539 l 386 482 l 386 476 l 413 476 q 458 585 458 540 l 453 600 q 392 554 392 592 m 488 1136 q 617 1075 524 1136 q 675 1060 650 1060 q 774 1136 721 1060 l 779 1136 l 779 1129 q 638 1014 707 1014 q 546 1057 604 1014 q 467 1078 504 1078 l 465 1078 q 363 1011 388 1078 q 338 996 350 996 l 333 996 q 282 1042 282 1006 l 282 1053 q 289 1071 282 1069 l 310 1071 l 313 1068 l 315 1068 q 307 1046 307 1057 l 307 1036 q 333 1014 313 1014 q 365 1064 346 1014 q 488 1136 425 1136 m 457 1067 l 467 1067 q 582 1010 513 1067 l 611 1007 l 619 1007 q 731 1050 676 1007 l 733 1050 l 733 1049 q 599 964 696 990 l 574 960 q 488 1006 500 982 q 421 1029 451 1028 l 376 1018 l 376 1024 q 457 1067 408 1067 z "},"":{"ha":736,"x_min":14,"x_max":704,"o":"m 421 965 l 482 965 q 696 617 696 897 l 704 451 q 497 4 704 4 q 306 63 403 18 l 260 46 q 38 211 38 99 q 14 328 22 211 q 114 833 14 442 l 121 842 l 129 842 q 206 683 206 754 l 136 551 l 151 551 q 321 642 321 611 l 328 683 l 328 725 l 290 717 l 282 725 l 282 733 l 297 792 l 251 775 l 244 775 l 214 808 q 421 965 314 965 m 360 817 l 360 800 l 382 800 q 436 742 436 800 l 436 708 q 536 601 536 669 q 421 543 536 568 l 390 426 q 574 376 478 426 l 582 376 l 582 625 q 513 857 565 857 l 497 857 l 360 817 m 199 443 l 129 460 q 90 319 106 431 q 182 178 90 236 l 182 186 q 114 328 114 292 l 129 328 l 221 236 q 275 344 233 236 q 229 368 229 354 l 229 376 q 297 418 229 392 l 306 493 q 199 443 236 443 m 282 211 l 282 203 l 297 186 l 306 186 l 328 203 l 343 203 l 343 186 l 336 178 l 336 169 q 413 144 375 144 l 458 144 q 567 236 567 161 l 567 244 q 390 328 532 244 q 328 244 365 324 l 282 211 m 410 1167 q 539 1106 446 1167 q 597 1090 572 1090 q 696 1167 643 1090 l 701 1167 l 701 1160 q 560 1044 629 1044 q 468 1088 526 1044 q 389 1108 426 1108 l 388 1108 q 285 1042 310 1108 q 260 1026 272 1026 l 256 1026 q 204 1072 204 1036 l 204 1083 q 211 1101 204 1100 l 232 1101 l 235 1099 l 238 1099 q 229 1076 229 1088 l 229 1067 q 256 1044 235 1044 q 288 1094 268 1044 q 410 1167 347 1167 m 379 1097 l 389 1097 q 504 1040 435 1097 l 533 1038 l 542 1038 q 653 1081 599 1038 l 656 1081 l 656 1079 q 521 994 618 1021 l 496 990 q 410 1036 422 1013 q 343 1060 374 1058 l 299 1049 l 299 1054 q 379 1097 331 1097 z "},"":{"ha":1229,"x_min":-26,"x_max":1208,"o":"m 381 896 l 442 896 q 656 547 656 828 l 664 382 q 457 -65 664 -65 q 265 -7 363 -51 l 219 -24 q -3 142 -3 29 q -26 258 -18 142 q 74 764 -26 372 l 81 772 l 89 772 q 165 614 165 685 l 96 482 l 111 482 q 281 572 281 542 l 288 614 l 288 656 l 250 647 l 242 656 l 242 664 l 257 722 l 211 706 l 204 706 l 174 739 q 381 896 274 896 m 319 747 l 319 731 l 342 731 q 396 672 396 731 l 396 639 q 496 532 496 600 q 381 474 496 499 l 350 357 q 533 307 438 357 l 542 307 l 542 556 q 472 788 525 788 l 457 788 l 319 747 m 158 374 l 89 390 q 50 250 65 361 q 142 108 50 167 l 142 117 q 74 258 74 222 l 89 258 l 181 167 q 235 275 193 167 q 189 299 189 285 l 189 307 q 257 349 189 322 l 265 424 q 158 374 196 374 m 242 142 l 242 133 l 257 117 l 265 117 l 288 133 l 303 133 l 303 117 l 296 108 l 296 100 q 372 75 335 75 l 418 75 q 526 167 526 92 l 526 175 q 350 258 492 175 q 288 175 325 254 l 242 142 m 657 1011 l 697 1011 q 810 957 771 1011 l 810 939 q 744 783 810 908 l 956 599 q 1208 443 1158 504 l 1208 425 q 1174 407 1203 407 l 1150 407 q 897 503 943 407 q 739 706 763 688 q 651 563 711 706 q 622 539 635 539 q 697 467 697 485 l 704 449 l 657 269 l 657 246 l 663 246 q 804 485 804 339 l 810 490 l 821 490 q 897 394 897 463 l 897 371 q 657 132 865 261 l 651 125 l 651 119 q 763 42 661 42 l 781 42 q 939 101 939 42 q 968 168 950 101 l 963 174 l 968 215 l 968 264 l 974 264 q 1074 42 1031 211 l 1074 -18 q 750 -78 1074 -62 q 581 24 614 -78 l 557 114 l 539 101 l 481 101 l 451 114 l 451 125 q 563 192 471 147 l 569 221 l 575 436 l 569 436 q 433 281 494 324 l 417 281 l 399 299 q 446 419 399 419 q 675 946 606 624 q 639 999 639 967 l 657 1011 z "},"":{"ha":1261,"x_min":19,"x_max":1313,"o":"m 426 954 l 488 954 q 701 606 701 886 l 710 440 q 503 -7 710 -7 q 311 51 408 7 l 265 35 q 43 200 43 88 q 19 317 28 200 q 119 822 19 431 l 126 831 l 135 831 q 211 672 211 743 l 142 540 l 157 540 q 326 631 326 600 l 333 672 l 333 714 l 296 706 l 288 714 l 288 722 l 303 781 l 257 764 l 250 764 l 219 797 q 426 954 319 954 m 365 806 l 365 789 l 388 789 q 442 731 442 789 l 442 697 q 542 590 542 658 q 426 532 542 557 l 396 415 q 579 365 483 415 l 588 365 l 588 614 q 518 846 571 846 l 503 846 l 365 806 m 204 432 l 135 449 q 96 308 111 419 q 188 167 96 225 l 188 175 q 119 317 119 281 l 135 317 l 226 225 q 281 333 239 225 q 235 357 235 343 l 235 365 q 303 407 235 381 l 311 482 q 204 432 242 432 m 288 200 l 288 192 l 303 175 l 311 175 l 333 192 l 349 192 l 349 175 l 342 167 l 342 158 q 418 133 381 133 l 464 133 q 572 225 572 150 l 572 233 q 396 317 538 233 q 333 233 371 313 l 288 200 m 761 1015 l 801 1015 q 914 961 875 1015 l 914 943 q 849 788 914 913 l 1060 603 q 1313 447 1263 508 l 1313 429 q 1278 411 1307 411 l 1254 411 q 1001 507 1047 411 q 843 710 867 692 q 756 567 815 710 q 726 543 739 543 q 801 471 801 489 l 808 453 l 761 274 l 761 250 l 767 250 q 908 489 908 343 l 914 494 l 925 494 q 1001 399 1001 467 l 1001 375 q 761 136 969 265 l 756 129 l 756 124 q 867 46 765 46 l 885 46 q 1043 106 1043 46 q 1072 172 1054 106 l 1067 178 l 1072 219 l 1072 268 l 1078 268 q 1178 46 1135 215 l 1178 -14 q 854 -74 1178 -58 q 685 28 718 -74 l 661 118 l 643 106 l 585 106 l 556 118 l 556 129 q 667 196 575 151 l 674 225 l 679 440 l 674 440 q 538 285 599 328 l 521 285 l 503 303 q 550 424 503 424 q 779 950 710 628 q 743 1003 743 971 l 761 1015 z "},"":{"ha":625,"x_min":-10,"x_max":625,"o":"m 625 340 l -10 340 l -10 486 l 625 486 l 625 340 z "},"":{"ha":1250,"x_min":-10,"x_max":1250,"o":"m 1250 340 l -10 340 l -10 486 l 1250 486 l 1250 340 z "},"":{"ha":517,"x_min":54,"x_max":478,"o":"m 250 1149 q 282 1119 282 1143 l 282 1110 l 86 869 l 69 869 l 54 889 l 54 946 q 250 1149 54 1106 m 451 1131 q 478 1107 478 1126 l 478 1097 l 314 896 l 300 896 l 288 913 l 288 961 q 451 1131 288 1094 z "},"":{"ha":517,"x_min":54,"x_max":478,"o":"m 282 1149 q 478 946 478 1106 l 478 889 l 463 869 l 446 869 l 250 1110 l 250 1119 q 282 1149 250 1143 m 81 1131 q 244 961 244 1094 l 244 913 l 232 896 l 218 896 l 54 1097 l 54 1107 q 81 1131 54 1126 z "},"":{"ha":336,"x_min":39,"x_max":307,"o":"m 307 665 q 247 610 276 632 q 143 542 161 542 q 118 551 132 542 q 87 578 114 554 q 50 613 60 601 q 39 632 40 625 q 203 996 69 846 l 215 1000 q 203 922 207 965 q 199 844 199 878 q 200 776 199 793 q 204 753 201 760 l 258 711 q 307 665 271 703 z "},"":{"ha":336,"x_min":39,"x_max":307,"o":"m 39 876 q 99 932 69 910 q 203 1000 185 1000 q 228 990 214 1000 q 259 964 232 988 q 296 928 286 940 q 307 910 306 917 q 143 546 276 696 l 131 542 q 143 620 139 576 q 147 697 147 664 q 146 765 147 749 q 142 789 144 782 l 88 831 q 39 876 75 839 z "},"":{"ha":782,"x_min":75,"x_max":743,"o":"m 507 593 l 590 593 l 618 585 l 646 593 q 743 506 710 593 q 681 450 731 450 l 653 450 l 542 458 l 486 443 l 479 450 l 479 458 l 535 522 l 528 522 q 221 394 251 425 q 172 379 221 379 q 75 458 107 379 l 75 467 q 297 561 75 490 q 507 593 433 593 m 394 833 l 397 833 q 472 793 438 833 l 472 782 l 446 699 q 457 681 457 696 q 383 663 457 665 l 379 665 q 338 644 338 665 q 324 635 338 639 q 282 721 293 635 l 282 747 q 324 824 282 793 l 335 824 l 335 818 l 331 800 l 331 797 l 335 797 q 394 833 368 833 m 338 742 l 342 739 l 342 736 l 338 724 l 338 721 q 386 775 386 728 l 338 744 l 338 742 m 450 360 l 453 360 q 528 319 493 360 l 528 308 l 501 225 q 513 207 513 222 q 439 189 513 192 l 435 192 q 393 171 393 192 q 379 161 393 165 q 338 247 349 161 l 338 274 q 379 350 338 319 l 390 350 l 390 344 l 386 326 l 386 324 l 390 324 q 450 360 424 360 m 393 268 l 397 265 l 397 263 l 393 250 l 393 247 q 442 301 442 254 l 393 271 l 393 268 z "},"":{"ha":686,"x_min":40,"x_max":643,"o":"m 340 1024 l 643 504 l 340 -29 l 40 504 l 340 1024 m 340 843 l 143 504 l 340 150 l 539 504 l 340 843 z "},"":{"ha":629,"x_min":7,"x_max":617,"o":"m 433 992 l 481 992 q 617 878 565 992 q 404 601 593 764 l 394 574 l 414 517 l 414 393 l 404 344 l 414 288 l 414 97 q 365 -7 399 -7 l 336 -7 q 210 183 210 90 l 278 164 l 297 221 l 297 411 q 190 640 297 571 q 36 715 146 715 l 7 754 l 7 764 q 104 821 46 821 l 124 821 q 307 688 307 760 l 307 649 l 317 649 q 463 915 454 788 l 453 915 l 394 906 q 356 935 356 921 l 356 954 q 433 992 356 978 m 249 1229 l 251 1229 q 326 1189 292 1229 l 326 1178 l 300 1094 q 311 1076 311 1092 q 238 1058 311 1061 l 233 1061 q 192 1040 192 1061 q 178 1031 192 1035 q 136 1117 147 1031 l 136 1143 q 178 1219 136 1189 l 189 1219 l 189 1214 l 185 1196 l 185 1193 l 189 1193 q 249 1229 222 1229 m 192 1138 l 196 1135 l 196 1132 l 192 1119 l 192 1117 q 240 1171 240 1124 l 192 1140 l 192 1138 m 483 1233 l 486 1233 q 561 1193 526 1233 l 561 1182 l 535 1099 q 546 1081 546 1096 q 472 1063 546 1065 l 468 1065 q 426 1044 426 1065 q 413 1035 426 1039 q 371 1121 382 1035 l 371 1147 q 413 1224 371 1193 l 424 1224 l 424 1218 l 419 1200 l 419 1197 l 424 1197 q 483 1233 457 1233 m 426 1142 l 431 1139 l 431 1136 l 426 1124 l 426 1121 q 475 1175 475 1128 l 426 1144 l 426 1142 z "},"":{"ha":658,"x_min":15,"x_max":625,"o":"m 442 981 l 489 981 q 625 867 574 981 q 413 590 601 753 l 403 563 l 422 506 l 422 382 l 413 333 l 422 276 l 422 86 q 374 -18 407 -18 l 344 -18 q 218 172 218 79 l 286 153 l 306 210 l 306 400 q 199 629 306 560 q 44 704 154 704 l 15 743 l 15 753 q 113 810 54 810 l 132 810 q 315 676 315 749 l 315 638 l 325 638 q 471 904 463 776 l 461 904 l 403 894 q 364 924 364 910 l 364 943 q 442 981 364 967 m 264 1218 l 267 1218 q 342 1178 307 1218 l 342 1167 l 315 1083 q 326 1065 326 1081 q 253 1047 326 1050 l 249 1050 q 207 1029 207 1050 q 193 1019 207 1024 q 151 1106 163 1019 l 151 1132 q 193 1208 151 1178 l 204 1208 l 204 1203 l 200 1185 l 200 1182 l 204 1182 q 264 1218 238 1218 m 207 1126 l 211 1124 l 211 1121 l 207 1108 l 207 1106 q 256 1160 256 1113 l 207 1129 l 207 1126 m 499 1222 l 501 1222 q 576 1182 542 1222 l 576 1171 l 550 1088 q 561 1069 561 1085 q 488 1051 561 1054 l 483 1054 q 442 1033 442 1054 q 428 1024 442 1028 q 386 1110 397 1024 l 386 1136 q 428 1213 386 1182 l 439 1213 l 439 1207 l 435 1189 l 435 1186 l 439 1186 q 499 1222 472 1222 m 442 1131 l 446 1128 l 446 1125 l 442 1113 l 442 1110 q 490 1164 490 1117 l 442 1133 l 442 1131 z "},"":{"ha":561,"x_min":11,"x_max":542,"o":"m 472 1025 l 478 1025 q 542 958 515 1025 l 542 942 q 453 693 542 861 q 217 210 296 322 q 24 68 89 68 l 11 93 l 11 110 q 247 458 169 304 q 433 925 360 667 l 433 958 l 426 958 l 419 950 l 414 950 l 407 958 l 407 975 q 472 1025 433 1025 z "},"":{"ha":667,"x_min":19,"x_max":647,"o":"m 647 183 l 597 133 l 528 203 q 438 152 486 169 q 333 135 389 135 q 230 153 281 135 q 139 203 179 171 l 69 133 l 19 183 l 89 253 q 21 447 21 336 q 38 551 21 501 q 89 642 56 601 l 19 711 l 69 761 l 139 692 q 229 742 181 725 q 333 760 278 760 q 437 742 386 760 q 528 692 488 724 l 597 761 l 647 711 l 578 642 q 646 447 646 558 q 628 343 646 393 q 578 253 611 293 l 647 183 m 539 447 q 481 600 539 539 q 333 661 422 661 q 187 599 246 661 q 128 447 128 538 q 186 294 128 356 q 333 233 244 233 q 480 295 421 233 q 539 447 539 357 z "},"":{"ha":318,"x_min":51,"x_max":265,"o":"m 265 61 l 247 40 q 99 201 147 113 q 51 386 51 290 q 247 732 51 590 l 265 713 q 178 567 208 653 q 149 388 149 482 q 178 206 149 292 q 265 61 208 121 z "},"":{"ha":318,"x_min":53,"x_max":267,"o":"m 53 61 q 140 206 110 121 q 169 388 169 292 q 140 567 169 482 q 53 713 111 653 l 72 732 q 267 386 267 590 q 219 201 267 290 q 72 40 171 113 l 53 61 z "},"":{"ha":1235,"x_min":-29,"x_max":1193,"o":"m 274 1004 q 386 938 386 983 l 400 922 l 400 885 l 407 885 l 400 826 l 400 818 l 619 856 q 747 744 711 856 q 694 699 733 699 l 633 699 l 507 729 l 419 707 l 419 632 l 413 625 l 413 617 l 419 610 l 453 617 l 519 617 l 547 625 q 646 519 596 625 l 646 497 l 619 468 l 593 468 q 440 528 522 468 l 419 519 l 414 81 q 354 -32 414 -32 q 274 103 306 -32 q 299 617 299 400 q 278 685 294 685 q 64 572 114 572 q -29 685 -29 615 q 44 714 -29 703 q 272 796 100 757 l 272 826 l 267 878 l 239 967 l 239 974 q 274 1004 243 989 m 940 785 q 1025 701 964 785 q 915 638 1025 665 l 924 600 l 919 493 l 928 446 l 901 344 l 901 326 q 979 456 954 376 l 953 483 l 979 511 l 988 511 q 1089 400 1046 511 q 911 161 1065 311 l 876 106 l 869 40 l 1082 58 q 1193 -53 1121 58 l 1193 -61 q 1142 -108 1168 -108 l 929 -71 l 869 -71 q 493 -125 731 -71 l 485 -125 q 410 -43 410 -126 q 657 13 586 13 l 657 21 q 629 179 633 135 q 561 133 597 133 q 519 243 519 133 q 561 364 528 364 q 596 317 569 317 q 668 564 654 317 l 660 564 l 617 554 q 540 701 546 638 l 549 711 l 592 701 l 608 701 l 932 785 l 940 785 m 796 619 q 753 592 796 597 l 757 474 q 732 410 757 443 l 732 400 l 817 428 l 813 600 l 796 619 m 808 392 q 740 271 808 364 l 740 263 l 749 253 l 749 243 l 732 189 q 817 336 817 189 l 817 392 l 808 392 m 740 96 l 733 31 l 742 40 l 793 40 l 800 133 q 740 96 740 111 z "},"":{"ha":1072,"x_min":0,"x_max":1465,"o":"m 303 1042 q 415 975 415 1021 l 429 960 l 429 922 l 436 922 l 429 864 l 429 856 l 649 893 q 776 782 740 893 q 724 736 763 736 l 663 736 l 536 767 l 449 744 l 449 669 l 442 663 l 442 654 l 449 647 l 482 654 l 549 654 l 576 663 q 675 557 625 663 l 675 535 l 649 506 l 622 506 q 469 565 551 506 l 449 557 l 443 118 q 383 6 443 6 q 303 140 335 6 q 328 654 328 438 q 307 722 324 722 q 93 610 143 610 q 0 722 0 653 q 74 751 0 740 q 301 833 129 794 l 301 864 l 296 915 l 268 1004 l 268 1011 q 303 1042 272 1026 m 639 1036 q 821 872 821 1011 l 821 794 q 676 728 821 751 l 647 739 l 647 772 l 690 860 l 690 904 l 639 1004 l 639 1036 m 610 696 q 711 617 635 617 q 769 496 769 524 l 740 408 l 740 397 q 806 221 806 278 l 806 189 l 783 144 l 783 133 q 1161 44 867 133 l 1335 57 q 1465 -11 1454 44 l 1465 -33 q 1269 -154 1465 -78 l 814 10 l 706 10 q 625 144 647 10 l 633 154 l 697 154 l 726 265 q 661 453 681 265 l 661 485 q 596 640 596 506 l 596 672 l 610 696 z "},"":{"ha":688,"x_min":47,"x_max":639,"o":"m 358 126 q 479 165 422 133 q 571 203 550 203 q 620 177 601 203 q 639 113 639 151 q 619 48 639 72 q 565 24 599 24 q 478 61 546 24 q 358 99 424 93 q 394 -24 364 35 q 432 -115 432 -94 q 407 -165 432 -146 q 343 -183 382 -183 q 278 -163 303 -183 q 253 -110 253 -143 q 292 -22 253 -90 q 329 99 324 32 q 207 61 265 92 q 114 24 136 24 q 66 49 85 24 q 47 113 47 74 q 67 178 47 153 q 121 203 88 203 q 208 164 139 203 q 329 126 264 133 q 253 396 322 279 q 329 665 322 513 q 208 628 264 658 q 121 589 139 589 q 67 613 88 589 q 47 679 47 638 q 66 743 47 718 q 114 768 85 768 q 207 731 136 768 q 329 693 265 699 q 292 814 324 758 q 253 901 253 882 q 278 955 253 935 q 343 975 303 975 q 407 956 382 975 q 432 907 432 938 q 394 814 432 886 q 358 693 364 757 q 478 729 424 699 q 565 768 546 768 q 619 744 599 768 q 639 679 639 719 q 620 615 639 640 q 571 589 601 589 q 479 626 550 589 q 358 665 422 658 q 432 396 364 513 q 358 126 364 279 z "},"":{"ha":299,"x_min":0,"x_max":267,"o":"m 115 671 l 133 671 l 253 564 q 267 519 267 544 q 119 383 267 451 q 14 506 89 383 l 0 519 l 0 529 q 97 636 0 565 q 115 671 103 671 z "},"":{"ha":389,"x_min":93,"x_max":293,"o":"m 93 107 l 193 207 l 293 114 q 110 -122 256 -51 l 93 -99 q 147 -46 138 -61 q 163 4 163 -21 q 149 50 163 28 q 93 107 135 72 z "},"":{"ha":622,"x_min":93,"x_max":563,"o":"m 93 107 l 193 207 l 293 114 q 110 -122 256 -51 l 93 -99 q 147 -46 138 -61 q 163 4 163 -21 q 149 50 163 28 q 93 107 135 72 m 363 107 l 464 207 l 563 114 q 379 -122 526 -51 l 363 -99 q 417 -46 408 -61 q 433 4 433 -21 q 419 50 433 28 q 363 107 406 72 z "},"":{"ha":1046,"x_min":18,"x_max":1001,"o":"m 211 793 l 214 793 q 289 753 254 793 l 289 742 l 263 658 q 274 640 274 656 q 200 622 274 625 l 196 625 q 154 604 154 625 q 140 594 154 599 q 99 681 110 594 l 99 707 q 140 783 99 753 l 151 783 l 151 778 l 147 760 l 147 757 l 151 757 q 211 793 185 793 m 154 701 l 158 699 l 158 696 l 154 683 l 154 681 q 203 735 203 688 l 154 704 l 154 701 m 479 1051 l 485 1051 q 549 985 522 1051 l 549 968 q 460 719 549 888 q 224 236 303 349 q 31 94 96 94 l 18 119 l 18 136 q 254 485 176 331 q 440 951 367 693 l 440 985 l 433 985 l 426 976 l 421 976 l 414 985 l 414 1001 q 479 1051 440 1051 m 610 536 l 617 536 q 779 453 704 536 l 779 429 l 722 256 q 746 218 746 250 q 586 181 746 186 l 576 186 q 486 143 486 186 q 456 122 486 131 q 365 301 389 122 l 365 357 q 456 515 365 453 l 481 515 l 481 504 l 471 467 l 471 461 l 481 461 q 610 536 553 536 m 486 344 l 496 339 l 496 333 l 486 307 l 486 301 q 592 414 592 317 l 486 351 l 486 344 m 924 413 l 926 413 q 1001 372 967 413 l 1001 361 l 975 278 q 986 260 986 275 q 913 242 986 244 l 908 244 q 867 224 867 244 q 853 214 867 218 q 811 300 822 214 l 811 326 q 853 403 811 372 l 864 403 l 864 397 l 860 379 l 860 376 l 864 376 q 924 413 897 413 m 867 321 l 871 318 l 871 315 l 867 303 l 867 300 q 915 354 915 307 l 867 324 l 867 321 z "},"":{"ha":903,"x_min":24,"x_max":958,"o":"m 578 953 l 613 953 q 750 839 714 953 l 756 824 q 714 628 725 735 l 710 628 l 714 603 l 704 561 l 710 556 l 704 531 l 704 515 l 710 519 l 867 519 q 958 417 922 519 q 938 401 958 401 l 725 422 q 704 401 708 417 l 714 308 l 710 293 l 719 268 l 729 6 l 729 -6 q 704 -57 729 -46 q 450 221 450 157 l 456 226 l 461 226 q 628 144 608 144 l 633 144 l 633 154 l 639 154 l 633 217 l 633 308 l 624 365 l 624 422 q 425 365 425 396 l 425 360 l 431 335 l 419 289 l 425 268 l 415 247 l 419 242 q 308 -6 386 74 l 293 -15 l 278 -15 q 257 46 257 -15 l 257 51 q 272 118 257 118 l 293 113 q 343 371 343 244 l 181 293 l 135 257 l 119 257 q 24 356 82 257 l 24 365 q 69 381 40 381 l 354 474 q 364 603 364 503 q 333 783 364 715 l 328 824 l 333 829 l 339 829 q 385 819 349 819 q 450 726 450 783 l 446 700 l 450 700 q 526 747 499 747 l 551 747 q 608 685 608 747 q 521 510 608 586 l 521 504 l 572 510 l 624 510 q 643 856 624 776 l 633 865 q 517 808 590 853 q 461 799 497 799 l 446 799 l 415 824 q 578 953 531 953 m 425 567 l 431 561 l 431 551 l 419 494 l 419 489 l 446 489 q 492 597 492 553 l 486 613 q 425 567 425 604 m 497 1193 l 497 1188 l 514 1188 q 742 1021 742 1128 l 736 1021 l 747 993 q 725 965 736 968 l 714 965 q 564 1088 679 965 l 508 1121 l 492 1121 q 369 999 464 999 q 264 1043 283 999 q 408 1165 408 1058 l 497 1193 z "},"":{"ha":681,"x_min":33,"x_max":843,"o":"m 292 976 l 332 976 q 444 922 406 976 l 444 904 q 379 749 444 874 l 590 564 q 843 408 793 469 l 843 390 q 808 372 838 372 l 785 372 q 532 468 578 372 q 374 671 397 653 q 286 528 346 671 q 257 504 269 504 q 332 432 332 450 l 339 414 l 292 235 l 292 211 l 297 211 q 439 450 439 304 l 444 456 l 456 456 q 532 360 532 428 l 532 336 q 292 97 500 226 l 286 90 l 286 85 q 397 7 296 7 l 415 7 q 574 67 574 7 q 603 133 585 67 l 597 139 l 603 181 l 603 229 l 608 229 q 708 7 665 176 l 708 -53 q 385 -112 708 -97 q 215 -11 249 -112 l 192 79 l 174 67 l 115 67 l 86 79 l 86 90 q 197 157 106 113 l 204 186 l 210 401 l 204 401 q 68 246 129 289 l 51 246 l 33 264 q 81 385 33 385 q 310 911 240 589 q 274 964 274 932 l 292 976 m 310 1160 l 310 1154 l 326 1154 q 554 988 554 1094 l 549 988 l 560 960 q 538 932 549 935 l 526 932 q 376 1054 492 932 l 321 1088 l 304 1088 q 182 965 276 965 q 76 1010 96 965 q 221 1132 221 1025 l 310 1160 z "},"":{"ha":829,"x_min":-35,"x_max":900,"o":"m 519 940 l 554 940 q 692 826 656 940 l 697 811 q 656 615 667 722 l 651 615 l 656 590 l 646 549 l 651 543 l 646 518 l 646 503 l 651 507 l 808 507 q 900 404 864 507 q 879 389 900 389 l 667 410 q 646 389 650 404 l 656 296 l 651 281 l 661 256 l 671 -7 l 671 -18 q 646 -69 671 -58 q 392 208 392 144 l 397 214 l 403 214 q 569 132 550 132 l 575 132 l 575 142 l 581 142 l 575 204 l 575 296 l 565 353 l 565 410 q 367 353 367 383 l 367 347 l 372 322 l 361 276 l 367 256 l 357 235 l 361 229 q 250 -18 328 61 l 235 -28 l 219 -28 q 199 33 199 -28 l 199 39 q 214 106 199 106 l 235 100 q 285 358 285 232 l 122 281 l 76 244 l 61 244 q -35 343 24 244 l -35 353 q 11 368 -18 368 l 296 461 q 306 590 306 490 q 275 771 306 703 l 269 811 l 275 817 l 281 817 q 326 807 290 807 q 392 714 392 771 l 388 688 l 392 688 q 468 735 440 735 l 493 735 q 550 672 550 735 q 463 497 550 574 l 463 492 l 514 497 l 565 497 q 585 843 565 764 l 575 853 q 458 796 532 840 q 403 786 439 786 l 388 786 l 357 811 q 519 940 472 940 m 367 554 l 372 549 l 372 539 l 361 482 l 361 476 l 388 476 q 433 585 433 540 l 428 600 q 367 554 367 592 m 658 1181 q 688 1160 688 1178 l 688 1153 l 506 981 l 490 981 l 476 994 l 476 1036 q 658 1181 476 1150 z "},"":{"ha":613,"x_min":-18,"x_max":792,"o":"m 240 1007 l 281 1007 q 393 953 354 1007 l 393 935 q 328 779 393 904 l 539 594 q 792 439 742 500 l 792 421 q 757 403 786 403 l 733 403 q 481 499 526 403 q 322 701 346 683 q 235 558 294 701 q 206 535 218 535 q 281 463 281 481 l 288 444 l 240 265 l 240 242 l 246 242 q 388 481 388 335 l 393 486 l 404 486 q 481 390 481 458 l 481 367 q 240 128 449 257 l 235 121 l 235 115 q 346 38 244 38 l 364 38 q 522 97 522 38 q 551 164 533 97 l 546 169 l 551 211 l 551 260 l 557 260 q 657 38 614 207 l 657 -22 q 333 -82 657 -67 q 164 19 197 -82 l 140 110 l 122 97 l 64 97 l 35 110 l 35 121 q 146 188 54 143 l 153 217 l 158 432 l 153 432 q 17 276 78 319 l 0 276 l -18 294 q 29 415 -18 415 q 258 942 189 619 q 222 994 222 963 l 240 1007 m 247 1221 l 250 1221 q 325 1181 290 1221 l 325 1169 l 299 1086 q 310 1068 310 1083 q 236 1050 310 1053 l 232 1053 q 190 1032 190 1053 q 176 1022 190 1026 q 135 1108 146 1022 l 135 1135 q 176 1211 135 1181 l 188 1211 l 188 1206 l 183 1188 l 183 1185 l 188 1185 q 247 1221 221 1221 m 190 1129 l 194 1126 l 194 1124 l 190 1111 l 190 1108 q 239 1163 239 1115 l 190 1132 l 190 1129 m 482 1225 l 485 1225 q 560 1185 525 1225 l 560 1174 l 533 1090 q 544 1072 544 1088 q 471 1054 544 1057 l 467 1057 q 425 1036 425 1057 q 411 1026 425 1031 q 369 1113 381 1026 l 369 1139 q 411 1215 369 1185 l 422 1215 l 422 1210 l 418 1192 l 418 1189 l 422 1189 q 482 1225 456 1225 m 425 1133 l 429 1131 l 429 1128 l 425 1115 l 425 1113 q 474 1167 474 1119 l 425 1136 l 425 1133 z "},"":{"ha":597,"x_min":-49,"x_max":761,"o":"m 210 925 l 250 925 q 363 871 324 925 l 363 853 q 297 697 363 822 l 508 513 q 761 357 711 418 l 761 339 q 726 321 756 321 l 703 321 q 450 417 496 321 q 292 619 315 601 q 204 476 264 619 q 175 453 188 453 q 250 381 250 399 l 257 363 l 210 183 l 210 160 l 215 160 q 357 399 357 253 l 363 404 l 374 404 q 450 308 450 376 l 450 285 q 210 46 418 175 l 204 39 l 204 33 q 315 -44 214 -44 l 333 -44 q 492 15 492 -44 q 521 82 503 15 l 515 88 l 521 129 l 521 178 l 526 178 q 626 -44 583 125 l 626 -104 q 303 -164 626 -149 q 133 -62 167 -164 l 110 28 l 92 15 l 33 15 l 4 28 l 4 39 q 115 106 24 61 l 122 135 l 128 350 l 122 350 q -14 194 47 238 l -31 194 l -49 213 q -1 333 -49 333 q 228 860 158 538 q 192 913 192 881 l 210 925 m 35 1197 q 199 1040 199 1164 l 199 996 l 186 981 l 172 981 l 8 1167 l 8 1175 q 35 1197 8 1193 z "},"":{"ha":774,"x_min":4,"x_max":788,"o":"m 535 897 q 619 814 558 897 q 510 750 619 778 l 518 713 l 514 606 l 522 558 l 496 457 l 496 439 q 574 568 549 489 l 547 596 l 574 624 l 582 624 q 683 513 640 624 q 506 274 660 424 l 471 218 l 464 153 l 676 171 q 788 60 715 171 l 788 51 q 736 4 763 4 l 524 42 l 464 42 q 88 -12 325 42 l 79 -12 q 4 69 4 -14 q 251 125 181 125 l 251 133 q 224 292 228 247 q 156 246 192 246 q 114 356 114 246 q 156 476 122 476 q 190 429 164 429 q 263 676 249 429 l 254 676 l 211 667 q 135 814 140 750 l 143 824 l 186 814 l 203 814 l 526 897 l 535 897 m 390 732 q 347 704 390 710 l 351 586 q 326 522 351 556 l 326 513 l 411 540 l 407 713 l 390 732 m 403 504 q 335 383 403 476 l 335 375 l 343 365 l 343 356 l 326 301 q 411 449 411 301 l 411 504 l 403 504 m 335 208 l 328 143 l 336 153 l 388 153 l 394 246 q 335 208 335 224 m 544 1071 q 574 1050 574 1068 l 574 1043 l 392 871 l 376 871 l 363 885 l 363 926 q 544 1071 363 1040 z "},"":{"ha":815,"x_min":24,"x_max":807,"o":"m 554 896 q 639 813 578 896 q 529 749 639 776 l 538 711 l 533 604 l 542 557 l 515 456 l 515 438 q 593 567 568 488 l 567 594 l 593 622 l 601 622 q 703 511 660 622 q 525 272 679 422 l 490 217 l 483 151 l 696 169 q 807 58 735 169 l 807 50 q 756 3 782 3 l 543 40 l 483 40 q 107 -14 344 40 l 99 -14 q 24 68 24 -15 q 271 124 200 124 l 271 132 q 243 290 247 246 q 175 244 211 244 q 133 354 133 244 q 175 475 142 475 q 210 428 183 428 q 282 675 268 428 l 274 675 l 231 665 q 154 813 160 749 l 163 822 l 206 813 l 222 813 l 546 896 l 554 896 m 410 731 q 367 703 410 708 l 371 585 q 346 521 371 554 l 346 511 l 431 539 l 426 711 l 410 731 m 422 503 q 354 382 422 475 l 354 374 l 363 364 l 363 354 l 346 300 q 431 447 431 300 l 431 503 l 422 503 m 354 207 l 347 142 l 356 151 l 407 151 l 414 244 q 354 207 354 222 m 322 1160 l 322 1154 l 339 1154 q 567 988 567 1094 l 561 988 l 572 960 q 550 932 561 935 l 539 932 q 389 1054 504 932 l 333 1088 l 317 1088 q 194 965 289 965 q 89 1010 108 965 q 233 1132 233 1025 l 322 1160 z "},"":{"ha":792,"x_min":8,"x_max":792,"o":"m 539 942 q 624 858 563 942 q 514 794 624 822 l 522 757 l 518 650 l 526 603 l 500 501 l 500 483 q 578 613 553 533 l 551 640 l 578 668 l 586 668 q 688 557 644 668 q 510 318 664 468 l 475 263 l 468 197 l 681 215 q 792 104 719 215 l 792 96 q 740 49 767 49 l 528 86 l 468 86 q 92 32 329 86 l 83 32 q 8 114 8 31 q 256 169 185 169 l 256 178 q 228 336 232 292 q 160 290 196 290 q 118 400 118 290 q 160 521 126 521 q 194 474 168 474 q 267 721 253 474 l 258 721 l 215 711 q 139 858 144 794 l 147 868 l 190 858 l 207 858 l 531 942 l 539 942 m 394 776 q 351 749 394 754 l 356 631 q 331 567 356 600 l 331 557 l 415 585 l 411 757 l 394 776 m 407 549 q 339 428 407 521 l 339 419 l 347 410 l 347 400 l 331 346 q 415 493 415 346 l 415 549 l 407 549 m 339 253 l 332 188 l 340 197 l 392 197 l 399 290 q 339 253 339 268 m 307 1083 l 310 1083 q 385 1043 350 1083 l 385 1032 l 358 949 q 369 931 369 946 q 296 913 369 915 l 292 915 q 250 894 250 915 q 236 885 250 889 q 194 971 206 885 l 194 997 q 236 1074 194 1043 l 247 1074 l 247 1068 l 243 1050 l 243 1047 l 247 1047 q 307 1083 281 1083 m 250 992 l 254 989 l 254 986 l 250 974 l 250 971 q 299 1025 299 978 l 250 994 l 250 992 m 542 1088 l 544 1088 q 619 1047 585 1088 l 619 1036 l 593 953 q 604 935 604 950 q 531 917 604 919 l 526 919 q 485 899 485 919 q 471 889 485 893 q 429 975 440 889 l 429 1001 q 471 1078 429 1047 l 482 1078 l 482 1072 l 478 1054 l 478 1051 l 482 1051 q 542 1088 515 1088 m 485 996 l 489 993 l 489 990 l 485 978 l 485 975 q 533 1029 533 982 l 485 999 l 485 996 z "},"":{"ha":813,"x_min":0,"x_max":783,"o":"m 531 942 q 615 858 554 942 q 506 794 615 822 l 514 757 l 510 650 l 518 603 l 492 501 l 492 483 q 569 613 544 533 l 543 640 l 569 668 l 578 668 q 679 557 636 668 q 501 318 656 468 l 467 263 l 460 197 l 672 215 q 783 104 711 215 l 783 96 q 732 49 758 49 l 519 86 l 460 86 q 83 32 321 86 l 75 32 q 0 114 0 31 q 247 169 176 169 l 247 178 q 219 336 224 292 q 151 290 188 290 q 110 400 110 290 q 151 521 118 521 q 186 474 160 474 q 258 721 244 474 l 250 721 l 207 711 q 131 858 136 794 l 139 868 l 182 858 l 199 858 l 522 942 l 531 942 m 386 776 q 343 749 386 754 l 347 631 q 322 567 347 600 l 322 557 l 407 585 l 403 757 l 386 776 m 399 549 q 331 428 399 521 l 331 419 l 339 410 l 339 400 l 322 346 q 407 493 407 346 l 407 549 l 399 549 m 331 253 l 324 188 l 332 197 l 383 197 l 390 290 q 331 253 331 268 m 156 1035 q 319 878 319 1001 l 319 833 l 307 818 l 293 818 l 129 1004 l 129 1013 q 156 1035 129 1031 z "},"":{"ha":725,"x_min":21,"x_max":711,"o":"m 428 944 l 489 944 q 703 596 703 876 l 711 431 q 504 -17 711 -17 q 313 42 410 -3 l 267 25 q 44 190 44 78 q 21 307 29 190 q 121 813 21 421 l 128 821 l 136 821 q 213 663 213 733 l 143 531 l 158 531 q 328 621 328 590 l 335 663 l 335 704 l 297 696 l 289 704 l 289 713 l 304 771 l 258 754 l 251 754 l 221 788 q 428 944 321 944 m 367 796 l 367 779 l 389 779 q 443 721 443 779 l 443 688 q 543 581 543 649 q 428 522 543 547 l 397 406 q 581 356 485 406 l 589 356 l 589 604 q 519 836 572 836 l 504 836 l 367 796 m 206 422 l 136 439 q 97 299 113 410 q 189 157 97 215 l 189 165 q 121 307 121 271 l 136 307 l 228 215 q 282 324 240 215 q 236 347 236 333 l 236 356 q 304 397 236 371 l 313 472 q 206 422 243 422 m 289 190 l 289 182 l 304 165 l 313 165 l 335 182 l 350 182 l 350 165 l 343 157 l 343 149 q 419 124 382 124 l 465 124 q 574 215 574 140 l 574 224 q 397 307 539 224 q 335 224 372 303 l 289 190 m 618 1219 q 647 1199 647 1217 l 647 1192 l 465 1019 l 450 1019 l 436 1033 l 436 1075 q 618 1219 436 1189 z "},"":{"ha":733,"x_min":8,"x_max":699,"o":"m 415 939 l 476 939 q 690 590 690 871 l 699 425 q 492 -22 699 -22 q 300 36 397 -8 l 254 19 q 32 185 32 72 q 8 301 17 185 q 108 807 8 415 l 115 815 l 124 815 q 200 657 200 728 l 131 525 l 146 525 q 315 615 315 585 l 322 657 l 322 699 l 285 690 l 276 699 l 276 707 l 292 765 l 246 749 l 239 749 l 208 782 q 415 939 308 939 m 354 790 l 354 774 l 376 774 q 431 715 431 774 l 431 682 q 531 575 531 643 q 415 517 531 542 l 385 400 q 568 350 472 400 l 576 350 l 576 599 q 507 831 560 831 l 492 831 l 354 790 m 193 417 l 124 433 q 85 293 100 404 q 176 151 85 210 l 176 160 q 108 301 108 265 l 124 301 l 215 210 q 269 318 228 210 q 224 342 224 328 l 224 350 q 292 392 224 365 l 300 467 q 193 417 231 417 m 276 185 l 276 176 l 292 160 l 300 160 l 322 176 l 338 176 l 338 160 l 331 151 l 331 143 q 407 118 369 118 l 453 118 q 561 210 561 135 l 561 218 q 385 301 526 218 q 322 218 360 297 l 276 185 m 304 1315 l 304 1310 l 321 1310 q 549 1143 549 1250 l 543 1143 l 554 1115 q 532 1088 543 1090 l 521 1088 q 371 1210 486 1088 l 315 1243 l 299 1243 q 176 1121 271 1121 q 71 1165 90 1121 q 215 1288 215 1181 l 304 1315 z "},"":{"ha":999,"x_min":78,"x_max":903,"o":"m 507 713 q 506 736 506 721 q 565 881 506 817 q 701 956 622 940 q 703 918 703 943 q 647 781 703 847 q 521 713 589 713 l 515 713 q 511 713 514 713 q 507 713 508 713 m 903 218 q 813 49 850 99 q 660 -49 743 -49 q 583 -28 633 -49 q 510 -8 533 -8 q 433 -28 483 -8 q 357 -49 382 -49 q 204 58 281 -49 q 78 421 78 236 q 147 633 78 550 q 343 722 221 722 q 431 701 376 722 q 508 681 486 681 q 583 702 528 681 q 671 724 638 724 q 883 624 799 724 q 765 424 765 546 q 903 218 765 282 z "},"":{"ha":1111,"x_min":29,"x_max":719,"o":"m 436 867 l 497 867 q 711 518 711 799 l 719 353 q 513 -94 719 -94 q 321 -36 418 -81 l 275 -53 q 53 113 53 0 q 29 229 38 113 q 129 735 29 343 l 136 743 l 144 743 q 221 585 221 656 l 151 453 l 167 453 q 336 543 336 513 l 343 585 l 343 626 l 306 618 l 297 626 l 297 635 l 313 693 l 267 676 l 260 676 l 229 710 q 436 867 329 867 m 375 718 l 375 701 l 397 701 q 451 643 451 701 l 451 610 q 551 503 551 571 q 436 444 551 469 l 406 328 q 589 278 493 328 l 597 278 l 597 526 q 528 758 581 758 l 513 758 l 375 718 m 214 344 l 144 361 q 106 221 121 332 q 197 79 106 138 l 197 88 q 129 229 129 193 l 144 229 l 236 138 q 290 246 249 138 q 244 269 244 256 l 244 278 q 313 319 244 293 l 321 394 q 214 344 251 344 m 297 113 l 297 104 l 313 88 l 321 88 l 343 104 l 358 104 l 358 88 l 351 79 l 351 71 q 428 46 390 46 l 474 46 q 582 138 582 63 l 582 146 q 406 229 547 146 q 343 146 381 225 l 297 113 m 331 1210 q 494 1053 494 1176 l 494 1008 l 482 993 l 468 993 l 304 1179 l 304 1188 q 331 1210 304 1206 z "},"":{"ha":804,"x_min":-4,"x_max":811,"o":"m 457 846 l 463 846 q 551 746 524 846 l 551 496 l 540 435 l 540 424 q 635 551 563 424 l 635 568 q 607 579 607 568 l 607 590 q 657 618 621 618 q 751 524 697 618 l 751 518 q 546 251 751 449 q 518 151 546 178 l 529 140 l 557 140 q 782 25 733 99 l 797 -6 q 783 -62 811 -42 q 474 24 663 24 l 424 24 q 90 -72 160 24 q -4 61 17 -11 q 79 85 17 72 q 229 124 118 107 q 190 251 190 186 l 179 251 q 101 196 133 196 q 46 301 46 196 q 79 429 46 347 l 90 429 l 113 407 l 107 374 l 113 374 q 201 463 201 388 q 285 679 232 679 l 290 685 l 307 651 l 296 601 l 296 529 l 279 463 l 285 463 l 385 507 l 401 507 l 413 496 l 413 485 q 290 357 290 378 l 290 335 l 296 307 l 290 307 l 296 290 l 290 240 l 296 240 q 440 318 440 292 l 451 651 l 446 729 l 440 729 l 407 724 q 396 785 396 746 l 396 790 q 457 846 419 846 m 296 146 l 296 135 l 401 146 l 451 146 l 446 213 q 307 185 407 185 q 296 146 307 158 m 458 1033 q 488 1013 488 1031 l 488 1006 l 306 833 l 290 833 l 276 847 l 276 889 q 458 1033 276 1003 z "},"":{"ha":828,"x_min":0,"x_max":815,"o":"m 461 885 l 467 885 q 556 785 528 885 l 556 535 l 544 474 l 544 463 q 639 590 567 463 l 639 607 q 611 618 611 607 l 611 629 q 661 657 625 657 q 756 563 701 657 l 756 557 q 550 290 756 488 q 522 190 550 217 l 533 179 l 561 179 q 786 64 738 138 l 801 33 q 788 -24 815 -3 q 478 63 667 63 l 428 63 q 94 -33 164 63 q 0 100 21 28 q 83 124 21 111 q 233 163 122 146 q 194 290 194 225 l 183 290 q 106 235 138 235 q 50 340 50 235 q 83 468 50 386 l 94 468 l 117 446 l 111 413 l 117 413 q 206 501 206 426 q 289 718 236 718 l 294 724 l 311 690 l 300 640 l 300 568 l 283 501 l 289 501 l 389 546 l 406 546 l 417 535 l 417 524 q 294 396 294 417 l 294 374 l 300 346 l 294 346 l 300 329 l 294 279 l 300 279 q 444 357 444 331 l 456 690 l 450 768 l 444 768 l 411 763 q 400 824 400 785 l 400 829 q 461 885 424 885 m 300 185 l 300 174 l 406 185 l 456 185 l 450 251 q 311 224 411 224 q 300 185 311 197 m 314 1221 l 314 1215 l 331 1215 q 558 1049 558 1156 l 553 1049 l 564 1021 q 542 993 553 996 l 531 993 q 381 1115 496 993 l 325 1149 l 308 1149 q 186 1026 281 1026 q 81 1071 100 1026 q 225 1193 225 1086 l 314 1221 z "},"":{"ha":831,"x_min":6,"x_max":821,"o":"m 467 863 l 472 863 q 561 763 533 863 l 561 513 l 550 451 l 550 440 q 644 568 572 440 l 644 585 q 617 596 617 585 l 617 607 q 667 635 631 635 q 761 540 707 635 l 761 535 q 556 268 761 465 q 528 168 556 194 l 539 157 l 567 157 q 792 42 743 115 l 807 11 q 793 -46 821 -25 q 483 40 672 40 l 433 40 q 100 -56 169 40 q 6 78 26 6 q 89 101 26 89 q 239 140 128 124 q 200 268 200 203 l 189 268 q 111 213 143 213 q 56 318 56 213 q 89 446 56 364 l 100 446 l 122 424 l 117 390 l 122 390 q 211 479 211 404 q 294 696 242 696 l 300 701 l 317 668 l 306 618 l 306 546 l 289 479 l 294 479 l 394 524 l 411 524 l 422 513 l 422 501 q 300 374 300 394 l 300 351 l 306 324 l 300 324 l 306 307 l 300 257 l 306 257 q 450 335 450 308 l 461 668 l 456 746 l 450 746 l 417 740 q 406 801 406 763 l 406 807 q 467 863 429 863 m 306 163 l 306 151 l 411 163 l 461 163 l 456 229 q 317 201 417 201 q 306 163 317 175 m 172 1049 q 336 892 336 1015 l 336 847 l 324 832 l 310 832 l 146 1018 l 146 1026 q 172 1049 146 1044 z "},"":{"ha":794,"x_min":0,"x_max":783,"o":"m 528 857 q 613 774 551 857 q 503 710 613 738 l 511 672 l 503 618 l 511 571 l 485 469 l 485 451 q 563 581 538 501 l 536 608 l 563 636 l 571 636 q 672 525 629 636 q 494 286 649 436 l 460 231 l 460 213 l 672 231 q 783 119 711 231 l 783 111 q 732 64 758 64 l 519 101 l 460 101 q 76 0 321 101 l 68 0 q 0 129 0 46 q 247 185 176 185 l 247 193 q 213 304 232 304 q 144 258 181 258 q 103 368 103 258 q 144 489 111 489 q 179 442 153 442 q 256 636 238 442 l 247 636 l 204 626 q 128 774 133 710 l 136 783 l 179 774 l 196 774 l 519 857 l 528 857 m 383 692 q 340 664 383 669 l 340 599 q 315 535 340 568 l 315 525 l 400 553 l 400 672 l 383 692 m 392 517 q 324 396 392 489 l 324 388 l 332 378 l 332 368 l 315 314 q 400 461 400 314 l 400 517 l 392 517 m 324 221 l 324 203 l 332 213 l 383 213 l 383 258 q 324 221 324 236 z "},"":{"ha":621,"x_min":86,"x_max":569,"o":"m 319 1114 l 319 1108 l 336 1108 q 564 942 564 1049 l 558 942 l 569 914 q 547 886 558 889 l 536 886 q 386 1008 501 886 l 331 1042 l 314 1042 q 192 919 286 919 q 86 964 106 919 q 231 1086 231 979 l 319 1114 z "},"":{"ha":0,"x_min":156,"x_max":653,"o":"m 361 913 q 490 851 397 913 q 549 836 524 836 q 647 913 594 836 l 653 913 l 653 906 q 511 790 581 790 q 419 833 478 790 q 340 854 378 854 l 339 854 q 236 788 261 854 q 211 772 224 772 l 207 772 q 156 818 156 782 l 156 829 q 163 847 156 846 l 183 847 l 186 844 l 189 844 q 181 822 181 833 l 181 813 q 207 790 186 790 q 239 840 219 790 q 361 913 299 913 m 331 843 l 340 843 q 456 786 386 843 l 485 783 l 493 783 q 604 826 550 783 l 607 826 l 607 825 q 472 740 569 767 l 447 736 q 361 782 374 758 q 294 806 325 804 l 250 794 l 250 800 q 331 843 282 843 z "},"":{"ha":0,"x_min":215,"x_max":593,"o":"m 593 892 q 528 794 556 794 l 243 792 q 232 779 233 785 l 215 789 q 250 856 247 851 q 297 889 269 889 l 544 888 q 576 903 568 888 l 593 892 z "},"":{"ha":0,"x_min":176,"x_max":603,"o":"m 603 925 q 474 799 529 836 q 388 767 426 767 q 322 788 357 767 q 194 888 282 813 l 186 885 l 176 903 l 279 968 q 375 872 351 890 q 411 858 393 858 q 469 872 442 858 q 563 953 514 894 l 603 925 z "},"":{"ha":0,"x_min":318,"x_max":504,"o":"m 504 869 q 476 829 504 856 q 396 749 428 783 l 379 764 q 379 781 386 774 q 368 794 372 789 q 354 831 368 807 q 318 869 340 854 q 377 912 358 897 q 419 949 396 926 q 482 901 450 925 q 504 869 504 883 z "},"":{"ha":0,"x_min":236,"x_max":531,"o":"m 531 989 q 438 783 471 817 q 354 750 404 750 q 271 783 306 750 q 236 867 236 817 q 271 950 236 915 q 354 985 306 985 q 436 950 401 985 q 531 989 471 915 m 418 867 q 410 901 418 893 q 354 932 401 910 q 308 913 326 932 q 289 867 289 894 q 308 820 289 839 q 354 801 326 801 q 400 819 382 801 q 418 867 418 838 z "},"":{"ha":0,"x_min":169,"x_max":378,"o":"m 378 -115 q 238 -296 378 -144 l 200 -269 q 261 -187 261 -204 q 238 -157 261 -172 q 169 -125 214 -142 q 232 -51 210 -78 q 290 25 271 -6 l 328 25 l 288 -32 q 358 -81 339 -61 q 378 -115 378 -100 z "},"":{"ha":0,"x_min":172,"x_max":610,"o":"m 535 1010 q 578 968 551 1010 q 610 896 610 944 q 596 865 606 865 q 549 833 596 846 q 518 819 547 829 q 485 810 518 815 q 447 783 450 792 l 460 768 q 406 732 446 732 l 404 732 l 400 736 q 419 743 411 743 l 419 749 q 385 788 385 778 l 385 793 q 453 871 385 819 q 513 878 489 878 l 513 881 q 469 942 469 900 q 529 1010 469 979 l 535 1010 m 303 965 q 340 929 315 965 q 367 865 367 908 q 354 839 364 839 q 314 811 354 822 q 288 800 313 807 q 258 792 288 796 q 226 768 228 775 l 236 756 q 190 724 225 724 l 189 724 l 186 726 q 203 733 196 733 l 203 739 q 172 772 172 764 l 172 776 q 232 844 172 800 q 282 851 261 851 l 282 853 q 244 906 244 869 q 297 965 244 939 l 303 965 z "},"":{"ha":0,"x_min":176,"x_max":450,"o":"m 450 -137 l 329 -257 q 222 -224 267 -257 q 176 -144 176 -192 q 319 69 176 -112 l 357 69 q 292 -28 307 0 q 276 -83 276 -57 q 300 -135 276 -108 q 356 -161 324 -161 q 371 -156 365 -161 q 417 -112 390 -136 l 450 -137 z "},"":{"ha":0,"x_min":144,"x_max":565,"o":"m 565 954 q 429 822 556 943 q 360 749 383 778 q 243 856 313 799 q 172 907 181 907 l 153 904 l 144 919 l 269 988 q 332 935 301 965 q 393 874 363 904 q 450 928 410 894 q 514 985 490 961 l 565 954 z "},"":{"ha":925,"x_min":15,"x_max":900,"o":"m 74 975 q 256 811 256 950 l 256 733 q 111 667 256 690 l 82 678 l 82 711 l 125 799 l 125 843 l 74 943 l 74 975 m 44 635 q 146 556 69 556 q 204 435 204 463 l 175 347 l 175 336 q 240 160 240 217 l 240 128 l 218 83 l 218 72 q 596 -17 301 72 l 769 -4 q 900 -72 889 -17 l 900 -94 q 704 -215 900 -139 l 249 -51 l 140 -51 q 60 83 82 -51 l 68 93 l 132 93 l 161 204 q 96 392 115 204 l 96 424 q 31 579 31 444 l 31 611 l 44 635 m 197 343 q 226 322 226 340 l 226 315 l 44 143 l 29 143 l 15 157 l 15 199 q 197 343 15 313 m 346 463 q 375 442 375 460 l 375 435 l 193 263 l 178 263 l 164 276 l 164 318 q 346 463 164 432 z "},"":{"ha":925,"x_min":15,"x_max":900,"o":"m 74 975 q 256 811 256 950 l 256 733 q 111 667 256 690 l 82 678 l 82 711 l 125 799 l 125 843 l 74 943 l 74 975 m 44 635 q 146 556 69 556 q 204 435 204 463 l 175 347 l 175 336 q 240 160 240 217 l 240 128 l 218 83 l 218 72 q 596 -17 301 72 l 769 -4 q 900 -72 889 -17 l 900 -94 q 704 -215 900 -139 l 249 -51 l 140 -51 q 60 83 82 -51 l 68 93 l 132 93 l 161 204 q 96 392 115 204 l 96 424 q 31 579 31 444 l 31 611 l 44 635 m 197 343 q 226 322 226 340 l 226 315 l 44 143 l 29 143 l 15 157 l 15 199 q 197 343 15 313 m 346 463 q 375 442 375 460 l 375 435 l 193 263 l 178 263 l 164 276 l 164 318 q 346 463 164 432 z "},"":{"ha":685,"x_min":28,"x_max":638,"o":"m 421 979 q 550 893 504 979 l 556 858 q 468 613 556 826 l 433 585 l 433 572 l 479 572 q 632 464 550 572 l 638 429 q 351 -22 503 -22 q 188 167 282 -22 l 193 172 l 217 172 q 333 121 272 132 l 346 121 q 463 286 419 158 l 486 401 l 486 469 l 479 475 l 479 482 q 171 385 239 447 l 142 385 q 89 436 89 392 q 153 607 89 479 l 158 676 l 147 768 l 153 774 l 188 774 q 258 710 258 768 l 258 647 q 222 533 258 603 l 229 533 l 333 556 q 288 699 288 654 l 293 704 l 299 704 q 333 658 333 675 l 351 658 q 410 825 410 765 l 410 836 l 404 842 l 404 847 q 188 796 404 825 q 142 842 142 801 q 421 979 404 979 m 333 378 l 386 378 q 450 321 450 367 l 450 304 q 222 224 450 275 q 147 201 181 201 l 142 201 q 42 293 42 238 q 222 350 53 306 q 333 378 222 365 m 261 1310 l 261 1304 l 278 1304 q 506 1138 506 1244 l 500 1138 l 511 1110 q 489 1082 500 1085 l 478 1082 q 328 1204 443 1082 l 272 1238 l 256 1238 q 133 1115 228 1115 q 28 1160 47 1115 q 172 1282 172 1175 l 261 1310 z "},"":{"ha":685,"x_min":28,"x_max":624,"o":"m 407 979 q 536 893 490 979 l 542 858 q 454 613 542 826 l 419 585 l 419 572 l 465 572 q 618 464 536 572 l 624 429 q 338 -22 489 -22 q 174 167 268 -22 l 179 172 l 203 172 q 319 121 258 132 l 332 121 q 449 286 406 158 l 472 401 l 472 469 l 465 475 l 465 482 q 157 385 225 447 l 128 385 q 75 436 75 392 q 139 607 75 479 l 144 676 l 133 768 l 139 774 l 174 774 q 244 710 244 768 l 244 647 q 208 533 244 603 l 215 533 l 319 556 q 274 699 274 654 l 279 704 l 285 704 q 319 658 319 675 l 338 658 q 396 825 396 765 l 396 836 l 390 842 l 390 847 q 174 796 390 825 q 128 842 128 801 q 407 979 390 979 m 319 378 l 372 378 q 436 321 436 367 l 436 304 q 208 224 436 275 q 133 201 167 201 l 128 201 q 28 293 28 238 q 208 350 39 306 q 319 378 208 365 m 349 1178 l 349 1172 l 365 1172 q 593 1006 593 1113 l 588 1006 l 599 978 q 576 950 588 953 l 565 950 q 415 1072 531 950 l 360 1106 l 343 1106 q 221 983 315 983 q 115 1028 135 983 q 260 1150 260 1043 l 349 1178 z "},"":{"ha":692,"x_min":-35,"x_max":738,"o":"m 246 1333 l 246 1328 l 263 1328 q 490 1161 490 1268 l 485 1161 l 496 1133 q 474 1106 485 1108 l 463 1106 q 313 1228 428 1106 l 257 1261 l 240 1261 q 118 1139 213 1139 q 13 1183 32 1139 q 157 1306 157 1199 l 246 1333 m 446 868 l 449 868 l 472 879 l 472 882 l 467 882 q 446 868 453 882 m 346 1042 l 357 1042 q 524 943 442 1042 l 524 932 q 456 846 524 871 l 381 790 q 565 681 514 790 q 483 546 565 624 q 225 269 304 301 l 225 264 l 231 264 q 542 307 338 288 l 513 411 l 513 417 l 524 429 l 531 429 q 703 251 604 429 l 738 160 q 674 0 738 50 l 657 0 q 617 129 643 0 l 593 178 l 588 172 l 582 172 l 547 178 q 185 74 357 178 q 132 43 161 43 q 17 165 79 43 l 11 196 l 11 226 q 86 307 11 307 q 260 472 153 349 q 403 686 388 621 l 403 699 l 397 699 l 381 693 l 351 699 l 340 699 q 132 496 308 699 q 0 411 33 411 q -35 533 -18 411 q 104 643 -35 564 q 156 693 104 658 q 335 986 335 913 l 335 999 l 328 1029 l 346 1042 z "},"":{"ha":753,"x_min":-35,"x_max":738,"o":"m 253 1333 l 253 1328 l 269 1328 q 497 1161 497 1268 l 492 1161 l 503 1133 q 481 1106 492 1108 l 469 1106 q 319 1228 435 1106 l 264 1261 l 247 1261 q 125 1139 219 1139 q 19 1183 39 1139 q 164 1306 164 1199 l 253 1333 m 446 868 l 449 868 l 472 879 l 472 882 l 467 882 q 446 868 453 882 m 346 1042 l 357 1042 q 524 943 442 1042 l 524 932 q 456 846 524 871 l 381 790 q 565 681 514 790 q 483 546 565 624 q 225 269 304 301 l 225 264 l 231 264 q 542 307 338 288 l 513 411 l 513 417 l 524 429 l 531 429 q 703 251 604 429 l 738 160 q 674 0 738 50 l 657 0 q 617 129 643 0 l 593 178 l 588 172 l 582 172 l 547 178 q 185 74 357 178 q 132 43 161 43 q 17 165 79 43 l 11 196 l 11 226 q 86 307 11 307 q 260 472 153 349 q 403 686 388 621 l 403 699 l 397 699 l 381 693 l 351 699 l 340 699 q 132 496 308 699 q 0 411 33 411 q -35 533 -18 411 q 104 643 -35 564 q 156 693 104 658 q 335 986 335 913 l 335 999 l 328 1029 l 346 1042 z "},"":{"ha":785,"x_min":326,"x_max":453,"o":"m 326 967 l 453 967 l 453 472 l 326 472 l 326 967 m 326 306 l 453 306 l 453 -187 l 326 -187 l 326 306 z "},"":{"ha":822,"x_min":15,"x_max":736,"o":"m 551 939 q 736 793 654 906 q 581 153 697 522 q 406 -3 482 4 q 278 221 379 14 l 268 231 l 258 231 q 44 -12 138 -12 l 35 -12 l 15 7 l 151 279 q 307 744 307 654 l 297 744 l 161 715 l 142 744 q 406 910 263 910 q 551 939 406 939 m 317 376 q 415 221 363 274 l 425 221 q 594 682 488 271 l 581 803 q 406 599 461 803 l 317 376 m 468 758 l 551 758 l 579 750 l 607 758 q 704 671 671 758 q 642 615 692 615 l 614 615 l 503 624 l 447 608 l 440 615 l 440 624 l 496 688 l 489 688 q 182 560 213 590 q 133 544 182 544 q 36 624 68 544 l 36 632 q 258 726 36 656 q 468 758 394 758 z "},"":{"ha":822,"x_min":15,"x_max":742,"o":"m 553 939 q 738 793 656 906 q 582 153 699 522 q 407 -3 483 4 q 279 221 381 14 l 269 231 l 260 231 q 46 -12 139 -12 l 36 -12 l 17 7 l 153 279 q 308 744 308 654 l 299 744 l 163 715 l 143 744 q 407 910 264 910 q 553 939 407 939 m 318 376 q 417 221 364 274 l 426 221 q 596 682 489 271 l 582 803 q 407 599 463 803 l 318 376 m 288 629 q 489 554 343 629 q 579 535 540 535 q 733 629 650 535 l 742 629 l 742 621 q 521 479 629 479 q 378 532 469 479 q 256 557 314 557 l 253 557 q 93 475 132 557 q 54 457 74 457 l 47 457 q 47 479 15 479 q 97 540 67 479 q 288 629 190 629 m 240 544 l 256 544 q 435 474 326 544 l 481 471 l 493 471 q 665 524 582 471 l 669 524 l 669 522 q 461 418 611 450 l 422 413 q 288 469 307 440 q 183 497 232 496 l 115 485 l 115 492 q 240 544 164 544 z "},"":{"ha":650,"x_min":21,"x_max":631,"o":"m 447 986 l 494 986 q 631 872 579 986 q 418 596 607 758 l 408 568 l 428 511 l 428 388 l 418 339 l 428 282 l 428 92 q 379 -12 413 -12 l 350 -12 q 224 178 224 85 l 292 158 l 311 215 l 311 406 q 204 635 311 565 q 50 710 160 710 l 21 749 l 21 758 q 118 815 60 815 l 138 815 q 321 682 321 754 l 321 643 l 331 643 q 476 910 468 782 l 467 910 l 408 900 q 369 929 369 915 l 369 949 q 447 986 369 972 m 376 1081 q 406 1060 406 1078 l 406 1053 l 224 881 l 208 881 l 194 894 l 194 936 q 376 1081 194 1050 z "},"":{"ha":647,"x_min":15,"x_max":625,"o":"m 442 992 l 489 992 q 625 878 574 992 q 413 601 601 764 l 403 574 l 422 517 l 422 393 l 413 344 l 422 288 l 422 97 q 374 -7 407 -7 l 344 -7 q 218 183 218 90 l 286 164 l 306 221 l 306 411 q 199 640 306 571 q 44 715 154 715 l 15 754 l 15 764 q 113 821 54 821 l 132 821 q 315 688 315 760 l 315 649 l 325 649 q 471 915 463 788 l 461 915 l 403 906 q 364 935 364 921 l 364 954 q 442 992 364 978 m 371 1086 q 400 1065 400 1083 l 400 1058 l 218 886 l 203 886 l 189 900 l 189 942 q 371 1086 189 1056 z "},"":{"ha":701,"x_min":19,"x_max":683,"o":"m 225 1072 l 222 794 l 222 750 q 438 794 350 794 l 468 794 q 683 582 622 794 l 683 560 q 458 190 683 403 l 376 157 q 243 213 283 213 l 243 201 q 161 -201 214 -201 l 140 -201 q 78 414 114 -201 l 32 460 l 19 689 l 89 706 l 100 942 l 225 1072 m 217 603 l 217 390 l 178 325 l 243 308 l 347 308 q 517 701 517 403 l 503 701 q 217 603 217 656 z "},"":{"ha":701,"x_min":19,"x_max":683,"o":"m 225 1072 l 222 794 l 222 750 q 438 794 350 794 l 468 794 q 683 582 622 794 l 683 560 q 458 190 683 403 l 376 157 q 243 213 283 213 l 243 201 q 161 -201 214 -201 l 140 -201 q 78 414 114 -201 l 32 460 l 19 689 l 89 706 l 100 942 l 225 1072 m 217 603 l 217 390 l 178 325 l 243 308 l 347 308 q 517 701 517 403 l 503 701 q 217 603 217 656 z "},"":{"ha":761,"x_min":75,"x_max":743,"o":"m 507 593 l 590 593 l 618 585 l 646 593 q 743 506 710 593 q 681 450 731 450 l 653 450 l 542 458 l 486 443 l 479 450 l 479 458 l 535 522 l 528 522 q 221 394 251 425 q 172 379 221 379 q 75 458 107 379 l 75 467 q 297 561 75 490 q 507 593 433 593 z "},"":{"ha":1033,"x_min":19,"x_max":1104,"o":"m 581 753 q 688 615 688 706 q 601 346 688 588 q 932 104 711 218 q 1104 -28 1017 63 l 1104 -56 q 908 -90 1104 -85 q 553 207 813 -90 l 546 207 q 160 0 418 0 l 136 0 q 19 56 53 0 l 19 63 q 253 144 19 83 q 454 304 347 179 l 454 318 q 142 478 299 478 l 129 499 l 129 513 q 210 540 129 535 l 283 540 q 515 429 385 540 q 546 650 546 493 l 546 657 q 515 719 546 683 l 515 726 q 546 747 515 746 l 546 749 l 581 753 z "},"":{"ha":285,"x_min":15,"x_max":188,"o":"m 177 1124 q 185 1004 181 1063 l 188 957 l 185 892 l 182 722 q 164 706 182 713 q 107 792 128 726 q 113 1064 121 932 l 105 1071 q 55 1014 105 1053 l 48 1014 q 15 1077 35 1014 l 15 1084 q 159 1191 48 1136 l 177 1124 z "},"":{"ha":378,"x_min":-12,"x_max":374,"o":"m 228 1112 l 229 1112 l 241 1117 l 241 1119 l 238 1119 q 228 1112 231 1119 m 178 1199 l 183 1199 q 267 1149 226 1199 l 267 1144 q 233 1101 267 1113 l 195 1073 q 288 1018 262 1073 q 247 951 288 990 q 117 813 157 828 l 117 810 l 120 810 q 276 831 174 822 l 261 883 l 261 886 l 267 892 l 270 892 q 356 803 307 892 l 374 758 q 342 678 374 703 l 333 678 q 313 742 326 678 l 301 767 l 299 764 l 296 764 l 278 767 q 97 715 183 767 q 71 699 85 699 q 13 760 44 699 l 10 776 l 10 791 q 48 831 10 831 q 135 914 81 852 q 206 1021 199 988 l 206 1027 l 203 1027 l 195 1024 l 181 1027 l 175 1027 q 71 926 159 1027 q 5 883 22 883 q -12 944 -4 883 q 57 999 -12 960 q 83 1024 57 1007 q 172 1171 172 1134 l 172 1177 l 169 1192 l 178 1199 z "},"":{"ha":408,"x_min":1,"x_max":407,"o":"m 286 1188 q 268 1162 286 1172 q 383 899 303 1001 q 406 838 406 899 l 397 829 l 389 829 q 321 907 358 851 l 318 907 l 321 799 l 324 785 q 380 751 370 763 l 380 746 l 365 740 l 336 740 l 327 746 l 315 701 q 231 650 299 650 q 69 680 69 658 l 69 710 q 119 821 90 794 l 122 821 l 122 797 l 124 776 l 122 773 q 136 740 131 740 q 215 710 136 710 l 224 710 q 280 749 275 710 l 280 751 l 277 755 q 157 874 173 819 l 157 886 q 195 934 157 920 l 201 934 l 203 931 q 274 812 203 858 l 277 812 l 277 824 l 253 913 l 257 922 q 294 958 257 931 q 280 970 288 958 q 236 1042 250 1042 q 157 940 224 1033 q 31 892 134 892 l 19 892 q 1 901 4 892 l 1 910 q 128 988 26 941 l 233 1081 q 201 1158 201 1143 l 201 1167 q 257 1194 220 1194 l 277 1194 l 286 1188 z "},"":{"ha":810,"x_min":51,"x_max":786,"o":"m 213 905 q 222 785 217 843 l 224 738 l 222 672 l 218 503 q 200 486 218 494 q 143 572 165 507 q 149 844 157 713 l 141 851 q 91 794 141 834 l 84 794 q 51 858 71 794 l 51 865 q 195 972 84 917 l 213 905 m 524 1022 l 529 1022 q 593 956 567 1022 l 593 939 q 504 690 593 858 q 268 207 347 319 q 75 65 140 65 l 63 90 l 63 107 q 299 456 221 301 q 485 922 411 664 l 485 956 l 478 956 l 471 947 l 465 947 l 458 956 l 458 972 q 524 1022 485 1022 m 640 466 l 642 466 l 653 472 l 653 473 l 651 473 q 640 466 644 473 m 590 553 l 596 553 q 679 503 638 553 l 679 498 q 645 455 679 467 l 608 427 q 700 372 674 427 q 659 305 700 344 q 530 167 569 183 l 530 164 l 533 164 q 688 185 586 176 l 674 238 l 674 240 l 679 247 l 683 247 q 769 158 719 247 l 786 112 q 754 32 786 57 l 746 32 q 726 97 739 32 l 714 121 l 711 118 l 708 118 l 691 121 q 510 69 596 121 q 483 53 498 53 q 426 115 457 53 l 423 130 l 423 145 q 460 185 423 185 q 547 268 494 206 q 619 375 611 342 l 619 381 l 616 381 l 608 378 l 593 381 l 588 381 q 483 280 572 381 q 417 238 434 238 q 400 299 408 238 q 469 353 400 314 q 495 378 469 361 q 585 525 585 488 l 585 531 l 581 547 l 590 553 z "},"":{"ha":825,"x_min":99,"x_max":710,"o":"m 277 935 q 285 815 281 874 l 288 768 l 285 703 l 282 533 q 264 517 282 524 q 207 603 228 538 q 213 875 221 743 l 205 882 q 155 825 205 865 l 148 825 q 115 888 135 825 l 115 895 q 259 1002 148 947 l 277 935 m 560 1040 l 565 1040 q 629 974 603 1040 l 629 957 q 540 708 629 876 q 304 225 383 338 q 111 83 176 83 l 99 108 l 99 125 q 335 474 257 319 q 521 940 447 682 l 521 974 l 514 974 l 507 965 l 501 965 l 494 974 l 494 990 q 560 1040 521 1040 m 615 518 l 581 473 q 538 450 562 463 l 538 446 l 549 421 l 526 351 l 530 351 q 586 408 586 372 l 613 417 l 624 396 l 653 408 q 710 363 679 408 q 661 338 710 338 l 642 338 l 635 330 q 605 31 628 31 l 597 31 q 578 313 578 87 l 571 313 l 552 292 q 547 290 549 292 l 487 271 l 488 274 l 488 276 l 488 280 l 488 280 l 487 292 l 488 292 l 488 392 q 469 475 488 433 l 474 479 l 477 479 l 500 475 q 575 578 575 538 l 578 578 q 608 570 593 578 l 619 552 l 615 518 z "},"":{"ha":747,"x_min":11,"x_max":729,"o":"m 296 999 q 278 973 296 983 q 392 710 313 812 q 416 649 416 710 l 407 640 l 399 640 q 331 718 368 662 l 328 718 l 331 610 l 334 596 q 390 563 380 574 l 390 557 l 375 551 l 346 551 l 337 557 l 325 512 q 240 461 308 461 q 78 491 78 469 l 78 521 q 128 632 100 606 l 131 632 l 131 608 l 134 587 l 131 584 q 146 551 140 551 q 225 521 146 521 l 234 521 q 290 560 285 521 l 290 563 l 287 566 q 167 685 183 631 l 167 697 q 205 745 167 731 l 210 745 l 213 742 q 284 623 213 669 l 287 623 l 287 635 l 263 724 l 267 733 q 304 769 267 742 q 290 781 298 769 q 246 853 260 853 q 167 751 234 844 q 40 703 144 703 l 28 703 q 11 713 14 703 l 11 722 q 138 799 36 752 l 243 892 q 210 969 210 954 l 210 978 q 267 1006 230 1006 l 287 1006 l 296 999 m 571 1018 l 576 1018 q 640 951 614 1018 l 640 935 q 551 686 640 854 q 315 203 394 315 q 122 61 188 61 l 110 86 l 110 103 q 346 451 268 297 q 532 918 458 660 l 532 951 l 525 951 l 518 943 l 513 943 l 506 951 l 506 968 q 571 1018 532 1018 m 634 518 l 601 473 q 557 450 581 463 l 557 446 l 568 421 l 545 351 l 549 351 q 606 408 606 372 l 632 417 l 643 396 l 673 408 q 729 363 699 408 q 681 338 729 338 l 662 338 l 654 330 q 624 31 648 31 l 617 31 q 598 313 598 87 l 590 313 l 572 292 q 566 290 569 292 l 506 271 l 507 274 l 508 276 l 508 280 l 507 280 l 506 292 l 508 292 l 508 392 q 489 475 508 433 l 493 479 l 497 479 l 519 475 q 594 578 594 538 l 598 578 q 627 570 613 578 l 639 552 l 634 518 z "}}}
